<svg width="66" height="66" viewBox="0 0 66 66" fill="none" xmlns="http://www.w3.org/2000/svg">
<path fill-rule="evenodd" clip-rule="evenodd" d="M2.46764 0.0623279C1.5758 0.338154 0.790016 0.982623 0.346564 1.80193L0.000705011 2.44095V33.0098V63.5787L0.239502 64.0327C0.64005 64.7944 1.1116 65.2906 1.77995 65.6535L2.41789 66H32.9348H63.4517L63.905 65.7608C64.1542 65.6293 64.5425 65.3721 64.7677 65.1892C65.1928 64.844 65.8186 63.8051 65.8186 63.4444C65.8186 63.3306 65.8639 63.2095 65.9193 63.1752C65.9862 63.1338 66.0116 52.9357 65.9951 32.8273L65.9704 2.54184L65.9193 24.6866C65.8912 36.8662 65.857 46.7532 65.8434 46.6576C65.8298 46.562 65.7007 46.2344 65.5566 45.9297C65.2512 45.2835 64.5901 44.6345 63.9227 44.3255C63.4602 44.1114 63.3496 44.1069 57.7865 44.079C54.6706 44.0633 52.1212 44.0179 52.1212 43.9781C52.1212 43.9382 52.5568 43.656 53.0891 43.3508C53.6214 43.0456 54.25 42.6824 54.4861 42.5437C54.7222 42.405 55.4537 41.9833 56.1117 41.6066C56.7697 41.23 57.4755 40.8214 57.6799 40.6987C57.8845 40.5759 58.7683 40.068 59.6439 39.5699C61.3352 38.6079 61.4371 38.5398 61.9473 38.0302C62.5459 37.4323 62.7467 36.868 62.7466 35.7842L62.7464 34.8258L61.9033 33.3629C61.4396 32.5584 60.96 31.7185 60.8376 31.4965C60.7151 31.2746 60.5198 30.9341 60.4037 30.7399C60.2876 30.5457 59.8941 29.8647 59.5293 29.2265C59.1645 28.5884 58.7585 27.8847 58.6271 27.6628C58.4957 27.4408 58.0381 26.6464 57.6101 25.8973C57.1822 25.1482 56.7514 24.3991 56.6528 24.2326C56.5543 24.0662 56.0842 23.249 55.6083 22.4167C54.3706 20.2523 54.2282 20.071 53.3802 19.5805C52.9151 19.3114 52.7993 19.2893 51.8694 19.2924C50.8551 19.2956 50.6845 19.3385 49.9848 19.7666C49.7793 19.8924 48.7822 20.4714 47.7691 21.0534C46.7561 21.6353 45.8513 22.1574 45.7587 22.2136C45.666 22.2698 45.1948 22.5428 44.7113 22.8202C44.228 23.0976 43.6415 23.4381 43.4082 23.5769C42.017 24.4036 41.1167 24.8955 41.0735 24.8522C41.0463 24.8249 41.1929 24.5155 41.3995 24.1645C41.9629 23.207 42.2132 22.7743 43.0874 21.2451C43.3535 20.7798 43.6542 20.259 43.7557 20.088C44.1547 19.4158 45.9274 16.327 46.2697 15.7076C46.6181 15.0774 46.6322 15.0125 46.6322 14.043C46.6322 13.1144 46.609 12.994 46.3413 12.5297C46.0617 12.0446 45.6213 11.5612 45.214 11.2923C45.0311 11.1715 44.2402 10.7135 40.3374 8.46837C39.4234 7.94264 38.4943 7.40491 38.2728 7.27346C38.0512 7.1421 37.3487 6.73552 36.7117 6.37011C36.0746 6.0047 35.4175 5.62415 35.2513 5.52457C35.0851 5.4249 34.088 4.84964 33.0355 4.24633L31.1219 3.14928L30.1651 3.14817C29.3706 3.14736 29.1291 3.18631 28.7411 3.37769C27.8861 3.7997 27.5307 4.23836 26.3293 6.35508C25.8631 7.1761 25.395 7.99329 25.2889 8.17105C25.1827 8.34881 24.9953 8.67579 24.8724 8.89774C24.7494 9.11969 24.4284 9.67982 24.1589 10.1424C23.8894 10.605 23.5747 11.1497 23.4596 11.353C23.3444 11.5563 23.1297 11.9269 22.9826 12.1766C22.8353 12.4263 22.5678 12.8917 22.3881 13.2107C22.2084 13.5297 22.028 13.7908 21.9871 13.7908C21.9462 13.7908 21.9001 11.2371 21.8845 8.11586C21.8566 2.54325 21.8521 2.43248 21.6384 1.9692C21.3302 1.30112 20.6703 0.625582 20.0072 0.299312L19.4389 0.0196526L11.0795 0.00199726C6.48178 -0.00778881 2.60643 0.0193499 2.46764 0.0623279ZM2.68076 2.32856C2.16479 2.6171 2.17345 2.50108 2.16962 9.17518L2.1661 15.405H10.9817H19.7972L19.7691 9.10174L19.741 2.79849L19.4618 2.51883L19.1826 2.23918L11.0521 2.21658C4.42878 2.19811 2.87685 2.2189 2.68076 2.32856ZM0 32.9594C0 49.6335 0.011683 56.4547 0.025884 48.1177C0.0400849 39.7806 0.0400849 26.1381 0.025884 17.8011C0.011683 9.46392 0 16.2852 0 32.9594ZM29.7119 5.31069C29.3826 5.44578 29.1614 5.75389 28.2376 7.36476C27.7541 8.20787 26.9589 9.59437 26.4706 10.4459C25.9821 11.2973 25.4876 12.1599 25.3715 12.3627C25.2553 12.5655 24.8294 13.299 24.4249 13.9926C24.0205 14.6862 23.6216 15.3898 23.5386 15.5563C23.4556 15.7228 23.3219 15.9355 23.2415 16.0292C23.161 16.1228 23.1228 16.2439 23.1563 16.2982C23.1898 16.3526 23.7255 16.6846 24.3466 17.036C24.9677 17.3874 25.666 17.7884 25.8985 17.9272C26.1309 18.0659 27.016 18.5798 27.8654 19.0692C28.7148 19.5585 30.1802 20.4064 31.1219 20.9531C32.0636 21.4999 32.9828 22.0303 33.1645 22.1315C33.3463 22.2328 34.1848 22.7147 35.0278 23.2022C35.8708 23.6896 36.9429 24.3092 37.4102 24.579C37.8776 24.8487 38.3083 25.0508 38.3674 25.0281C38.4266 25.0053 38.6682 24.6355 38.9042 24.2061C39.1403 23.7768 39.4347 23.2585 39.5585 23.0542C39.6823 22.85 40.2141 21.9277 40.7403 21.0045C41.2665 20.0814 41.7712 19.2043 41.8618 19.0554C41.9524 18.9066 42.3767 18.1718 42.8049 17.4227C43.2329 16.6736 43.6766 15.9018 43.7907 15.7076C44.9355 13.7599 44.8868 13.5735 42.9425 12.462C42.3282 12.1108 41.6308 11.71 41.3927 11.5713C41.1547 11.4325 40.3327 10.9561 39.5661 10.5125C38.7993 10.069 38.0935 9.66045 37.9975 9.60456C37.9014 9.54877 37.1536 9.11788 36.3357 8.64714C35.5177 8.1763 34.7724 7.745 34.6794 7.68871C34.5345 7.60083 32.4077 6.37273 30.8881 5.49945C30.4034 5.221 30.0637 5.16652 29.7119 5.31069ZM2.1661 24.1822V30.8407H7.19303H12.2201L12.7072 30.0088C12.9752 29.5513 13.2625 29.0541 13.3456 28.9041C13.4287 28.7542 13.8188 28.073 14.2126 27.3905C14.6063 26.7079 15.3726 25.3777 15.9153 24.4344C16.458 23.4911 16.9743 22.5976 17.0626 22.4488C17.3302 21.9981 19.0253 19.0544 19.1878 18.7585C19.2713 18.6064 19.4444 18.3127 19.5725 18.1055C19.7007 17.8985 19.777 17.6828 19.7421 17.6263C19.6999 17.5579 16.7559 17.5236 10.9224 17.5236H2.1661V24.1822ZM21.8468 18.501C21.7515 18.6571 21.5755 18.9436 21.4556 19.1378C21.3358 19.332 21.2038 19.559 21.1625 19.6422C21.1212 19.7255 20.9657 20.0043 20.8171 20.262C20.6684 20.5196 20.3201 21.1246 20.0432 21.6064C19.7662 22.0883 19.449 22.6329 19.3382 22.8168C19.2274 23.0007 18.829 23.6895 18.4531 24.3476C18.0771 25.0057 17.6692 25.7118 17.5466 25.9166C17.0918 26.6771 15.5712 29.3833 15.5138 29.5346C15.458 29.6815 15.9352 29.998 17.5134 30.8612C17.6861 30.9557 17.8727 31.0708 17.9281 31.1171C17.9835 31.1633 18.746 31.6081 19.6224 32.1055C20.4988 32.6028 21.4101 33.1233 21.6474 33.262C21.8846 33.4008 22.5442 33.781 23.113 34.1071C24.2676 34.7689 24.1353 34.766 25.1293 34.1523C25.3232 34.0326 25.6631 33.8345 25.8847 33.712C26.1063 33.5895 26.8541 33.1587 27.5465 32.7548C28.2389 32.3508 28.9719 31.9252 29.1754 31.8089C29.3788 31.6925 30.0587 31.2997 30.6861 30.9359C31.3136 30.5721 32.7686 29.7322 33.9196 29.0695C35.0707 28.4067 36.1811 27.7614 36.3872 27.6354C36.5933 27.5092 36.8639 27.3544 36.9886 27.2912C37.3026 27.1321 37.272 26.9739 36.8879 26.7684C36.7078 26.6722 36.3938 26.4935 36.1901 26.3714C35.9863 26.2494 35.2838 25.8423 34.629 25.4669C33.9741 25.0915 33.2344 24.6637 32.9852 24.5164C32.454 24.2025 32.116 24.0072 30.9221 23.3246C30.4368 23.0472 29.847 22.7067 29.6113 22.568C29.3755 22.4293 28.3953 21.8623 27.433 21.308C26.4707 20.7538 25.6058 20.2544 25.5111 20.1982C25.0447 19.9218 22.1616 18.2762 22.0957 18.2488C22.0541 18.2314 21.9421 18.3449 21.8468 18.501ZM51.0637 21.6442C50.7867 21.7999 50.3562 22.048 50.1069 22.1954C49.8576 22.3429 49.1187 22.7708 48.4648 23.1463C47.8111 23.5219 47.1228 23.9199 46.9354 24.0308C46.7481 24.1418 45.8409 24.6639 44.9195 25.1911C43.9981 25.7182 43.0774 26.2509 42.8736 26.3749C42.6696 26.4989 42.1521 26.7938 41.7236 27.0302C41.2949 27.2667 40.9248 27.5111 40.901 27.5731C40.8772 27.6353 41.0647 28.044 41.3176 28.4815C41.5705 28.919 42.1982 30.0034 42.7122 30.8912C43.2264 31.779 44.16 33.4049 44.7871 34.5044C45.4141 35.6038 46.0283 36.6707 46.1519 36.8752C46.2754 37.0797 46.6833 37.7862 47.0583 38.4452C47.4333 39.1042 47.8534 39.8349 47.9918 40.0688C48.1303 40.3028 48.5307 41.0004 48.8815 41.619C49.2323 42.2377 49.5628 42.7709 49.6161 42.8038C49.6693 42.8368 49.7675 42.8192 49.8343 42.7649C49.9011 42.7105 50.1144 42.5755 50.3083 42.4647C50.5022 42.3539 51.4086 41.8301 52.3226 41.3005C53.2366 40.7711 54.6783 39.9375 55.5263 39.4483C56.3742 38.959 57.2623 38.4451 57.4998 38.3064C57.7372 38.1677 58.4566 37.7591 59.0985 37.3984C60.7094 36.4932 60.9612 36.0408 60.3984 35.062C60.2498 34.8035 59.8214 34.0544 59.4467 33.3973C59.0719 32.7403 58.6414 31.9942 58.4899 31.7393C58.3384 31.4844 57.8066 30.5624 57.3081 29.6904C56.8095 28.8186 56.3014 27.9375 56.1788 27.7326C56.0563 27.5278 55.6484 26.8214 55.2724 26.1628C54.8964 25.5043 54.494 24.8006 54.378 24.599C54.2622 24.3976 53.8609 23.6992 53.4862 23.0472C52.4746 21.2868 52.0926 21.0656 51.0637 21.6442ZM37.7692 29.3258C37.2152 29.6511 36.621 30.0003 36.4486 30.1015C36.2762 30.2029 35.5818 30.6037 34.9055 30.9921C34.2292 31.3805 33.5091 31.7973 33.3053 31.9182C33.1016 32.0393 32.7762 32.2252 32.5823 32.3316C32.3884 32.4379 31.6633 32.8557 30.9709 33.2598C29.4213 34.1643 29.1556 34.3178 28.2597 34.8258C27.8682 35.0478 27.5475 35.2656 27.5472 35.3098C27.5465 35.3917 28.2433 36.6596 29.0276 38.0037C30.0466 39.7499 30.8631 41.169 31.7674 42.7658C32.1224 43.3927 32.4624 43.9391 32.5228 43.9798C32.6809 44.0865 47.5659 44.0752 47.6319 43.9683C47.6619 43.9195 47.2681 43.1448 46.7566 42.2467C46.245 41.3486 45.7132 40.4148 45.5747 40.1714C45.4362 39.9282 44.9203 39.0345 44.4284 38.1854C43.9364 37.3364 43.2113 36.0817 42.817 35.3973C42.4226 34.7129 42.0283 34.0319 41.9405 33.884C41.8528 33.7361 41.6383 33.3655 41.4639 33.0603C41.2895 32.7551 40.84 31.9688 40.4651 31.3128C40.0903 30.6568 39.6838 29.9531 39.5619 29.749C39.4401 29.5449 39.2617 29.2304 39.1656 29.05C39.0694 28.8696 38.9425 28.7248 38.8836 28.7283C38.8246 28.7316 38.3231 29.0005 37.7692 29.3258ZM13.9107 32.2289C13.6953 32.6029 13.0154 33.7824 12.3999 34.85C11.7845 35.9176 11.1849 36.9618 11.0675 37.1704C10.9501 37.3791 10.5249 38.1172 10.1227 38.8108C9.25428 40.308 9.10301 40.5712 8.51755 41.6041C8.2718 42.0376 7.90378 42.6674 7.69963 43.0035C7.49548 43.3397 7.29697 43.7142 7.2584 43.8358C7.19404 44.0388 7.22214 44.057 7.59992 44.057C7.85665 44.057 8.15306 43.9684 8.38732 43.8217C8.59389 43.6923 9.14823 43.3721 9.61908 43.1101C10.0899 42.8481 10.6338 42.5377 10.8277 42.4204C11.0215 42.3031 11.3474 42.1126 11.5517 41.9971C13.7704 40.7429 15.1258 39.9635 15.2088 39.8941C15.305 39.8136 16.3065 39.2342 19.9928 37.126C20.9068 36.6033 21.7151 36.1163 21.7888 36.0437C21.9 35.9344 21.8048 35.8448 21.2348 35.5214C20.8565 35.3067 20.4709 35.0852 20.3783 35.0289C20.2856 34.9727 19.8149 34.6997 19.332 34.4222C18.0023 33.658 17.7547 33.5145 17.4038 33.3042C16.8881 32.9951 14.3489 31.5469 14.3245 31.5479C14.3123 31.5484 14.1261 31.8549 13.9107 32.2289ZM2.1661 38.5985V44.2375L2.54378 44.1497C2.75156 44.1014 3.29482 44.0607 3.75106 44.0594L4.58076 44.057L4.80858 43.6748C4.93397 43.4647 5.09069 43.2036 5.15686 43.0947C5.27439 42.9015 6.3017 41.1274 7.74395 38.6274C8.13825 37.944 8.57415 37.189 8.71263 36.9498C8.85112 36.7106 9.36547 35.8056 9.85566 34.9387C10.3458 34.0718 10.7878 33.3372 10.8376 33.3063C10.8876 33.2754 10.9284 33.1848 10.9284 33.1048C10.9284 32.9804 10.2947 32.9594 6.54724 32.9594H2.1661V38.5985ZM24.0215 37.2922C23.1629 37.7871 22.3471 38.2568 22.2086 38.3358C21.7239 38.6124 19.374 39.972 19.2058 40.0731C19.1125 40.1292 18.2486 40.6286 17.2863 41.1828C16.3239 41.7371 15.3449 42.3041 15.1107 42.4428C14.4381 42.8411 12.9489 43.694 12.7346 43.8035C12.6276 43.8582 12.5398 43.9377 12.5398 43.98C12.5398 44.0224 16.4602 44.057 21.2518 44.057C26.0433 44.057 29.9637 44.0315 29.9637 44.0002C29.9637 43.9509 29.1066 42.4125 28.5033 41.379C28.3925 41.1893 27.9952 40.4997 27.6203 39.8468C27.2455 39.1938 26.8287 38.4779 26.6944 38.256C26.5599 38.034 26.265 37.5233 26.0388 37.121C25.8127 36.7186 25.6175 36.3902 25.6051 36.391C25.5927 36.3917 24.8801 36.7972 24.0215 37.2922ZM2.82075 46.2707C2.70996 46.3163 2.52868 46.4545 2.41789 46.5779C2.22048 46.7976 2.21595 46.9637 2.18946 54.8878C2.16962 60.8408 2.19329 63.0478 2.2792 63.2556C2.52394 63.8475 2.2936 63.8309 10.2693 63.8309H17.5767L17.551 55.0285L17.5253 46.2261L10.2737 46.2069C6.28538 46.1963 2.93154 46.2251 2.82075 46.2707ZM19.7586 46.2421C19.7212 46.2795 19.6907 50.2523 19.6907 55.0706V63.8309H26.3384H32.9863L32.9605 55.0285L32.9348 46.2261L26.3806 46.2001C22.7758 46.1858 19.7958 46.2048 19.7586 46.2421ZM35.1002 55.0026V63.8309H41.748H48.3958L48.37 55.0285L48.3444 46.2261L41.7223 46.2001L35.1002 46.1742V55.0026ZM50.5097 55.0011V63.8309H56.7088C63.4738 63.8309 63.3482 63.8414 63.5904 63.2556C63.6763 63.0478 63.7 60.8388 63.6802 54.8794L63.6532 46.7855L63.374 46.5057L63.0947 46.2261L56.8023 46.1986L50.5097 46.1712V55.0011ZM9.77015 50.8049C9.26899 50.9364 8.59067 51.3211 8.05798 51.776C6.84748 52.8097 6.32627 54.573 6.74978 56.2018C6.94426 56.9499 7.27461 57.5107 7.87508 58.1122C8.47555 58.7137 9.03543 59.0446 9.78224 59.2394C11.8633 59.7824 13.8864 58.8488 14.9173 56.8697C15.1903 56.3456 15.2064 56.2448 15.2076 55.0537L15.2088 53.7926L14.8137 53.0518C14.3593 52.1996 13.5925 51.4598 12.7366 51.0477C12.2701 50.8231 12.0279 50.7789 11.1298 50.7545C10.5482 50.7387 9.93633 50.7614 9.77015 50.8049ZM9.82625 53.1621C9.06584 53.6243 8.67325 54.3562 8.74416 55.1792C8.84155 56.3085 9.67578 57.1441 10.8031 57.2417C11.3055 57.285 11.4545 57.2526 11.9355 56.9949C14.0065 55.8851 13.2534 52.8342 10.9087 52.8342C10.4737 52.8342 10.2581 52.8995 9.82625 53.1621Z" fill="#88B958"/>
</svg>
