<svg width="56" height="68" viewBox="0 0 56 68" fill="none" xmlns="http://www.w3.org/2000/svg">
<path fill-rule="evenodd" clip-rule="evenodd" d="M26.0535 0.426885C25.321 0.672889 23.6843 1.21456 22.4165 1.63073C21.1487 2.0468 19.2354 2.67687 18.1648 3.03102C17.0942 3.38507 15.4575 3.92134 14.5278 4.22271C13.598 4.52399 12.676 4.83087 12.4788 4.90463C12.2815 4.97839 11.0137 5.39778 9.66136 5.83681C8.309 6.27573 6.6032 6.8362 5.87067 7.08231C3.16546 7.99101 1.31089 8.58857 1.19553 8.58857C1.13037 8.58857 0.875268 8.71708 0.628771 8.87426C0.28761 9.0917 0.154833 9.25594 0.0729749 9.56158C-0.0707638 10.0984 0.0176514 32.4809 0.166922 33.3657C0.224807 33.7085 0.36496 34.6201 0.478476 35.3915C0.84443 37.8803 1.65799 41.2095 2.39523 43.2349C2.54081 43.6349 2.74213 44.2193 2.84253 44.5335C3.08729 45.2992 3.44002 46.1267 4.28166 47.9099C5.12258 49.6915 6.68608 52.4116 7.38633 53.3113C7.4311 53.3688 7.70567 53.7431 7.99633 54.1431C8.99614 55.5187 9.96348 56.6397 11.4499 58.1455C13.247 59.966 13.4378 60.1398 14.9376 61.3231C16.033 62.1874 16.4053 62.451 17.8318 63.373C19.4344 64.4088 21.8152 65.6919 23.3386 66.3407C23.7612 66.5207 24.2452 66.7359 24.4143 66.8189C24.5833 66.9019 25.3651 67.2043 26.1518 67.4909C27.7329 68.0671 28.2041 68.1219 28.9544 67.8169C29.7955 67.475 30.8711 67.077 30.9537 67.077C30.9977 67.077 31.2271 66.989 31.4634 66.8815C31.6998 66.7739 32.239 66.5344 32.6616 66.3492C33.7816 65.8584 36.4686 64.4533 37.3231 63.9114C39.3422 62.631 39.8531 62.2773 41.0626 61.3231C43.6329 59.2952 46.1362 56.7048 47.9978 54.1469C48.2904 53.7449 48.567 53.3688 48.6125 53.3113C49.2867 52.4584 50.8764 49.6939 51.7185 47.9099C52.5546 46.1386 52.9107 45.3041 53.1594 44.5335C53.2608 44.2193 53.4651 43.6349 53.6133 43.2349C54.3084 41.3588 55.2541 37.4571 55.5646 35.1837C55.6545 34.5266 55.7754 33.7085 55.8335 33.3657C55.984 32.4781 56.0706 10.0959 55.9256 9.56033C55.7799 9.02157 55.446 8.82387 53.7665 8.28189C53.0058 8.03641 51.5766 7.56549 50.5905 7.23554C49.6044 6.9056 47.6911 6.27708 46.3388 5.83899C44.9864 5.4009 43.7186 4.9813 43.5214 4.9065C43.1852 4.77913 42.2746 4.48025 38.2452 3.17501C37.3436 2.88298 36.4607 2.57911 36.2831 2.49964C36.1056 2.42027 35.9101 2.35534 35.8488 2.35534C35.7424 2.35534 32.6589 1.34587 30.0491 0.4567C28.2826 -0.145222 27.7689 -0.149066 26.0535 0.426885ZM26.6682 2.78159C26.0484 3.00349 25.2716 3.25802 24.9421 3.34705C24.6125 3.43618 24.2668 3.54932 24.1737 3.59856C24.0806 3.6478 22.898 4.04746 21.5457 4.48679C18.2938 5.54312 16.5021 6.13091 14.8864 6.67133C14.1538 6.9163 12.448 7.47615 11.0957 7.91549C9.74332 8.35472 8.49157 8.77941 8.31402 8.85909C8.13648 8.93888 7.94274 9.00412 7.88342 9.00412C7.77739 9.00412 3.2719 10.4721 2.71723 10.6874L2.43252 10.7979L2.46357 22.0818L2.49461 33.3657L2.77973 35.1837C2.93648 36.1836 3.12755 37.2355 3.20429 37.5211C3.28102 37.8068 3.37271 38.2276 3.40806 38.4561C3.51297 39.1354 4.40153 42.1623 4.84155 43.3388C4.99113 43.7388 5.16192 44.2297 5.22103 44.4296C5.28025 44.6296 5.39038 44.9101 5.46579 45.053C5.54119 45.1958 5.76525 45.6867 5.9638 46.1438C6.16225 46.6009 6.46386 47.232 6.63383 47.5462C6.8038 47.8605 6.99272 48.2345 7.05347 48.3773C7.28798 48.9282 8.98241 51.6228 9.60542 52.4354C9.8052 52.6961 10.0609 53.0419 10.1736 53.2038C11.1558 54.6155 14.5506 58.0773 16.0133 59.1589C16.0697 59.2005 16.5307 59.5432 17.0378 59.9204C18.893 61.3001 20.772 62.4291 23.055 63.5358C23.7723 63.8836 24.386 64.1682 24.4188 64.1682C24.4515 64.1682 24.7173 64.2778 25.0097 64.4118C25.302 64.5457 25.887 64.7842 26.3096 64.9417C26.7322 65.0992 27.2294 65.2935 27.4145 65.3734C27.8639 65.5676 28.1045 65.5568 28.7153 65.3156C28.998 65.2038 29.5522 64.9923 29.9466 64.8454C30.3411 64.6986 30.8021 64.5126 30.9711 64.432C31.1402 64.3514 31.6012 64.1457 31.9957 63.9747C32.9968 63.5407 34.7099 62.6333 36.1845 61.7559C37.9066 60.7312 39.9691 59.1813 41.5959 57.6891C44.1668 55.3311 46.4735 52.4539 48.2282 49.4162C48.8239 48.3849 50.1507 45.7195 50.2966 45.2607C50.3602 45.0607 50.4511 44.8473 50.4984 44.7863C50.5844 44.6756 51.0223 43.4551 51.2229 42.7674C51.2812 42.5675 51.3649 42.3571 51.4089 42.2999C51.5564 42.1081 52.4351 38.9583 52.6986 37.677C52.7867 37.2484 53.0004 36.0563 53.1734 35.0278L53.4879 33.1579L53.5287 21.9783L53.5694 10.7987L53.2837 10.6878C52.7291 10.4725 48.2229 9.00412 48.1167 9.00412C48.0574 9.00412 47.8637 8.93888 47.6861 8.85909C47.5086 8.77941 46.2568 8.35472 44.9045 7.91549C43.5521 7.47615 41.8463 6.9163 41.1138 6.67133C39.4533 6.11595 37.6132 5.51174 34.4545 4.48461C33.1021 4.04486 31.8504 3.61965 31.6728 3.53966C31.4953 3.45966 31.2967 3.39421 31.2317 3.39421C31.1666 3.39421 30.427 3.16047 29.5881 2.87478C28.7491 2.58909 28.0025 2.36043 27.929 2.36667C27.8554 2.3729 27.288 2.55958 26.6682 2.78159ZM26.7194 6.96575C26.1841 7.15275 23.3027 8.13521 20.3163 9.14894C17.3298 10.1627 14.7941 11.0323 14.6815 11.0814C14.5688 11.1307 14.223 11.2477 13.9131 11.3416C13.6032 11.4355 13.2574 11.554 13.1447 11.6051C13.032 11.6563 11.7872 12.083 10.3785 12.5535C8.96981 13.024 7.67156 13.5036 7.4936 13.6194C7.29228 13.7502 7.12764 13.9728 7.05818 14.208C6.90912 14.7124 6.90451 29.4396 7.05285 30.9393C7.44155 34.8664 8.62117 39.2027 10.3542 43.0741C12.7314 48.3845 16.0191 52.5723 20.4402 55.9216C21.9454 57.0619 22.8595 57.6151 25.029 58.6987C27.1763 59.7713 27.5666 59.9339 28.0157 59.9426C29.0372 59.9625 33.1969 57.8064 35.6327 55.9944C38.0003 54.233 40.6597 51.5586 42.1261 49.4642C43.8853 46.9517 44.6631 45.5915 45.9686 42.7445C46.8702 40.7783 48.0589 37.0666 48.4898 34.872C49.2283 31.1109 49.1959 31.6395 49.2333 22.7174C49.2638 15.4545 49.2505 14.6226 49.099 14.2203C49.0067 13.975 48.8285 13.7062 48.7031 13.6228C48.4789 13.4739 47.3984 13.068 46.4925 12.7924C46.2389 12.7153 44.049 11.9691 41.626 11.1341C39.2031 10.2992 37.0132 9.55202 36.7596 9.47379C36.1356 9.28119 35.0135 8.89805 34.7618 8.79157C33.8444 8.40344 28.3093 6.61586 28.0383 6.62022C27.8482 6.62323 27.2547 6.77875 26.7194 6.96575ZM27.7178 9.16909C27.6633 9.22436 19.5214 12.0366 18.4209 12.3802C18.1673 12.4595 16.0466 13.1772 13.7082 13.975L9.45646 15.4259L9.42746 22.9932C9.40841 27.9618 9.43627 30.8639 9.50881 31.4437C9.90314 34.598 11.0119 38.6912 12.1678 41.2611C13.2438 43.6531 13.8563 44.8012 15.0221 46.6113C17.2332 50.044 20.1718 52.9675 23.6459 55.1908C24.3099 55.6156 24.5225 55.7316 25.976 56.4623C26.6947 56.8236 27.4134 57.1859 27.573 57.2674C27.9734 57.4719 28.1407 57.4558 28.8326 57.1459C33.8768 54.8863 38.0195 51.3722 41.0067 46.819C41.7263 45.7222 43.214 43.1557 43.214 43.011C43.214 42.956 43.8003 41.6374 43.9309 41.3984C44.0976 41.0935 44.7353 39.3894 45.0978 38.2807C45.7771 36.2024 46.1657 34.5817 46.4385 32.6904C46.5249 32.0904 46.6416 31.3739 46.6978 31.0982C46.7601 30.7921 46.7998 27.6482 46.7998 23.0251V15.4534L46.1595 15.2444C44.7727 14.7917 44.4761 14.691 43.9824 14.5058C43.7007 14.3999 43.3088 14.2663 43.1116 14.2087C42.9144 14.151 41.1164 13.5386 39.116 12.8476C37.1156 12.1568 35.2024 11.5034 34.8643 11.3958C34.5262 11.2882 32.8817 10.7294 31.2098 10.154C28.3156 9.15808 27.8564 9.02853 27.7178 9.16909ZM40.9089 24.6578C40.5471 24.756 41.0082 24.2224 35.5398 30.8724C34.5061 32.1294 33.4933 33.363 33.2891 33.6136C33.0848 33.8643 32.8464 34.1448 32.7593 34.237C32.6722 34.3291 32.3962 34.6616 32.1461 34.9759C31.8959 35.2902 31.6647 35.5707 31.6326 35.5992C31.6004 35.6278 30.796 36.6095 29.8449 37.7809C28.894 38.9522 27.8132 40.2678 27.4433 40.7043C27.0733 41.141 26.6419 41.6552 26.4844 41.8471L26.1982 42.1961L25.617 41.5727C25.2972 41.2299 24.481 40.3607 23.803 39.6411C23.1249 38.9214 21.9478 37.6671 21.1871 36.8537C20.4264 36.0402 19.5043 35.0567 19.1381 34.6681C18.7718 34.2795 18.2381 33.7107 17.9521 33.4039C16.9991 32.3819 16.7114 32.171 16.2707 32.171C16.0499 32.171 15.7594 32.2216 15.6252 32.2837C15.1281 32.5134 14.8843 33.3376 15.1572 33.866C15.2217 33.9907 15.6307 34.4669 16.0661 34.924C16.5015 35.3811 16.9904 35.9002 17.1527 36.0775C17.5231 36.4826 20.6901 39.8615 22.0598 41.313C22.6259 41.913 23.5025 42.8449 24.0079 43.3842C25.6531 45.1398 25.9231 45.3346 26.5098 45.1896C26.9761 45.0745 27.0184 45.0282 29.9694 41.4143C30.0381 41.3301 30.2159 41.1208 30.3642 40.9494C30.5126 40.778 31.5858 39.4722 32.7491 38.0477C33.9124 36.6233 34.9565 35.3538 35.0692 35.2268C35.3671 34.8908 35.8117 34.3522 37.8515 31.8561C39.8881 29.3641 39.9215 29.3237 40.1484 29.0753C40.2372 28.9781 40.7539 28.3573 41.2965 27.6958C42.2789 26.4982 42.5081 26.0408 42.4179 25.4586C42.3362 24.932 41.5114 24.4942 40.9089 24.6578Z" fill="#88B958"/>
</svg>
