<svg width="57" height="73" viewBox="0 0 57 73" fill="none" xmlns="http://www.w3.org/2000/svg">
<path fill-rule="evenodd" clip-rule="evenodd" d="M2.45108 0.210521C2.14116 0.322258 1.87223 0.459384 1.85348 0.515201C1.83463 0.571018 1.76025 0.616761 1.68822 0.616761C1.47984 0.616761 0.61105 1.60903 0.402664 2.08496C-0.178851 3.41316 -0.120556 6.36384 0.513106 7.6795C1.09349 8.88465 2.03431 9.44898 3.67619 9.57696C4.45677 9.63771 4.78851 9.70504 4.87262 9.81966C4.93655 9.90683 5.02015 10.3351 5.05816 10.7712C5.15897 11.9265 5.38805 13.3225 5.6825 14.576C5.96332 15.7713 6.60712 17.7755 6.7608 17.9323C6.81346 17.986 6.85649 18.0919 6.85649 18.1674C6.85649 18.2882 7.90334 20.4888 8.36068 21.3296C8.45299 21.4993 8.80501 22.0543 9.143 22.5632C10.985 25.336 13.3633 27.7432 16.1754 29.6811C16.6476 30.0064 17.0511 30.325 17.0722 30.389C17.0934 30.4531 16.7513 30.7493 16.3121 31.0474C13.2739 33.1097 10.4576 36.0506 8.61087 39.0895C6.73939 42.169 5.37391 46.3316 5.06256 49.9062C4.94352 51.2735 5.06 51.1524 3.79883 51.2192C2.77318 51.2735 1.96146 51.487 1.85348 51.7308C1.83463 51.7732 1.7583 51.8079 1.68361 51.8079C1.47697 51.8079 0.602751 52.8317 0.394365 53.3179C0.0262571 54.1766 -0.0998605 55.931 0.0989977 57.4285C0.299188 58.9365 0.98551 59.9287 2.24617 60.5325L2.80966 60.8023L14.3984 60.8317L25.9872 60.8612L26.3699 62.0653C27.2479 64.8285 28.7782 67.1572 30.9555 69.0432C32.3633 70.2626 33.0457 70.7187 34.5542 71.4486C38.3794 73.2992 42.8529 73.5037 46.8592 72.0109C47.7775 71.6689 49.5509 70.7227 50.385 70.1298C53.0977 68.2018 55.2715 65.2813 56.2181 62.2929C56.7528 60.6048 56.8543 60.079 56.9563 58.474C57.1734 55.0527 56.5868 52.2571 55.0975 49.6143C54.8796 49.2277 54.7013 48.8896 54.7013 48.863C54.7013 48.6806 53.2274 46.9299 52.2462 45.9466C49.7194 43.415 46.6546 41.9567 42.9706 41.5334C41.2607 41.337 39.0159 41.4851 37.6825 41.8824C36.722 42.1686 36.7402 42.18 36.0938 40.8861C35.3884 39.4741 34.1873 37.5546 33.3514 36.503C31.8844 34.6577 29.6614 32.5672 27.731 31.2179C27.1815 30.8338 26.7321 30.4771 26.7321 30.4251C26.7321 30.3731 26.9281 30.1879 27.1675 30.0134C27.4069 29.8391 28.0862 29.3428 28.6769 28.9108C30.6073 27.4985 32.9645 25.0269 34.4646 22.8418C35.4025 21.4757 36.9835 18.2886 37.4836 16.7553C38.0907 14.8945 38.5792 12.5828 38.6738 11.1239C38.7499 9.95031 38.7874 9.78974 39.0008 9.72365C39.0994 9.69312 39.651 9.62445 40.2267 9.5709C41.0602 9.49329 41.3808 9.41486 41.7999 9.18604C42.4216 8.84651 43.0138 8.20323 43.3759 7.47442C43.6304 6.962 43.6365 6.89827 43.6365 4.7799C43.6365 2.6642 43.6301 2.59718 43.3771 2.08784C43.0607 1.45072 42.2148 0.628068 41.5057 0.267469L40.9796 0L21.9971 0.00370059C3.35439 0.00740116 3.00452 0.0111017 2.45108 0.210521ZM3.20655 2.43446C3.08679 2.45841 2.87932 2.59482 2.74552 2.7377C2.51265 2.98636 2.50077 3.07157 2.46614 4.74721L2.42997 6.49706L2.8199 6.89775L3.20983 7.29834H21.8421H40.4742L40.8181 7.03519C41.2968 6.66883 41.3826 6.33085 41.3826 4.81269C41.3826 3.40041 41.2876 2.9916 40.8737 2.62123C40.6459 2.41739 40.4903 2.41554 22.0342 2.40331C11.7987 2.39642 3.32632 2.41051 3.20655 2.43446ZM13.6738 9.63771C10.2389 9.65231 7.38954 9.7034 7.3418 9.7513C7.24601 9.84741 7.58645 12.4604 7.84453 13.6099C7.99605 14.2845 8.23395 14.9051 8.34111 14.9051C8.3659 14.9051 8.5956 14.7717 8.85163 14.6089C9.10765 14.446 9.60485 14.2095 9.95656 14.0832C10.3082 13.957 10.7343 13.7941 10.9033 13.7211C11.7046 13.3753 14.2831 13.2398 15.8419 13.4616C17.965 13.7637 21.0724 15.0595 25.0928 17.3189C29.2442 19.6519 32.5565 20.9362 33.1512 20.4434C33.672 20.0116 35.498 15.6269 35.8428 13.9799C35.896 13.7255 35.9852 13.3323 36.0407 13.1062C36.2249 12.357 36.4952 9.85728 36.4018 9.76733C36.3012 9.67061 23.344 9.5967 13.6738 9.63771ZM12.5425 15.725C11.3962 15.9826 10.6693 16.2607 9.82194 16.7658C8.96238 17.2781 8.96309 17.272 9.61233 18.6326C10.7557 21.0286 12.2737 23.1075 14.3696 25.1473C15.7971 26.5368 16.6808 27.2219 19.0967 28.8128C20.6813 29.8564 20.9208 30.2817 20.3649 31.0649C20.1671 31.3437 19.9289 31.5134 17.8808 32.8346C15.19 34.5704 12.6203 37.1353 10.9509 39.7516C10.4601 40.5207 9.34339 42.6766 8.99209 43.533C8.5873 44.5201 8.06818 46.1914 7.83244 47.2665C7.63788 48.1542 7.26629 50.7135 7.26629 51.1665C7.26629 51.2431 26.4685 51.1045 26.6711 51.0265C26.7564 50.9936 27.0634 50.52 27.3531 49.9739C28.1118 48.5442 28.8879 47.4965 30.113 46.248C31.256 45.0832 32.4616 44.1332 33.5793 43.5164C33.9549 43.3091 34.3182 43.0966 34.3865 43.0442C34.6435 42.847 32.9803 39.8789 31.6277 38.1209C30.6176 36.8081 28.6356 34.8311 27.398 33.9018C26.253 33.0421 24.0249 31.5576 23.8796 31.5576C23.7349 31.5576 23.2897 30.9241 23.212 30.6076C23.0621 29.9976 23.3394 29.6729 24.857 28.6804C26.719 27.4627 26.5732 27.5622 27.2683 27.0347C28.9409 25.7654 31.5262 23.1813 31.4149 22.8901C31.3858 22.8141 30.7928 22.5538 30.0972 22.3116C28.4958 21.7543 26.9954 21.0357 23.9659 19.375C21.4463 17.9939 18.6616 16.6089 18.1626 16.4886C18.0017 16.4498 17.7527 16.359 17.6093 16.2866C17.229 16.0948 15.0236 15.6557 14.1305 15.594C13.595 15.557 13.1138 15.5967 12.5425 15.725ZM39.3848 43.9064C38.5519 44.0112 36.6915 44.5758 35.6807 45.0303C33.9574 45.8053 31.8111 47.5673 30.5753 49.2213C29.6274 50.4902 28.7522 52.3296 28.3549 53.8884C28.0702 55.0052 28.0286 55.3536 27.9901 56.9476C27.9508 58.5717 27.9712 58.8621 28.2 59.937C29.1661 64.4751 32.3165 68.1534 36.6698 69.826C39.6239 70.961 43.0784 70.9608 45.9929 69.8255C47.9867 69.0488 49.4659 68.0543 50.9631 66.4843C52.4589 64.9154 53.5616 63.1262 54.0213 61.5219C54.0862 61.2958 54.1698 61.0633 54.2071 61.0055C54.2445 60.9476 54.3757 60.3694 54.4989 59.7206C54.6915 58.7057 54.7151 58.3113 54.6682 56.8962C54.5751 54.0817 53.8885 51.9087 52.365 49.6056C51.303 48.0001 48.9665 45.986 47.1659 45.1239C44.8542 44.0169 42.0237 43.574 39.3848 43.9064ZM40.7003 48.0948C40.4276 48.3141 38.6024 50.1117 36.6442 52.0897L33.084 55.6859V56.1609C33.084 56.5404 33.1442 56.7036 33.3827 56.9716L33.6814 57.3074L35.1101 57.3406L36.5388 57.3738L36.5884 62.3775C36.6321 66.7813 36.6586 67.4208 36.8087 67.7121C37.1177 68.3116 37.0761 68.3063 41.4519 68.3063C45.3648 68.3063 45.4727 68.3009 45.7548 68.091C46.2746 67.7045 46.2883 67.5561 46.2945 62.2672L46.3003 57.3588H47.6373C49.1281 57.3588 49.4654 57.26 49.7307 56.7454C50.0429 56.1395 49.95 55.8629 49.1471 55.0092C47.6483 53.4158 44.1647 49.9072 43.0001 48.8182C41.5959 47.5052 41.4793 47.4685 40.7003 48.0948ZM39.2377 52.7779C37.1966 54.8277 37.153 54.8801 37.4457 54.9389C38.1457 55.0796 38.5599 55.2695 38.7608 55.5416C38.9703 55.8253 38.9756 55.9435 39.0051 60.9125L39.0352 65.9934H41.4235H43.8116L43.864 61.0785C43.9111 56.6413 43.934 56.1259 44.099 55.7769C44.3209 55.3077 44.6208 55.097 45.1719 55.0228C45.4009 54.992 45.6091 54.9326 45.6349 54.8908C45.6996 54.7857 41.6343 50.6772 41.4657 50.6772C41.3908 50.6772 40.3882 51.6225 39.2377 52.7779ZM3.11701 53.6525C3.00431 53.6989 2.8199 53.8395 2.70721 53.9651C2.52187 54.1718 2.49892 54.3668 2.46716 56.0083L2.43202 57.823L2.84541 58.1562L3.2587 58.4895H14.4318H25.6051L25.6074 57.3331C25.6093 56.2791 25.8011 54.4413 25.9652 53.9037C26.0168 53.7343 25.9789 53.6724 25.7927 53.6223C25.4336 53.5259 3.35378 53.5553 3.11701 53.6525Z" fill="#88B958"/>
</svg>
