<svg width="70" height="67" viewBox="0 0 70 67" fill="none" xmlns="http://www.w3.org/2000/svg">
<path fill-rule="evenodd" clip-rule="evenodd" d="M21.9288 0.303272C21.6108 0.590415 21.593 0.652108 21.5036 1.7812C21.315 4.16439 21.0073 5.53474 20.3552 6.89545C19.6507 8.36569 18.4893 9.75465 17.2786 10.5753C16.6729 10.9857 14.8652 11.9091 14.6673 11.9091C14.6172 11.9091 14.2809 12.0045 13.92 12.1211C13.5589 12.2376 12.8902 12.363 12.4337 12.3996C10.5028 12.5541 10.0027 12.8131 10.0027 13.6581C10.0027 14.0136 10.0669 14.1539 10.3436 14.4038C10.7047 14.7299 10.7827 14.7494 12.4605 14.9309C13.0494 14.9946 13.9036 15.1647 14.3587 15.3088C15.1189 15.5496 16.9398 16.4051 17.2531 16.6686C17.326 16.7299 17.6518 16.996 17.977 17.26C18.9332 18.0359 19.9122 19.3657 20.4521 20.6219C21.051 22.0151 21.3352 23.2936 21.4628 25.1678C21.4994 25.7035 21.573 26.3191 21.6266 26.5359C21.7469 27.0229 22.1488 27.3079 22.7152 27.3079C23.0494 27.3079 23.188 27.2435 23.3888 26.9954C23.5278 26.8236 23.6444 26.5369 23.6479 26.3583C23.7047 23.4695 24.3017 21.1691 25.4645 19.3577C25.97 18.5704 27.153 17.3136 27.7111 16.9711C27.9209 16.8423 28.1167 16.7023 28.1464 16.6598C28.1761 16.6174 28.6338 16.364 29.1636 16.0969C30.4154 15.4655 31.7734 15.0839 33.2783 14.9403C33.9443 14.8769 34.5773 14.7773 34.6849 14.7191C35.0092 14.5437 35.2126 14.1578 35.2126 13.7179C35.2126 12.8388 34.8311 12.5972 33.2052 12.4462C31.3702 12.2758 29.8085 11.7389 28.2811 10.7531C25.5028 8.96 24.0271 6.08922 23.7708 1.97829C23.6869 0.632085 23.6831 0.617366 23.3448 0.311823C22.8878 -0.10098 22.3797 -0.104011 21.9288 0.303272ZM22.2936 7.87745C21.9802 8.63963 20.964 10.0904 20.1379 10.9547C19.2943 11.8376 17.4221 13.198 16.7354 13.427C16.5336 13.4943 16.3685 13.5886 16.3685 13.6366C16.3685 13.6845 16.6215 13.8495 16.9306 14.0031C19.1646 15.1134 21.1195 17.0435 22.1626 19.1689C22.5023 19.861 22.6284 19.9468 22.7474 19.5667C22.8775 19.1507 23.7642 17.7285 24.2808 17.1071C25.3385 15.8347 26.5811 14.8164 27.9138 14.1298C28.336 13.9123 28.6814 13.6979 28.6814 13.6532C28.6814 13.6086 28.3322 13.3879 27.9052 13.1629C25.725 12.0137 23.5882 9.82262 22.8301 7.95917C22.7211 7.6914 22.5935 7.47222 22.5463 7.47201C22.4991 7.47179 22.3855 7.65427 22.2936 7.87745ZM47.9917 15.2832C47.5878 15.4809 47.4386 16.0712 47.3674 17.7538C47.2124 21.4203 46.5474 24.2753 45.2155 26.992C44.3886 28.6788 43.7809 29.6112 42.6997 30.8514C41.6781 32.0235 40.4057 33.093 38.8117 34.1199C38.3886 34.3924 37.024 35.1195 36.7116 35.2389C36.5055 35.3176 35.9996 35.5232 35.5874 35.6958C33.9504 36.3813 31.1891 36.9891 29.0997 37.124C27.8869 37.2022 27.7947 37.2245 27.4977 37.5122C27.2377 37.7639 27.1825 37.9052 27.1825 38.318C27.1825 39.1271 27.7299 39.5066 28.8988 39.508C29.8202 39.5092 31.9592 39.8316 33.1289 40.1455C35.072 40.6672 35.5527 40.8153 35.7895 40.9651C35.9138 41.0437 36.1857 41.1624 36.3934 41.2288C36.6012 41.2953 37.0348 41.4939 37.357 41.6702C37.6793 41.8465 38.0874 42.058 38.2641 42.1402C39.1288 42.5423 41.0192 43.9704 42.0144 44.9733C42.9754 45.9418 44.3135 47.5864 44.3135 47.799C44.3135 47.8434 44.3802 47.9566 44.4618 48.0506C44.663 48.2826 45.4833 49.9008 45.8378 50.765C46.2406 51.747 46.6321 53.0081 46.7846 53.8153C46.8556 54.1913 46.9535 54.578 47.002 54.6746C47.1164 54.9025 47.5253 58.8023 47.5262 59.6733C47.5273 60.9653 47.8647 61.5017 48.6763 61.5017C48.953 61.5017 49.139 61.4143 49.3793 61.1714L49.7061 60.8411L49.7822 59.0771C49.9708 54.7054 50.9797 51.0338 52.8086 48.063C53.7292 46.5676 55.7118 44.3566 56.7914 43.6216C56.9226 43.5323 57.3848 43.2166 57.8185 42.92C59.111 42.0363 61.1567 41.0269 62.4617 40.6288C64.6182 39.9711 65.6213 39.7663 67.6472 39.5705C69.3557 39.4053 69.8013 39.2451 69.9603 38.7388C70.0831 38.3478 69.9114 37.8034 69.575 37.5172C69.2185 37.2139 68.9969 37.165 67.601 37.0812C67.071 37.0494 66.0307 36.905 65.2892 36.7604C58.2345 35.3848 53.2402 31.2783 51.0584 25.0595C50.2432 22.7357 49.8101 20.3931 49.7075 17.7525C49.6333 15.8431 49.5425 15.498 49.0553 15.2736C48.7422 15.1294 48.2979 15.1334 47.9917 15.2832ZM48.3821 25.0619C48.3821 25.4945 46.878 28.9135 46.4986 29.3433C46.4157 29.4372 46.3478 29.5496 46.3478 29.593C46.3478 29.7379 45.3619 31.1104 44.6174 32.0019C43.9133 32.8452 42.9501 33.7664 41.7974 34.6988C40.4056 35.8247 38.0989 37.0681 35.669 38.0024C35.0414 38.2438 35.0156 38.267 35.243 38.3875C35.3762 38.458 35.7954 38.6214 36.1746 38.7505C37.1736 39.0907 40.004 40.5262 40.4277 40.9076C40.4988 40.9716 40.5952 41.0244 40.6419 41.025C40.6886 41.0256 40.9267 41.1839 41.1711 41.3768C41.4157 41.5697 41.7511 41.8249 41.9166 41.9439C42.7521 42.5449 44.442 44.2567 45.2106 45.281C46.5402 47.0527 48.0287 49.9213 48.3229 51.2791C48.3951 51.6122 48.7033 51.787 48.7033 51.4948C48.7033 51.059 50.0423 48.0861 50.7879 46.8663C52.0473 44.8063 54.1584 42.5715 56.0238 41.3235C56.2669 41.161 56.514 40.9895 56.5729 40.9426C57.1499 40.4826 60.8661 38.6428 61.2183 38.6428C61.2897 38.6428 61.4989 38.564 61.6832 38.4676L62.0183 38.2925L61.7582 38.1467C61.6151 38.0666 61.3294 37.9457 61.1233 37.8782C60.5856 37.7018 58.3158 36.6817 58.1254 36.5308C58.037 36.4608 57.6757 36.2401 57.3223 36.0406C56.4482 35.5468 55.4075 34.8243 54.7 34.2203C53.6259 33.3031 52.1173 31.6923 51.5974 30.9073C51.5073 30.7712 51.2256 30.3495 50.9716 29.9703C50.2287 28.8617 48.7033 25.5583 48.7033 25.0583C48.7033 24.9697 48.631 24.8972 48.5427 24.8972C48.4544 24.8972 48.3821 24.9713 48.3821 25.0619ZM12.2464 39.7202C12.1286 39.7694 11.923 39.9286 11.7895 40.074C11.5733 40.3094 11.5364 40.503 11.4519 41.8447C11.2989 44.2736 10.616 46.4376 9.49694 48.0401C7.95846 50.2431 5.17971 51.7719 2.15683 52.0784C1.52288 52.1427 0.828963 52.2679 0.614932 52.3568C0.0420069 52.5947 -0.135085 53.0845 0.102608 53.7736C0.253789 54.2122 0.754979 54.3927 2.25769 54.55C3.50001 54.68 4.44254 54.9295 5.5962 55.4338C9.12294 56.9756 11.1654 60.2083 11.4468 64.6938C11.496 65.4791 11.5873 66.2181 11.6498 66.336C11.854 66.7217 12.3087 67 12.7348 67C13.3833 67 13.5274 66.7173 13.6831 65.1397C13.8581 63.3671 14.0819 61.9284 14.2075 61.7706C14.2635 61.7001 14.3456 61.472 14.3898 61.2637C14.6499 60.0361 15.9007 58.1739 17.336 56.8774C18.0059 56.2721 19.644 55.4342 20.9006 55.0539C22.0679 54.7007 22.271 54.6628 23.5307 54.5642C24.5636 54.4833 24.6248 54.4643 24.9453 54.1254C25.2476 53.8055 25.2754 53.7202 25.2302 53.2456C25.1938 52.8625 25.1106 52.6613 24.9233 52.5037C24.6418 52.2667 24.525 52.241 22.9532 52.0685C21.6255 51.9229 19.4477 51.2359 18.9297 50.7993C18.8368 50.7208 18.7112 50.6567 18.6506 50.6567C18.4529 50.6567 17.0766 49.5637 16.5572 48.9942C14.8184 47.0878 13.8088 44.3494 13.8009 41.5182C13.7983 40.5641 13.5127 39.9046 13.028 39.7338C12.6453 39.599 12.5406 39.5971 12.2464 39.7202ZM12.1572 47.8182C11.3358 49.4966 10.1806 50.8642 8.55248 52.0856C8.12485 52.4065 7.55374 52.7424 6.7988 53.1172L6.27641 53.3765L7.32986 53.9765C9.51642 55.2217 11.1806 56.9466 12.1935 59.0178C12.4896 59.6233 12.6677 59.6664 12.8291 59.1717C12.9343 58.8496 13.7951 57.4391 14.2233 56.8872C15.0648 55.8025 16.8292 54.3856 18.1619 53.7243C18.471 53.5709 18.7234 53.4146 18.7226 53.377C18.7219 53.3393 18.4341 53.1691 18.0831 52.9987C16.0196 51.9971 14.0168 50.0389 13.0417 48.0694C12.803 47.5876 12.5746 47.1945 12.5342 47.1959C12.4937 47.1974 12.324 47.4774 12.1572 47.8182Z" fill="#88B958"/>
</svg>
