<svg width="28" height="35" viewBox="0 0 28 35" fill="none" xmlns="http://www.w3.org/2000/svg">
<path fill-rule="evenodd" clip-rule="evenodd" d="M3.21707 0.119855C2.44864 0.286318 1.86432 0.617495 1.24364 1.23838C0.613061 1.86917 0.290447 2.4472 0.121417 3.24891C-0.0404724 4.01687 -0.0404724 30.9779 0.121417 31.7458C0.290447 32.5476 0.613061 33.1256 1.24364 33.7564C1.87423 34.3872 2.45206 34.7099 3.25349 34.879C4.01857 35.0403 23.9814 35.0403 24.7465 34.879C25.5479 34.7099 26.1258 34.3872 26.7564 33.7564C27.3869 33.1256 27.7096 32.5476 27.8786 31.7458C28.0405 30.9779 28.0405 4.01687 27.8786 3.24891C27.7096 2.4472 27.3869 1.86917 26.7564 1.23838C26.1258 0.607583 25.5479 0.28486 24.7465 0.115774C24.0027 -0.0411417 3.94266 -0.0373519 3.21707 0.119855ZM3.18064 1.3203C2.34052 1.58996 1.58629 2.35333 1.32153 3.2019C1.1796 3.65697 1.17705 3.90776 1.17705 17.4974C1.17705 31.087 1.1796 31.3378 1.32153 31.7929C1.59037 32.6543 2.34532 33.4095 3.2065 33.6785C3.65909 33.8197 3.90244 33.823 14 33.823C24.0976 33.823 24.3409 33.8197 24.7935 33.6785C25.6547 33.4095 26.4096 32.6543 26.6785 31.7929C26.8204 31.3378 26.8229 31.087 26.8229 17.4974C26.8229 3.90776 26.8204 3.65697 26.6785 3.2019C26.4096 2.34043 25.6547 1.58522 24.7935 1.31629C24.3406 1.1749 24.1035 1.17184 13.9741 1.17585C3.95774 1.17978 3.60343 1.18459 3.18064 1.3203ZM3.65378 2.40544C3.15237 2.55944 2.77001 2.87939 2.51501 3.35823C2.38926 3.59444 2.3792 3.82125 2.3792 6.41928C2.3792 9.15528 2.38314 9.23253 2.53643 9.51678C2.72047 9.85786 3.00585 10.1382 3.36278 10.3284C3.60817 10.4591 4.00976 10.4642 14 10.4642H24.3822L24.6736 10.307C25.0146 10.1229 25.2949 9.83738 25.485 9.48033C25.6107 9.24412 25.6208 9.01731 25.6208 6.41928C25.6208 3.82125 25.6107 3.59444 25.485 3.35823C25.2949 3.00118 25.0146 2.7157 24.6736 2.5316L24.3822 2.37432L14.1093 2.36186C8.45917 2.35501 3.75417 2.37461 3.65378 2.40544ZM3.68736 3.68292L3.5085 3.86177V6.41928V8.97679L3.68736 9.15564L3.86615 9.33457H14H24.1338L24.3126 9.15564L24.4915 8.97679V6.41928V3.86177L24.3126 3.68292L24.1338 3.50399H14H3.86615L3.68736 3.68292ZM21.7225 4.1509C21.2082 4.31933 20.8375 4.63068 20.5837 5.1074C20.4692 5.32255 20.4479 5.52801 20.4479 6.41928C20.4479 7.56397 20.495 7.74406 20.9116 8.19338C21.5638 8.89669 22.7563 8.89669 23.4085 8.19338C23.8251 7.74406 23.8722 7.56397 23.8722 6.41928C23.8722 5.27459 23.8251 5.0945 23.4085 4.64518C23.0205 4.22669 22.2134 3.99012 21.7225 4.1509ZM21.7561 5.43209C21.5877 5.60052 21.5772 5.65825 21.5772 6.41928C21.5772 7.18032 21.5877 7.23804 21.7561 7.40647C21.8688 7.51929 22.0181 7.5854 22.1601 7.5854C22.302 7.5854 22.4513 7.51929 22.5641 7.40647C22.7324 7.23804 22.7429 7.18032 22.7429 6.41928C22.7429 5.65825 22.7324 5.60052 22.5641 5.43209C22.4513 5.31927 22.302 5.25317 22.1601 5.25317C22.0181 5.25317 21.8688 5.31927 21.7561 5.43209ZM3.65378 12.8989C3.1472 13.0588 2.7695 13.3753 2.51501 13.8533C2.39407 14.0804 2.3792 14.288 2.3792 15.7482C2.3792 17.2084 2.39407 17.416 2.51501 17.6431C2.7051 18.0002 2.98538 18.2857 3.32635 18.4698C3.60671 18.6211 3.70201 18.6271 5.83994 18.6271C7.86837 18.6271 8.08432 18.6152 8.3171 18.4912C8.67403 18.301 8.95941 18.0207 9.14345 17.6796C9.29121 17.4055 9.30068 17.2895 9.30068 15.7482C9.30068 14.2069 9.29121 14.0909 9.14345 13.8168C8.95941 13.4757 8.67403 13.1954 8.3171 13.0052C8.08716 12.8827 7.85467 12.868 5.94923 12.8554C4.78715 12.8476 3.75417 12.8673 3.65378 12.8989ZM11.8138 12.8989C11.3073 13.0588 10.9296 13.3753 10.6751 13.8533C10.5541 14.0804 10.5393 14.288 10.5393 15.7482C10.5393 17.2084 10.5541 17.416 10.6751 17.6431C10.8652 18.0002 11.1454 18.2857 11.4864 18.4698C11.7668 18.6211 11.8621 18.6271 14 18.6271C16.0284 18.6271 16.2444 18.6152 16.4772 18.4912C16.8341 18.301 17.1195 18.0207 17.3035 17.6796C17.4513 17.4055 17.4607 17.2895 17.4607 15.7482C17.4607 14.2069 17.4513 14.0909 17.3035 13.8168C17.1195 13.4757 16.8341 13.1954 16.4772 13.0052C16.2472 12.8827 16.0147 12.868 14.1093 12.8554C12.9472 12.8476 11.9142 12.8673 11.8138 12.8989ZM19.9739 12.8989C19.4673 13.0588 19.0896 13.3753 18.8351 13.8533C18.7142 14.0804 18.6993 14.288 18.6993 15.7482C18.6993 17.2084 18.7142 17.416 18.8351 17.6431C19.0252 18.0002 19.3055 18.2857 19.6465 18.4698C19.9268 18.6211 20.0221 18.6271 22.1601 18.6271C24.1885 18.6271 24.4044 18.6152 24.6372 18.4912C24.9941 18.301 25.2795 18.0207 25.4636 17.6796C25.6113 17.4055 25.6208 17.2895 25.6208 15.7482C25.6208 14.2069 25.6113 14.0909 25.4636 13.8168C25.2795 13.4757 24.9941 13.1954 24.6372 13.0052C24.4073 12.8827 24.1748 12.868 22.2693 12.8554C21.1073 12.8476 20.0743 12.8673 19.9739 12.8989ZM3.68736 14.178C3.50995 14.3554 3.5085 14.3681 3.5085 15.7482C3.5085 17.1283 3.50995 17.1411 3.68736 17.3184L3.86615 17.4974H5.83994H7.81373L7.99252 17.3184C8.16993 17.1411 8.17139 17.1283 8.17139 15.7482C8.17139 14.3681 8.16993 14.3554 7.99252 14.178L7.81373 13.999H5.83994H3.86615L3.68736 14.178ZM11.8474 14.178C11.67 14.3554 11.6686 14.3681 11.6686 15.7482C11.6686 17.1283 11.67 17.1411 11.8474 17.3184L12.0262 17.4974H14H15.9738L16.1526 17.3184C16.33 17.1411 16.3314 17.1283 16.3314 15.7482C16.3314 14.3681 16.33 14.3554 16.1526 14.178L15.9738 13.999H14H12.0262L11.8474 14.178ZM20.0075 14.178C19.8301 14.3554 19.8286 14.3681 19.8286 15.7482C19.8286 17.1283 19.8301 17.1411 20.0075 17.3184L20.1863 17.4974H22.1601H24.1338L24.3126 17.3184C24.49 17.1411 24.4915 17.1283 24.4915 15.7482C24.4915 14.3681 24.49 14.3554 24.3126 14.178L24.1338 13.999H22.1601H20.1863L20.0075 14.178ZM3.65378 19.8956C3.1472 20.0555 2.7695 20.372 2.51501 20.85C2.39407 21.0771 2.3792 21.2847 2.3792 22.7449C2.3792 24.2051 2.39407 24.4127 2.51501 24.6398C2.7051 24.9969 2.98538 25.2824 3.32635 25.4665C3.60671 25.6178 3.70201 25.6237 5.83994 25.6237C7.86837 25.6237 8.08432 25.6119 8.3171 25.4879C8.67403 25.2977 8.95941 25.0174 9.14345 24.6763C9.29121 24.4022 9.30068 24.2862 9.30068 22.7449C9.30068 21.2036 9.29121 21.0876 9.14345 20.8135C8.95941 20.4724 8.67403 20.1921 8.3171 20.0019C8.08716 19.8794 7.85467 19.8647 5.94923 19.8521C4.78715 19.8443 3.75417 19.864 3.65378 19.8956ZM11.8138 19.8956C11.3073 20.0555 10.9296 20.372 10.6751 20.85C10.5541 21.0771 10.5393 21.2847 10.5393 22.7449C10.5393 24.2051 10.5541 24.4127 10.6751 24.6398C10.8652 24.9969 11.1454 25.2824 11.4864 25.4665C11.7668 25.6178 11.8621 25.6237 14 25.6237C16.0284 25.6237 16.2444 25.6119 16.4772 25.4879C16.8341 25.2977 17.1195 25.0174 17.3035 24.6763C17.4513 24.4022 17.4607 24.2862 17.4607 22.7449C17.4607 21.2036 17.4513 21.0876 17.3035 20.8135C17.1195 20.4724 16.8341 20.1921 16.4772 20.0019C16.2472 19.8794 16.0147 19.8647 14.1093 19.8521C12.9472 19.8443 11.9142 19.864 11.8138 19.8956ZM19.9739 19.8956C19.4673 20.0555 19.0896 20.372 18.8351 20.85C18.7063 21.0919 18.6993 21.3697 18.6993 26.2432C18.6993 31.3685 18.6997 31.3822 18.8565 31.673C19.0406 32.0141 19.326 32.2944 19.6829 32.4846C19.9157 32.6086 20.1316 32.6204 22.1601 32.6204C24.1885 32.6204 24.4044 32.6086 24.6372 32.4846C24.9941 32.2944 25.2795 32.0141 25.4636 31.673C25.6204 31.3822 25.6208 31.3685 25.6208 26.2432C25.6208 21.1179 25.6204 21.1043 25.4636 20.8135C25.2795 20.4724 24.9941 20.1921 24.6372 20.0019C24.4073 19.8794 24.1748 19.8647 22.2693 19.8521C21.1073 19.8443 20.0743 19.864 19.9739 19.8956ZM3.68736 21.1746C3.50995 21.352 3.5085 21.3648 3.5085 22.7449C3.5085 24.125 3.50995 24.1377 3.68736 24.3151L3.86615 24.4941H5.83994H7.81373L7.99252 24.3151C8.16993 24.1377 8.17139 24.125 8.17139 22.7449C8.17139 21.3648 8.16993 21.352 7.99252 21.1746L7.81373 20.9957H5.83994H3.86615L3.68736 21.1746ZM11.8474 21.1746C11.67 21.352 11.6686 21.3648 11.6686 22.7449C11.6686 24.125 11.67 24.1377 11.8474 24.3151L12.0262 24.4941H14H15.9738L16.1526 24.3151C16.33 24.1377 16.3314 24.125 16.3314 22.7449C16.3314 21.3648 16.33 21.352 16.1526 21.1746L15.9738 20.9957H14H12.0262L11.8474 21.1746ZM20.0075 21.1746L19.8286 21.3535V26.2432V31.133L20.0075 31.3118L20.1863 31.4908H22.1601H24.1338L24.3126 31.3118L24.4915 31.133V26.2432V21.3535L24.3126 21.1746L24.1338 20.9957H22.1601H20.1863L20.0075 21.1746ZM3.65378 26.8923C3.1472 27.0522 2.7695 27.3687 2.51501 27.8466C2.39407 28.0738 2.3792 28.2814 2.3792 29.7416C2.3792 31.2018 2.39407 31.4093 2.51501 31.6365C2.7051 31.9936 2.98538 32.2791 3.32635 32.4632C3.60671 32.6145 3.70201 32.6204 5.83994 32.6204C7.86837 32.6204 8.08432 32.6086 8.3171 32.4846C8.67403 32.2944 8.95941 32.0141 9.14345 31.673C9.29121 31.3989 9.30068 31.2829 9.30068 29.7416C9.30068 28.2003 9.29121 28.0842 9.14345 27.8102C8.95941 27.4691 8.67403 27.1887 8.3171 26.9986C8.08716 26.8761 7.85467 26.8614 5.94923 26.8487C4.78715 26.841 3.75417 26.8607 3.65378 26.8923ZM11.8138 26.8923C11.3073 27.0522 10.9296 27.3687 10.6751 27.8466C10.5541 28.0738 10.5393 28.2814 10.5393 29.7416C10.5393 31.2018 10.5541 31.4093 10.6751 31.6365C10.8652 31.9936 11.1454 32.2791 11.4864 32.4632C11.7668 32.6145 11.8621 32.6204 14 32.6204C16.0284 32.6204 16.2444 32.6086 16.4772 32.4846C16.8341 32.2944 17.1195 32.0141 17.3035 31.673C17.4513 31.3989 17.4607 31.2829 17.4607 29.7416C17.4607 28.2003 17.4513 28.0842 17.3035 27.8102C17.1195 27.4691 16.8341 27.1887 16.4772 26.9986C16.2472 26.8761 16.0147 26.8614 14.1093 26.8487C12.9472 26.841 11.9142 26.8607 11.8138 26.8923ZM3.68736 28.1713C3.50995 28.3487 3.5085 28.3615 3.5085 29.7416C3.5085 31.1217 3.50995 31.1344 3.68736 31.3118L3.86615 31.4908H5.83994H7.81373L7.99252 31.3118C8.16993 31.1344 8.17139 31.1217 8.17139 29.7416C8.17139 28.3615 8.16993 28.3487 7.99252 28.1713L7.81373 27.9924H5.83994H3.86615L3.68736 28.1713ZM11.8474 28.1713C11.67 28.3487 11.6686 28.3615 11.6686 29.7416C11.6686 31.1217 11.67 31.1344 11.8474 31.3118L12.0262 31.4908H14H15.9738L16.1526 31.3118C16.33 31.1344 16.3314 31.1217 16.3314 29.7416C16.3314 28.3615 16.33 28.3487 16.1526 28.1713L15.9738 27.9924H14H12.0262L11.8474 28.1713Z" fill="white"/>
</svg>
