<svg width="33" height="28" viewBox="0 0 33 28" fill="none" xmlns="http://www.w3.org/2000/svg">
<path d="M4.84356 5.91512L4.79168 6.33422L4.3698 6.35319L3.31528 6.40059C2.8348 6.4222 2.59763 6.44014 2.42785 6.47409C2.2826 6.50313 2.18048 6.54489 1.97622 6.65304L1.97614 6.65308C1.47468 6.91848 1.0055 7.42353 0.728928 8.02589C0.728918 8.02591 0.728909 8.02593 0.728899 8.02595L0.534622 8.44925L0.506986 16.6851C0.497026 19.6597 0.497519 21.7814 0.509736 23.2063C0.515847 23.919 0.524871 24.4544 0.536858 24.8339C0.542857 25.0238 0.549506 25.1715 0.556653 25.2813C0.560224 25.3361 0.563774 25.3792 0.567152 25.4119C0.56883 25.4282 0.570352 25.4408 0.571644 25.4502L0.57322 25.4608C0.573631 25.4634 0.573846 25.4645 0.573819 25.4643C0.770827 26.4728 1.58179 27.2445 2.69389 27.4208C2.69255 27.4206 2.69324 27.4207 2.69645 27.421C2.70428 27.4217 2.72706 27.4236 2.77194 27.4261C2.82865 27.4292 2.9054 27.4324 3.00225 27.4355C3.19556 27.4418 3.4602 27.4476 3.78732 27.453C4.44108 27.4638 5.33712 27.4727 6.39591 27.4798C8.5131 27.4939 11.2763 27.5006 14.0432 27.5C16.8101 27.4993 19.5796 27.4913 21.7095 27.4762C22.7746 27.4686 23.6785 27.4593 24.3418 27.4482C24.6737 27.4426 24.9436 27.4366 25.1426 27.4303C25.2422 27.4271 25.3222 27.4239 25.3823 27.4207C25.4123 27.4191 25.4359 27.4176 25.4535 27.4163C25.4718 27.4148 25.4784 27.414 25.4773 27.4141C25.8662 27.3597 26.1481 27.2848 26.3896 27.1761C26.6291 27.0683 26.8515 26.9171 27.109 26.6843C27.4086 26.4133 27.5953 26.1752 27.7162 25.9282C27.8366 25.6821 27.9065 25.397 27.9304 25.0114C27.9468 24.7461 27.9676 24.5245 28.0106 24.3584C28.0525 24.1963 28.1596 23.9201 28.4745 23.8236C29.4305 23.5306 29.8988 23.198 30.2009 22.7353C30.3215 22.5505 30.3835 22.4544 30.4377 22.3263C30.4918 22.1981 30.5451 22.0189 30.6069 21.6831C30.7322 21.0014 30.8727 19.7932 31.1616 17.3093L31.1637 17.2914C31.6308 13.2744 32.2793 7.75978 32.4094 6.69958C32.4941 6.00893 32.5182 5.57388 32.4868 5.23608C32.4572 4.91703 32.3764 4.66987 32.2171 4.36163L32.2171 4.36159C31.8322 3.61685 31.0861 3.09124 30.1035 2.93479L30.1035 2.93478C29.797 2.88595 26.9703 2.56544 23.8039 2.22155L23.8579 1.72471L23.8039 2.22155C20.6481 1.87872 16.6199 1.43875 14.8523 1.24368C12.1531 0.945802 9.42949 0.651417 8.01622 0.504947L8.01605 0.50493C7.89513 0.492357 7.6022 0.503672 7.39398 0.536941L4.84356 5.91512ZM4.84356 5.91512L5.05627 4.19678C5.05627 4.19677 5.05627 4.19676 5.05627 4.19675C5.11905 3.68985 5.18936 3.22203 5.25682 2.8488C5.32716 2.45965 5.3875 2.21403 5.42269 2.12308M4.84356 5.91512L5.42269 2.12308M5.45721 5.65209L5.4563 5.89619L5.45441 6.39808H5.95629H15.8216C20.7028 6.39808 23.1642 6.39861 24.4696 6.42176C25.7309 6.44414 25.8534 6.4891 26.0055 6.54494C26.0121 6.54736 26.0188 6.54981 26.0256 6.55227C26.8744 6.85938 27.5237 7.51663 27.8035 8.33652L27.8035 8.33654C27.8567 8.49244 27.9004 8.64897 27.9231 9.64841C27.9456 10.6395 27.9481 12.4015 27.9481 15.7264V22.7754V23.6161L28.6868 23.2147L29.0486 23.018C29.3931 22.8308 29.6475 22.5687 29.8224 22.1846C29.9858 21.8258 30.0728 21.3754 30.1322 20.8199L30.1322 20.8199C30.2325 19.8821 30.7969 15.1344 31.473 9.54147L30.9766 9.48146L31.473 9.54145C31.5858 8.60846 31.6883 7.70253 31.7628 6.99405C31.8354 6.30414 31.8858 5.76201 31.8858 5.58907C31.8858 5.21723 31.8266 4.87173 31.6776 4.56354C31.5259 4.2499 31.2956 4.00524 31.002 3.81734L31.002 3.81729C30.8892 3.74518 30.7676 3.67009 30.5646 3.60511C30.3817 3.54656 30.1428 3.49919 29.7873 3.4462C29.0728 3.33973 27.7728 3.19526 25.244 2.91543C23.4758 2.71976 21.7022 2.52042 21.3011 2.47229C20.8939 2.42344 19.2798 2.24355 17.7155 2.07259C16.1493 1.90143 14.5413 1.72192 14.1408 1.6736C13.7335 1.62447 12.3054 1.46464 10.968 1.31842C9.6273 1.17184 8.39318 1.03472 8.22113 1.01337C8.11669 1.00041 8.00881 0.992654 7.91568 0.990791C7.8694 0.989865 7.82104 0.99027 7.77537 0.993207C7.74413 0.995215 7.66467 1.00064 7.58356 1.02859C7.58404 1.02842 7.58429 1.02834 7.58429 1.02833C7.58428 1.0283 7.57698 1.03063 7.55928 1.03548C7.54078 1.04055 7.51695 1.04675 7.48909 1.05366C7.43337 1.06749 7.36722 1.08279 7.30538 1.09593L5.45721 5.65209ZM5.45721 5.65209C5.45721 5.65209 5.45721 5.65209 5.45721 5.65208C5.45852 5.30248 5.55762 4.5012 5.66433 3.7923C5.7189 3.42985 5.7778 3.07629 5.8316 2.79601C5.8584 2.65641 5.88482 2.53034 5.90965 2.42855C5.92872 2.35035 5.96091 2.22266 6.01164 2.12777L5.45721 5.65209ZM2.47903 7.00133C2.02546 7.16788 1.60277 7.5594 1.36256 7.99369L1.36251 7.99378L1.61538 20.0986L1.63216 20.5983C1.63217 20.5983 1.63218 20.5983 1.63219 20.5983C1.72625 20.5951 1.79899 20.5645 1.8067 20.5612L1.8073 20.561C1.82954 20.5521 1.84775 20.5431 1.85823 20.5377C1.88029 20.5265 1.90178 20.5142 1.91888 20.5041C1.95467 20.4829 1.99909 20.455 2.04829 20.4233C2.148 20.359 2.28423 20.2682 2.44585 20.1586C2.76994 19.9388 3.20524 19.637 3.67407 19.3062L3.67408 19.3062C5.88304 17.7475 6.94415 16.9993 7.61619 16.6308C7.93972 16.4534 8.14532 16.3803 8.32608 16.3445C8.5173 16.3066 8.70562 16.3042 9.03497 16.302C9.35388 16.2999 9.56723 16.3085 9.76326 16.3486C9.95057 16.3869 10.1427 16.4585 10.3985 16.6085C10.9394 16.9257 11.6899 17.5444 13.1604 18.7939C13.8796 19.405 14.5343 19.944 15.041 20.3444C15.294 20.5444 15.513 20.7121 15.6862 20.8379C15.8407 20.9501 16.0041 21.0631 16.1236 21.1151L16.1238 21.1152C16.3076 21.195 16.4841 21.2525 16.6836 21.2806C16.8792 21.3083 17.0752 21.3045 17.2932 21.2854L17.3108 21.2839C17.4444 21.2722 17.5908 21.2595 17.7802 21.2023C17.9666 21.146 18.1802 21.0517 18.4833 20.8972C19.0798 20.5932 20.1232 20.0032 22.1727 18.8443L22.2679 18.7905C22.2679 18.7905 22.2679 18.7905 22.2679 18.7905C23.3027 18.2054 24.8197 17.3504 25.6386 16.8906L27.1286 16.0542L27.3839 15.9108L27.3838 15.618L27.383 12.2005C27.3826 10.5154 27.3822 9.6408 27.3546 9.14196C27.3406 8.89057 27.3186 8.70345 27.2758 8.54235C27.2307 8.37215 27.1677 8.25289 27.1143 8.1517L27.1134 8.15009L27.1134 8.15006C26.9533 7.84687 26.6379 7.50007 26.3507 7.30454C26.3507 7.30452 26.3506 7.30451 26.3506 7.30449L25.9596 7.03823L25.8326 6.95173L25.6789 6.95152L14.2343 6.9358C11.0866 6.9315 8.20918 6.93325 6.10897 6.93957C5.059 6.94273 4.20257 6.94703 3.6035 6.95229C3.30422 6.95492 3.06779 6.9578 2.90313 6.96092C2.8212 6.96248 2.75461 6.96414 2.70606 6.96596C2.68233 6.96685 2.65906 6.96791 2.63899 6.9693C2.62944 6.96996 2.61564 6.97102 2.60065 6.97277C2.59331 6.97363 2.58112 6.97517 2.5666 6.97775L2.56608 6.97785C2.55703 6.97945 2.52144 6.98576 2.47903 7.00133ZM2.47903 7.00133L2.65138 7.47069M2.47903 7.00133C2.47892 7.00137 2.4788 7.00142 2.47869 7.00146L2.65138 7.47069M2.65138 7.47069C2.32575 7.59026 1.9904 7.89163 1.80009 8.23569L2.65138 7.47069ZM15.8838 10.4887C16.1045 10.419 16.4698 10.3883 16.876 10.4168C17.2798 10.4451 17.6541 10.527 17.8909 10.6335L18.096 10.1775L17.8909 10.6335C19.5204 11.3663 20.0462 13.2473 19.0575 14.6573L19.0575 14.6573C17.864 16.3593 15.242 16.2148 14.189 14.3369C14.0369 14.0657 13.9955 13.9747 13.9722 13.8672C13.9446 13.7403 13.9382 13.5706 13.9382 13.1327C13.9382 12.724 13.9462 12.5372 13.972 12.4005C13.9939 12.2849 14.0309 12.1912 14.1435 11.9764L14.1435 11.9764C14.5114 11.2744 15.1772 10.7117 15.8838 10.4887ZM15.8838 10.4887L15.7333 10.0119L15.8838 10.4887C15.8838 10.4887 15.8838 10.4887 15.8838 10.4887ZM8.16917 16.908L8.16934 16.9079C8.4559 16.8017 8.82516 16.7802 9.14304 16.7992C9.46128 16.8183 9.82523 16.8839 10.0978 17.023M8.16917 16.908L26.7444 26.3025M8.16917 16.908C8.09534 16.9354 8.00972 16.9862 7.95528 17.0189C7.88423 17.0615 7.79492 17.1177 7.69139 17.1846C7.48368 17.3187 7.20736 17.503 6.88305 17.7233C6.23381 18.1643 5.38434 18.755 4.49069 19.3894L1.24894 21.6905L1.03383 21.8432M8.16917 16.908L1.03383 21.8432M10.0978 17.023L9.8705 17.4684L10.0977 17.023C10.0977 17.023 10.0978 17.023 10.0978 17.023ZM10.0978 17.023C10.1582 17.0538 10.225 17.1023 10.2671 17.1333C10.3215 17.1733 10.3888 17.2249 10.4659 17.2853C10.6204 17.4065 10.824 17.5709 11.0613 17.7659C11.5364 18.1564 12.1538 18.6751 12.7996 19.2284C14.2551 20.4753 15.0214 21.106 15.5886 21.4359C15.8586 21.593 16.0696 21.6729 16.2779 21.7172C16.4933 21.763 16.7271 21.7758 17.0597 21.7758C17.6853 21.7758 17.9564 21.7305 18.1663 21.6478L18.1664 21.6477C18.1661 21.6478 18.1669 21.6475 18.1693 21.6465C18.172 21.6453 18.1769 21.6431 18.1843 21.6397C18.1885 21.6378 18.1931 21.6357 18.1982 21.6333C18.2085 21.6285 18.2206 21.6227 18.2347 21.6159C18.2768 21.5954 18.3319 21.5677 18.4 21.5328C18.5359 21.4629 18.7171 21.3675 18.9377 21.2494C19.3788 21.0134 19.9715 20.6904 20.6636 20.3093C22.0476 19.5472 23.8244 18.555 25.5699 17.5662L25.57 17.5662C25.8451 17.4103 26.1005 17.2682 26.2906 17.1645C26.3852 17.1128 26.4658 17.0696 26.5253 17.0387C26.5545 17.0235 26.5823 17.0094 26.6057 16.9982C26.6167 16.993 26.6325 16.9856 26.6497 16.9785C26.6577 16.9752 26.673 16.9691 26.692 16.9629C26.7015 16.9598 26.7175 16.955 26.7375 16.9504C26.7526 16.947 26.7947 16.9379 26.8491 16.9379C27.0823 16.9379 27.2117 17.0888 27.2462 17.1337C27.2891 17.1895 27.3097 17.2413 27.3169 17.2599C27.3333 17.3026 27.3402 17.3386 27.3421 17.3486L27.3421 17.3488C27.3474 17.376 27.3498 17.4001 27.3508 17.4105C27.3532 17.4363 27.3549 17.4659 27.3563 17.4939C27.3591 17.5526 27.3616 17.6346 27.3639 17.7349C27.3685 17.9368 27.3727 18.2266 27.3762 18.5816C27.3831 19.2924 27.3874 20.2717 27.3874 21.3481L27.3874 21.5039C27.3875 23.4793 27.3875 24.5177 27.3269 25.104C27.2952 25.41 27.2425 25.6558 27.1274 25.8651C27.0189 26.0625 26.8717 26.1912 26.7664 26.2832C26.7588 26.2898 26.7515 26.2963 26.7444 26.3025M26.7444 26.3025C26.7324 26.313 26.7179 26.3273 26.7006 26.3443M26.7444 26.3025L26.7006 26.3443M1.03383 21.8432L1.03843 22.107M1.03383 21.8432L1.03843 22.107M1.03843 22.107L1.06708 23.7492C1.08263 24.642 1.10457 25.2341 1.22451 25.6486C1.29076 25.8776 1.3898 26.0685 1.53734 26.237C1.67699 26.3965 1.84345 26.516 2.00679 26.6224L2.00683 26.6224M1.03843 22.107L2.00683 26.6224M2.00683 26.6224L2.31382 26.8224L2.43825 26.9035M2.00683 26.6224L2.43825 26.9035M2.43825 26.9035H2.58675M2.43825 26.9035H2.58675M2.58675 26.9035H14.099M2.58675 26.9035H14.099M5.42269 2.12308C5.5604 1.76717 5.84522 1.3988 6.21733 1.09915M5.42269 2.12308L6.21733 1.09915M6.21733 1.09915C6.58927 0.799625 7.0122 0.597959 7.39396 0.536944L6.21733 1.09915ZM6.56449 1.48588C6.76869 1.31972 7.03601 1.15315 7.30535 1.09593L6.56449 1.48588ZM6.56449 1.48588C6.35422 1.65698 6.14215 1.88372 6.0117 2.12767L6.56449 1.48588ZM14.099 26.9035C14.8257 26.9035 15.5077 26.9036 16.1479 26.9037M14.099 26.9035L16.1479 26.9037M16.1479 26.9037C21.0239 26.9044 23.478 26.9048 24.7615 26.8552M16.1479 26.9037L24.7615 26.8552M24.7615 26.8552C25.4715 26.8277 25.889 26.7844 26.1702 26.6891M24.7615 26.8552L26.1702 26.6891M26.1702 26.6891C26.4444 26.5962 26.6104 26.433 26.7006 26.3443M26.1702 26.6891L26.7006 26.3443M15.805 11.1129C14.1764 11.8396 13.9943 13.965 15.4745 14.9594C15.9702 15.2924 16.5781 15.3777 17.1278 15.278C17.6775 15.1782 18.2164 14.8847 18.5614 14.3978C19.8961 12.5144 17.8596 10.1959 15.805 11.1129Z" fill="white" fill-opacity="0.987" stroke="#88B958"/>
</svg>
