<svg width="54" height="66" viewBox="0 0 54 66" fill="none" xmlns="http://www.w3.org/2000/svg">
<path fill-rule="evenodd" clip-rule="evenodd" d="M25.3089 0.125751C24.9282 0.192988 24.4414 0.292097 24.2272 0.345974C24.013 0.399851 23.7015 0.474248 23.5349 0.511271C23.3683 0.548295 22.9205 0.664082 22.5397 0.768605C22.159 0.873128 21.6138 1.01214 21.3282 1.07754C21.0426 1.14295 20.6143 1.24101 20.3763 1.29541C20.1383 1.3499 19.8852 1.41827 19.8138 1.44752C19.7424 1.47669 19.4893 1.54899 19.2513 1.6081C18.4458 1.80833 18.0404 1.92167 17.8667 1.99511C17.2929 2.23777 16.3046 2.73733 16.2802 2.79697C16.2643 2.83583 16.2175 2.86753 16.1763 2.86753C16.0122 2.86753 15.2979 3.42516 14.6941 4.0247C14.1234 4.59141 13.5831 5.19715 13.5831 5.27024C13.5831 5.28508 13.4468 5.50609 13.2802 5.76133C13.1136 6.01657 12.9773 6.27538 12.9773 6.33651C12.9773 6.39763 12.9384 6.44767 12.8908 6.44767C12.8432 6.44767 12.8042 6.48915 12.8042 6.53979C12.8042 6.59044 12.7307 6.79678 12.6407 6.99822C12.5508 7.19967 12.4117 7.6003 12.3316 7.88846C12.2515 8.17661 12.1427 8.53026 12.0898 8.67434C12.0267 8.8461 11.9819 10.2448 11.9597 12.7347C11.9337 15.6589 11.9004 16.5633 11.8149 16.6642C11.7539 16.7362 11.5913 17.0309 11.4536 17.3191L11.2033 17.843V19.8514V21.8597L11.4542 22.3837C11.9066 23.3279 12.6605 23.9328 13.6814 24.1706C14.2273 24.2977 14.1499 24.1443 14.3588 25.5131C14.5035 26.4611 14.958 27.8238 15.4703 28.8454C15.7975 29.4979 16.5936 30.7472 16.7131 30.7955C16.7526 30.8116 16.785 30.8642 16.785 30.9126C16.785 31.1266 18.6499 32.876 19.4683 33.4297C19.5748 33.5017 19.7067 33.6036 19.7613 33.656C19.816 33.7085 19.9474 33.7983 20.0536 33.8556C20.232 33.952 20.2465 34.021 20.2465 34.779C20.2465 35.7192 20.0942 36.1896 19.6417 36.6462C19.205 37.0869 18.7155 37.249 16.6984 37.6214C14.6849 37.9932 13.2099 38.3719 12.2417 38.7654C10.5563 39.4505 9.72582 39.8882 8.33213 40.8257C7.40436 41.4499 7.52344 41.358 6.57749 42.1805C5.78455 42.87 5.19549 43.4613 4.57873 44.187C4.12467 44.7212 3.112 46.0595 3.112 46.1253C3.112 46.1498 2.98947 46.353 2.83967 46.5769C2.48305 47.1101 1.46978 49.1497 1.46865 49.3366C1.46822 49.4166 1.43655 49.4952 1.3983 49.5113C1.36013 49.5272 1.24089 49.8154 1.13341 50.1516C1.02593 50.4878 0.903388 50.8414 0.861071 50.9375C0.594448 51.5435 0.191183 53.7308 0.0874241 55.1338C-0.0312192 56.7377 -0.028537 60.3315 0.09201 61.3234C0.191269 62.14 0.559054 63.0925 1.02108 63.7296C1.71546 64.6871 2.88017 65.4817 4.05353 65.7984L4.79949 65.9996L26.982 66C48.7861 66.0003 49.176 65.9973 49.8337 65.8278C50.8082 65.5767 51.1906 65.387 52.0001 64.7527C53.0104 63.9611 53.7403 62.644 53.9008 61.3234C54.1071 59.6261 53.97 54.4636 53.6879 53.3099C53.6195 53.0298 53.5635 52.7298 53.5635 52.6432C53.5635 52.3817 52.8681 50.0701 52.5906 49.4094C52.2948 48.7047 51.3992 46.9448 51.137 46.5527C50.9961 46.342 50.8808 46.1498 50.8808 46.1253C50.8808 46.0595 49.8682 44.7212 49.4141 44.187C48.7877 43.45 48.2051 42.8642 47.417 42.1794C46.4821 41.367 46.5988 41.4568 45.6607 40.8257C44.6998 40.1793 44.6381 40.1423 43.7035 39.6518C43.0757 39.3224 42.6873 39.146 41.7511 38.7654C40.7344 38.3521 39.1578 37.9455 37.3377 37.6271C36.2815 37.4423 35.4056 37.2474 35.0636 37.121C34.6112 36.9539 34.0378 36.3942 33.962 36.0461C33.9313 35.9049 33.8702 35.7669 33.8262 35.7395C33.7823 35.7122 33.7464 35.3005 33.7464 34.8247C33.7464 34.0195 33.7597 33.9526 33.9393 33.8556C34.0454 33.7983 34.1769 33.7085 34.2316 33.656C34.2862 33.6036 34.4181 33.5017 34.5245 33.4297C35.343 32.876 37.2079 31.1266 37.2079 30.9126C37.2079 30.8642 37.2402 30.8116 37.2798 30.7955C37.3992 30.7472 38.1954 29.4979 38.5226 28.8454C38.8475 28.1975 39.1807 27.3235 39.4048 26.5314C39.5211 26.1202 39.804 24.5832 39.804 24.3623C39.804 24.3219 40.0279 24.2368 40.3016 24.1729C40.5753 24.1092 40.955 23.9794 41.1453 23.8847C41.6479 23.6346 42.2503 22.9856 42.5386 22.3837L42.7896 21.8597V19.8514V17.843L42.5093 17.2593C42.3551 16.9384 42.1897 16.6512 42.1415 16.6211C42.0873 16.5873 42.054 15.9171 42.054 14.8622V13.1579L41.801 12.9027C41.5201 12.6191 41.2623 12.5701 40.6999 12.6929C40.5977 12.7153 40.4322 12.8736 40.3321 13.0447C40.1722 13.3182 40.1502 13.4943 40.1502 14.4963C40.1502 15.6351 40.1499 15.6366 39.9554 15.588C39.8484 15.5613 39.566 15.4955 39.328 15.4419C39.0901 15.3882 38.8175 15.3085 38.7223 15.2649C38.6271 15.2214 38.3545 15.1475 38.1165 15.1007C37.8785 15.0539 37.236 14.921 36.6886 14.8054C31.0787 13.6206 25.9112 13.4647 20.0301 14.303C18.6581 14.4986 16.2192 15.0121 14.6726 15.4309C14.2961 15.5329 13.9554 15.6163 13.9154 15.6163C13.8181 15.6163 13.8292 9.73031 13.9273 9.28558C14.0706 8.63583 14.1907 8.18884 14.2623 8.0383C14.7869 6.93518 14.9925 6.58083 15.4116 6.05778C16.1072 5.18999 16.9135 4.5481 17.91 4.06888C18.4784 3.79557 19.4989 3.4951 21.7176 2.94778C21.8842 2.90665 22.2542 2.81339 22.5397 2.74048C22.8253 2.66765 23.3052 2.5516 23.6061 2.48271C23.907 2.41381 24.2186 2.3319 24.2984 2.30073C24.6845 2.14984 26.3421 1.90971 26.9964 1.9098C27.8948 1.90988 29.3964 2.17621 30.7338 2.57265C30.9569 2.63875 31.1958 2.69289 31.2647 2.69289C31.3336 2.69289 31.5795 2.74965 31.8109 2.81907C32.0425 2.88848 32.5824 3.0289 33.0108 3.13115C33.4392 3.2334 33.9065 3.35233 34.0492 3.39556C34.192 3.43869 34.6009 3.5564 34.9579 3.65699C36.4722 4.08399 37.711 4.93126 38.7309 6.23775C39.1204 6.73652 39.8905 8.26577 39.8905 8.54013C39.8905 8.59593 39.9541 8.83746 40.0317 9.07698C40.1878 9.55855 40.5886 9.94075 40.9371 9.94014C41.5099 9.93927 42.0503 9.22542 41.8886 8.68316C41.8442 8.53428 41.7421 8.17661 41.6618 7.88846C41.5814 7.6003 41.4421 7.19967 41.3522 6.99822C41.2622 6.79678 41.1886 6.59376 41.1886 6.54704C41.1886 6.50041 41.1594 6.44915 41.1237 6.43309C41.088 6.41711 40.9651 6.22718 40.8506 6.01107C40.3047 4.9806 38.8273 3.38935 38.0376 2.98122C37.8907 2.90534 37.7509 2.81662 37.7271 2.78422C37.7033 2.75183 37.3723 2.57823 36.9915 2.39844C36.6108 2.21865 36.2408 2.04121 36.1694 2.00402C36.098 1.96682 35.6697 1.84553 35.2175 1.73446C34.7653 1.6233 34.3175 1.50114 34.2223 1.46289C34.1271 1.42456 33.8545 1.34955 33.6166 1.29611C32.911 1.13771 32.2576 0.979047 31.8425 0.865356C31.6284 0.806677 31.2292 0.702678 30.9555 0.634306C30.6818 0.565847 30.2341 0.453727 29.9603 0.385181C28.3771 -0.0116037 26.6367 -0.108617 25.3089 0.125751ZM22.4099 5.58451C22.1303 5.73522 21.7194 6.09096 21.4944 6.37694C21.443 6.44225 21.3359 6.68841 21.2565 6.92383C21.054 7.52337 21.0534 9.47446 21.2555 10.0729C21.4223 10.5666 22.0753 11.2933 22.4337 11.3842C22.5643 11.4173 22.6926 11.4792 22.7187 11.5219C22.7813 11.6241 31.2116 11.6241 31.2742 11.5219C31.3003 11.4792 31.4291 11.4178 31.5605 11.3853C31.8984 11.3019 32.5827 10.5307 32.7449 10.0503C32.9384 9.47743 32.9341 7.5094 32.7382 6.92907C32.5329 6.32123 32.1497 5.88829 31.5388 5.57403C31.2132 5.40655 31.037 5.40026 26.9565 5.41056C22.9886 5.42052 22.6932 5.43187 22.4099 5.58451ZM23.1195 7.42566C22.9767 7.56974 22.9767 9.42966 23.1195 9.57374C23.2689 9.72446 30.7239 9.72446 30.8733 9.57374C30.9416 9.50485 30.9772 9.13714 30.9772 8.4997C30.9772 7.86226 30.9416 7.49455 30.8733 7.42566C30.7239 7.27494 23.2689 7.27494 23.1195 7.42566ZM23.2753 15.8433C21.3642 16.0356 19.7219 16.2694 18.3426 16.5453C16.4622 16.9215 15.7354 17.0899 15.553 17.1916C15.4704 17.2377 15.3096 17.2754 15.1958 17.2754C15.082 17.2754 14.9443 17.3295 14.8899 17.3957C14.8108 17.4919 14.9434 17.6585 15.55 18.2251C15.9674 18.6151 16.3577 18.9342 16.4172 18.9343C16.4767 18.9344 16.5254 18.9662 16.5254 19.0051C16.5254 19.0943 17.0574 19.3325 17.6609 19.5133C18.1813 19.6694 18.8297 19.6449 20.2897 19.4142C20.7657 19.339 21.5445 19.24 22.0205 19.1943C22.4965 19.1486 23.1464 19.0714 23.465 19.0229C24.2173 18.908 29.7756 18.908 30.5279 19.0229C30.8464 19.0714 31.4964 19.1486 31.9723 19.1943C32.4483 19.24 33.2271 19.3387 33.7031 19.4136C35.0792 19.6301 35.7785 19.6675 36.234 19.5487C36.7342 19.4183 37.4675 19.0928 37.4675 19.0012C37.4675 18.9645 37.5189 18.9345 37.5816 18.9345C37.6444 18.9345 38.0339 18.6084 38.447 18.2098C39.0316 17.6459 39.1753 17.4618 39.0945 17.3803C39.0373 17.3226 38.9005 17.2754 38.7903 17.2754C38.6802 17.2754 38.5225 17.2377 38.4398 17.1916C38.2574 17.0899 37.5307 16.9215 35.6502 16.5453C34.1951 16.2542 32.4995 16.0164 30.5857 15.8351C28.8726 15.6727 24.9255 15.6771 23.2753 15.8433ZM13.0638 20.0057C13.0638 21.378 13.0712 21.4372 13.2807 21.7483C13.5309 22.1197 13.8804 22.3014 14.4889 22.3763C15.3949 22.4877 15.9229 23.0979 16.0839 24.2197C16.1389 24.6026 16.2186 25.1124 16.2609 25.3526C16.3483 25.8479 16.8037 27.2535 16.9998 27.6328C17.0714 27.7714 17.1303 27.9307 17.1306 27.9868C17.1309 28.0427 17.1603 28.1017 17.196 28.1177C17.2318 28.1337 17.354 28.3214 17.4678 28.5348C17.5816 28.7482 17.7088 28.9643 17.7506 29.015C17.7923 29.0658 18.0151 29.3627 18.2457 29.6749C18.624 30.1868 19.1349 30.7125 19.8603 31.3362C20.276 31.6938 21.4181 32.4692 21.5289 32.4692C21.5851 32.4692 21.6311 32.5085 21.6311 32.5565C21.6311 32.6045 21.6798 32.6443 21.7393 32.645C21.7988 32.6456 22.0811 32.766 22.3666 32.9126C22.854 33.1627 23.2235 33.3017 24.2705 33.6284C24.5085 33.7027 25.2209 33.8337 25.8538 33.9197C26.9619 34.0701 27.0467 34.07 28.147 33.9173C28.7755 33.8302 29.4844 33.6991 29.7224 33.6261C30.7216 33.3196 31.135 33.1647 31.6262 32.9126C31.9118 32.766 32.1941 32.6456 32.2536 32.645C32.3131 32.6443 32.3618 32.6045 32.3618 32.5565C32.3618 32.5085 32.4174 32.4692 32.4854 32.4692C32.5534 32.4692 32.6605 32.42 32.7234 32.36C32.7862 32.3 33.0623 32.1027 33.3369 31.9215C34.2776 31.3007 35.157 30.4708 35.8126 29.5852C36.4062 28.7832 36.4939 28.6492 36.6243 28.3433C36.6805 28.2113 36.757 28.1032 36.7941 28.1032C36.8313 28.1032 36.862 28.0541 36.8622 27.994C36.8626 27.934 36.9214 27.7714 36.993 27.6328C37.2003 27.2318 37.6503 25.83 37.7251 25.3526C37.7627 25.1124 37.843 24.6016 37.9034 24.2174C38.0809 23.0887 38.6039 22.487 39.504 22.3763C40.1124 22.3014 40.462 22.1197 40.7121 21.7483C40.9216 21.4372 40.929 21.378 40.929 20.0057C40.929 19.2245 40.9055 18.5852 40.8768 18.5852C40.8481 18.5852 40.4489 18.944 39.9898 19.3825C39.5306 19.8211 38.9408 20.3254 38.679 20.5034C37.3304 21.4199 35.9674 21.7223 34.3621 21.4609C32.6571 21.1833 32.114 21.1092 30.8906 20.9877C29.089 20.8086 24.9039 20.8086 23.1022 20.9877C21.8788 21.1092 21.3357 21.1833 19.6308 21.4609C18.0233 21.7226 16.6528 21.4179 15.3138 20.5009C15.052 20.3217 14.4618 19.8173 14.002 19.3801C13.5423 18.9429 13.1431 18.5852 13.115 18.5852C13.0869 18.5852 13.0638 19.2245 13.0638 20.0057ZM22.125 35.3842C22.0236 36.5179 21.5907 37.46 20.873 38.1088L20.575 38.3782L20.9516 38.675C21.1588 38.8382 21.3671 39.0138 21.4147 39.065C21.4623 39.1162 21.696 39.3127 21.934 39.5016C22.5743 40.01 22.5803 40.0148 22.6942 40.1136C22.8086 40.2128 23.6806 40.7314 24.0974 40.9481C24.2402 41.0223 24.5712 41.1466 24.833 41.2242C25.0948 41.3017 25.4842 41.4167 25.6984 41.4797C26.2994 41.6563 28.2887 41.6306 29.0104 41.4368C29.808 41.2226 30.1726 41.0876 30.7941 40.7765C31.3378 40.5043 32.881 39.3839 32.881 39.2614C32.881 39.2237 32.9178 39.1929 32.9627 39.1929C33.0077 39.1929 33.1892 39.059 33.3663 38.8954L33.6881 38.5978L33.436 38.3741C33.2973 38.2512 33.1594 38.1493 33.1293 38.1478C33.048 38.1436 32.4271 37.2728 32.2556 36.9223C32.0635 36.5298 31.9184 35.9512 31.8672 35.3738C31.8313 34.9689 31.8091 34.926 31.6734 34.9994C31.5039 35.0909 30.6745 35.3577 29.9387 35.5573C29.3134 35.7269 27.5982 35.964 26.9964 35.964C26.3827 35.964 24.6519 35.7235 24.1091 35.5628C23.8776 35.4941 23.6439 35.4379 23.5899 35.4377C23.5359 35.4375 23.1932 35.3249 22.8283 35.1874L22.165 34.9373L22.125 35.3842ZM18.2561 39.2566C18.1371 39.2785 17.8451 39.3465 17.6071 39.4075L17.1744 39.5184V45.4026V51.2867H27.1262H37.0781L37.1003 45.4163L37.1225 39.5458L36.884 39.4989C36.7528 39.4732 36.4734 39.4118 36.2632 39.3626C36.053 39.3134 35.8583 39.3051 35.8305 39.3442C35.8028 39.3833 35.5074 39.63 35.1742 39.8923C34.8411 40.1547 34.5295 40.4129 34.4819 40.4662C34.4343 40.5193 34.1423 40.752 33.8329 40.9829C33.5235 41.2139 33.231 41.4459 33.1829 41.4986C33.039 41.6557 32.5481 41.9871 32.459 41.9871C32.4134 41.9871 32.3632 42.0222 32.3473 42.065C32.2933 42.2111 31.1955 42.7522 30.4147 43.0178C29.109 43.4617 28.2451 43.5886 26.9099 43.5325C26.2673 43.5055 25.5859 43.4386 25.3955 43.384C25.2051 43.3293 24.8351 43.2244 24.5734 43.1508C23.6686 42.8966 22.12 42.1333 21.7331 41.7508C21.6702 41.6887 21.5923 41.6377 21.56 41.6374C21.5277 41.6372 21.3603 41.5095 21.1879 41.3536C21.0156 41.1977 20.6705 40.9131 20.4211 40.721C19.9804 40.3815 19.5001 39.9835 19.2091 39.7168C19.0183 39.5418 18.5291 39.1898 18.4975 39.2047C18.4838 39.2113 18.3751 39.2346 18.2561 39.2566ZM14.6648 40.0103C14.4268 40.065 14.1932 40.1346 14.1456 40.1649C14.098 40.1953 13.9227 40.2467 13.7561 40.2792C13.5896 40.3116 13.3754 40.3731 13.2802 40.4158C13.185 40.4584 12.9026 40.5788 12.6528 40.6834L12.1985 40.8734V42.9178C12.1985 45.1574 12.1769 45.2639 11.6707 45.528C11.3719 45.684 11.1572 45.688 10.88 45.543C10.3487 45.2648 10.3404 45.2352 10.308 43.4998C10.2916 42.6197 10.2573 41.8998 10.2317 41.8998C10.06 41.8998 8.03531 43.3801 7.55598 43.856C7.40627 44.0047 7.15834 44.2422 7.00508 44.3836C6.85182 44.525 6.45686 44.9572 6.12732 45.3441C5.79779 45.731 5.47137 46.1098 5.40179 46.1858C5.3323 46.2619 5.27545 46.37 5.27545 46.426C5.27545 46.4819 5.24196 46.5278 5.20094 46.5278C5.00138 46.5278 3.82499 48.6119 3.22952 50.0206C3.15847 50.1887 3.06484 50.4048 3.02157 50.5009C2.87221 50.8323 2.44255 52.3009 2.25398 53.1247C2.16814 53.4994 1.99342 54.8906 1.98857 55.238C1.98736 55.3238 2.87368 55.3471 6.13598 55.3471H10.2849L10.3114 52.0886L10.3379 48.8301L10.5885 48.5958C10.7902 48.4072 10.9227 48.3615 11.2678 48.3615C11.6356 48.3615 11.7319 48.3999 11.9474 48.6327L12.1985 48.9039V50.4228C12.1985 51.2582 12.2126 51.9416 12.2298 51.9416C12.247 51.9416 12.5293 51.8178 12.8572 51.6664C13.3673 51.4309 13.5811 51.3852 14.3403 51.3493L15.2273 51.3075V45.5995C15.2273 42.46 15.198 39.8958 15.1624 39.9012C15.1267 39.9066 14.9028 39.9557 14.6648 40.0103ZM39.0252 45.6343V51.3053L39.9122 51.3512C40.6698 51.3903 40.8824 51.4367 41.3701 51.6693C41.684 51.8191 41.9664 51.9416 41.9975 51.9416C42.0688 51.9416 42.0727 41.1774 42.0015 40.9901C41.9726 40.9141 41.8996 40.8519 41.8394 40.8519C41.7449 40.8519 41.3849 40.7123 40.7127 40.4148C40.6175 40.3726 40.4033 40.3117 40.2367 40.2794C40.0701 40.247 39.8949 40.1902 39.8473 40.1532C39.7997 40.1161 39.5952 40.0583 39.3929 40.0246L39.0252 39.9634V45.6343ZM43.9578 48.7108V55.3471H47.9855H52.013L51.9558 54.6704C51.9244 54.2982 51.8623 53.8169 51.8178 53.6007C51.7733 53.3846 51.7038 53.0304 51.6635 52.8136C51.5326 52.1117 51.1092 50.8172 50.7068 49.8896C50.0984 48.4869 48.9825 46.5278 48.7919 46.5278C48.7509 46.5278 48.7174 46.4853 48.7174 46.4333C48.7174 46.272 47.4484 44.7802 46.9094 44.3079C46.7956 44.2081 46.5814 44.0054 46.4335 43.8574C46.2855 43.7095 45.8919 43.3802 45.5588 43.1257C45.2256 42.8711 44.9335 42.6351 44.9097 42.6012C44.8553 42.5237 44.0924 42.0744 44.0151 42.0744C43.9836 42.0744 43.9578 45.0608 43.9578 48.7108ZM13.7778 53.3131C13.6706 53.3339 13.5831 53.3875 13.5831 53.4322C13.5831 53.4768 13.5283 53.5134 13.4613 53.5134C13.3943 53.5134 13.1631 53.7114 12.9475 53.9533C12.5309 54.421 12.4778 54.5842 12.2931 55.9687C12.1985 56.6777 11.8317 57.5076 11.4182 57.9488C11.0103 58.3837 10.6713 58.8803 10.5256 59.2565C10.4042 59.5701 10.3812 59.9835 10.3812 61.8543V64.0792H26.9964H43.6117V61.8106C43.6117 59.2957 43.5949 59.1978 43.0191 58.3597C42.854 58.1196 42.696 57.9035 42.6678 57.8794C42.6019 57.8235 42.4087 57.4845 42.2162 57.0874C42.0241 56.6914 41.7944 55.699 41.7944 55.2653C41.7944 55.0822 41.7701 54.8095 41.7403 54.6593C41.666 54.2845 41.0759 53.6329 40.6218 53.4241C40.2525 53.2543 40.0242 53.2516 27.1094 53.2633C19.8841 53.2699 13.8849 53.2922 13.7778 53.3131ZM1.9582 57.3264C1.86439 57.421 1.89243 60.7112 1.99125 61.2152C2.0925 61.7317 2.41053 62.5074 2.52104 62.5074C2.5605 62.5074 2.59278 62.5547 2.59278 62.6123C2.59278 62.7573 3.29979 63.4181 3.64793 63.5985C4.48276 64.0311 4.78512 64.0792 6.66654 64.0792H8.46324L8.49837 61.6124C8.52295 59.8836 8.56708 59.0542 8.64583 58.84C8.82185 58.3613 9.01881 57.9437 9.18764 57.6914C9.27297 57.5639 9.34272 57.4165 9.34272 57.3639C9.34272 57.2579 2.06273 57.221 1.9582 57.3264ZM44.7367 57.4419C44.7367 57.5385 44.7664 57.6175 44.8028 57.6175C44.8701 57.6175 45.1514 58.1999 45.3512 58.7526C45.4277 58.9645 45.472 59.8288 45.4955 61.5687L45.5294 64.0792H47.3262C49.2078 64.0792 49.5101 64.0311 50.3449 63.5985C50.693 63.4181 51.4001 62.7573 51.4001 62.6123C51.4001 62.5547 51.4323 62.5074 51.4718 62.5074C51.5924 62.5074 51.9088 61.7084 52.0077 61.154C52.0605 60.8586 52.0899 59.9065 52.0751 58.9709L52.0491 57.3119L48.3929 57.2891C44.7803 57.2665 44.7367 57.2684 44.7367 57.4419Z" fill="#88B958"/>
</svg>
