<svg width="63" height="64" viewBox="0 0 63 64" fill="none" xmlns="http://www.w3.org/2000/svg">
<path fill-rule="evenodd" clip-rule="evenodd" d="M1.42194 0.147809C1.00294 0.314155 0.352123 0.952834 0.149002 1.397C0.00870398 1.70402 0 3.48507 0 31.9971C0 60.5091 0.00870398 62.2902 0.149002 62.5972C0.363413 63.0661 1.01328 63.6857 1.46787 63.8547C1.83085 63.9896 3.55907 64 25.8456 64C51.1029 64 50.4126 64.0094 51.8792 63.6446C52.0924 63.5916 52.4027 63.5179 52.5686 63.481C52.8535 63.4175 53.2591 63.2852 53.6458 63.1295C54.917 62.6176 55.5192 62.328 56.145 61.9275C56.2872 61.8365 56.4617 61.7354 56.5328 61.7027C56.6039 61.67 56.9723 61.4106 57.3515 61.1264C58.6781 60.1316 60.1099 58.5438 60.9728 57.1104C61.3899 56.4177 61.962 55.2588 61.962 55.1067C61.962 55.0442 62.0145 54.9166 62.0787 54.8232C62.1429 54.7297 62.2165 54.5563 62.2423 54.4379C62.2681 54.3194 62.3297 54.1062 62.3791 53.9641C63.1478 51.7533 63.2097 48.4082 62.5258 46.0387C62.2017 44.9157 62.0508 44.531 61.4785 43.3682C61.0468 42.491 60.9787 42.3736 60.6478 41.9348C60.5174 41.762 60.4108 41.5939 60.4108 41.5613C60.4108 41.5088 60.1229 41.1342 59.5921 40.4953C59.3345 40.1854 58.513 39.3743 57.9818 38.9053C56.1918 37.3252 53.1198 35.9468 50.845 35.7031C50.5843 35.6751 50.2455 35.63 50.092 35.6028L49.8129 35.5533L49.7904 22.0595C49.7686 9.04788 49.762 8.55488 49.606 8.26414C49.517 8.09831 47.7137 6.23594 45.5988 4.12556C42.1516 0.685871 41.7086 0.27315 41.3223 0.140917C40.9202 0.0031715 39.5853 -0.00604603 21.3291 0.00213774C3.67049 0.0100631 1.73313 0.024277 1.42194 0.147809ZM2.06827 31.9971V61.9325H21.723C39.1939 61.9325 41.3634 61.9181 41.2485 61.8033C41.1774 61.7322 41.0929 61.6741 41.0608 61.6741C41.0287 61.6741 40.8555 61.5578 40.676 61.4156C40.4965 61.2735 40.3099 61.1572 40.2614 61.1572C40.213 61.1572 40.1604 61.1282 40.1446 61.0926C40.1288 61.057 39.9026 60.8551 39.6419 60.6438C38.979 60.1065 38.1638 59.254 37.5381 58.4436L37.006 57.7545L21.9286 57.7105C13.636 57.6864 6.77359 57.6352 6.67879 57.5968C6.39406 57.4815 6.18948 57.1255 6.18362 56.7349C6.17707 56.3019 6.30151 56.042 6.61338 55.8377C6.82995 55.6959 7.69957 55.6856 21.3037 55.6642C34.2379 55.6438 35.7639 55.6274 35.7639 55.5092C35.7639 55.4365 35.7102 55.2723 35.6444 55.1443C35.4809 54.8255 35.0145 53.3521 34.9441 52.9319C34.9126 52.7433 34.8501 52.5204 34.8052 52.4366C34.7277 52.2918 34.0268 52.2842 20.7802 52.2842H6.83676L6.51083 52.0026C6.20956 51.7422 6.18491 51.6862 6.18491 51.2604C6.18491 50.8592 6.21972 50.7652 6.45508 50.5299L6.72516 50.2598L20.6413 50.2373L34.5574 50.2147L34.5601 49.7204C34.5637 49.0878 34.777 47.0758 34.8538 46.9516C34.8961 46.8832 31.0596 46.8571 20.9406 46.8571C10.5971 46.8571 6.92018 46.8314 6.78083 46.7583C6.34735 46.5306 6.18525 46.2767 6.17827 45.8141C6.17215 45.4092 6.1993 45.345 6.48851 45.08L6.80556 44.7896H21.1554C31.1328 44.7896 35.5053 44.7621 35.5053 44.6991C35.5053 44.5201 36.4454 42.6666 36.8357 42.0761L37.2342 41.473L22.0858 41.43C6.03392 41.3843 6.78212 41.4044 6.37347 41.0092C6.03211 40.679 6.10821 39.9454 6.52161 39.582L6.76497 39.3679L22.9356 39.3653L39.1062 39.3625L39.5248 38.9901C40.6033 38.031 42.158 37.0877 43.5074 36.5739C44.8749 36.0532 45.8294 35.7977 46.7516 35.7056C47.0833 35.6724 47.4421 35.6246 47.5487 35.5993L47.7426 35.5534V22.6841V9.81475H44.516C42.7259 9.81475 41.2683 9.78063 41.242 9.73816C41.216 9.69604 41.0937 9.63617 40.9702 9.60524C40.8467 9.57423 40.6318 9.4246 40.4927 9.27264C40.0237 8.7605 39.9866 8.45486 39.9866 5.10416V2.06169H21.0274H2.06827V31.9971ZM18.5564 3.09371C18.0512 3.20139 17.7362 3.37575 16.8426 4.04225C15.7373 4.86675 15.7071 4.87829 14.4777 4.94695C12.8996 5.03516 12.3093 5.22718 11.5682 5.89325C11.1176 6.29813 10.7202 6.96903 10.5981 7.53061C10.3625 8.61483 10.244 9.07192 10.1235 9.36171C10.0431 9.55511 9.61505 10.0499 9.06084 10.5901C7.88253 11.7385 7.56152 12.3438 7.56763 13.4054C7.57143 14.0705 7.65416 14.3257 8.28782 15.6295C8.83548 16.7562 8.89314 17.1013 8.69984 18.0945C8.33875 19.9488 9.00017 21.4849 10.4563 22.1735C10.723 22.2997 10.9573 22.4294 10.977 22.462C11.0139 22.5227 10.9389 22.6995 10.2768 24.1148C10.0662 24.5649 9.823 25.0883 9.7363 25.2778C9.57782 25.6243 8.97992 26.9007 8.52559 27.8621C8.1994 28.5523 8.15675 28.7679 8.26774 29.1643C8.40046 29.6385 8.7107 29.8377 9.29533 29.824C9.7507 29.8133 10.8027 29.6425 11.8351 29.4116L12.3378 29.2992L12.6745 29.8298C12.8597 30.1215 13.0116 30.4088 13.012 30.468C13.0125 30.5273 13.0517 30.5757 13.0991 30.5757C13.1465 30.5757 13.1852 30.6193 13.1852 30.6724C13.1852 30.8137 13.9494 32.0544 14.1577 32.2512C14.4103 32.4901 15.1628 32.4927 15.427 32.2555C15.6142 32.0875 16.3738 30.6115 16.3738 30.4156C16.3738 30.3615 16.4126 30.3173 16.46 30.3173C16.5074 30.3173 16.5462 30.2755 16.5462 30.2244C16.5462 30.1733 16.6772 29.8535 16.8374 29.5137C16.9976 29.1739 17.2346 28.6633 17.3643 28.379C17.494 28.0947 17.7315 27.5867 17.8918 27.2501C18.0523 26.9134 18.1836 26.5936 18.1836 26.5394C18.1836 26.4851 18.2192 26.4407 18.2629 26.4407C18.3065 26.4407 18.3681 26.3232 18.3996 26.1794C18.4874 25.7798 18.7678 25.6435 19.408 25.689C20.0782 25.7366 20.7753 25.933 20.8667 26.1C20.9045 26.169 21.0166 26.4192 21.1159 26.6561C21.2152 26.893 21.3494 27.2031 21.4141 27.3453C21.4787 27.4874 21.5954 27.7588 21.6732 27.9483C21.8538 28.3881 21.9017 28.4968 22.2724 29.307C22.4408 29.6751 22.5786 30.0314 22.5786 30.0987C22.5786 30.1659 22.6131 30.2422 22.6552 30.2683C22.6974 30.2944 22.7575 30.4176 22.7888 30.5422C22.8511 30.7905 23.0031 30.9698 23.3458 31.1997C23.8417 31.5323 24.4751 31.267 24.8359 30.5757C24.8977 30.4573 24.969 30.341 24.9944 30.3173C25.0544 30.2612 26.0431 28.6445 26.1539 28.4212C26.2554 28.2166 26.3151 28.2133 27.0027 28.3737C28.5528 28.7356 28.9575 28.8081 29.4298 28.8089C29.8363 28.8096 29.9845 28.7721 30.1229 28.6337C30.383 28.3737 30.5358 27.9455 30.4668 27.6699C30.3887 27.3579 28.9609 24.0101 28.8607 23.9038C28.8182 23.8588 28.7834 23.7742 28.7834 23.716C28.7834 23.6577 28.6725 23.365 28.5371 23.0656C28.1467 22.2032 28.1473 22.2425 28.5222 22.006C29.1841 21.5883 29.6382 21.0173 29.9302 20.2355C30.1071 19.762 30.1159 18.8609 29.9542 17.7958C29.8057 16.8178 29.8015 16.8381 30.4188 15.5865C30.9961 14.416 31.1102 14.0539 31.1102 13.3926C31.1103 12.308 30.8069 11.7539 29.4933 10.4393C28.4773 9.42253 28.5702 9.60317 28.1313 7.79034C27.9206 6.91976 27.6875 6.47111 27.1836 5.96579C26.4809 5.26129 25.8097 5.03352 24.1766 4.94531C22.9377 4.87846 23.0545 4.92412 21.8461 4.03467C21.4195 3.72067 20.8857 3.37963 20.6597 3.27677C20.1918 3.06382 19.13 2.97138 18.5564 3.09371ZM42.0549 5.67978V7.74727H44.1231C45.2607 7.74727 46.1914 7.71789 46.1914 7.68197C46.1914 7.59755 42.2033 3.6123 42.1188 3.6123C42.0836 3.6123 42.0549 4.54267 42.0549 5.67978ZM18.9592 5.10528C18.7371 5.20909 18.3064 5.48182 18.1219 5.63559C18.0643 5.68358 17.9603 5.77041 17.8907 5.82856C17.4745 6.17632 16.5212 6.70991 16.1153 6.82233C15.8546 6.89452 15.1656 6.97825 14.5842 7.00831C14.0027 7.03846 13.421 7.10867 13.2915 7.16441C13.0682 7.26037 12.7543 7.5201 12.7543 7.60883C12.7543 7.6314 12.7083 7.75907 12.6521 7.89242C12.5959 8.02577 12.5023 8.34813 12.4439 8.60872C12.2427 9.50781 12.1446 9.85877 12.0188 10.1293C11.9494 10.2786 11.8926 10.4433 11.8926 10.4954C11.8926 10.5475 11.8538 10.5901 11.8064 10.5901C11.759 10.5901 11.7199 10.6386 11.7197 10.6977C11.7193 10.757 11.3075 11.2125 10.8045 11.7099C9.7762 12.727 9.51689 13.1215 9.5998 13.5434C9.65866 13.8431 10.171 14.9221 10.2767 14.9691C10.3122 14.9849 10.3416 15.0431 10.3419 15.0983C10.3422 15.1536 10.3947 15.299 10.4586 15.4215C10.8778 16.2244 10.9307 16.9453 10.6935 18.6223C10.5925 19.3364 10.5966 19.3944 10.7733 19.7481C10.9603 20.1224 11.0667 20.1994 11.9357 20.5884C13.6818 21.3701 13.9432 21.5812 14.8585 22.9493C15.4222 23.792 15.5868 23.9768 15.9082 24.1278C16.3025 24.3131 16.3558 24.3108 17.1494 24.0735C17.4101 23.9955 17.8367 23.8693 18.0974 23.7929C18.7229 23.6097 19.9777 23.6109 20.5965 23.7954C22.4676 24.3532 22.3503 24.3333 22.7238 24.1562C23.1414 23.958 23.2771 23.8212 23.6189 23.2534C24.0077 22.6075 24.5664 21.8851 24.9181 21.5735C25.2666 21.2647 26.9629 20.4106 27.2275 20.4106C27.2775 20.4106 27.4735 20.2555 27.6631 20.066C27.9848 19.7445 28.0078 19.6884 28.0078 19.2301C28.0078 18.9598 27.9613 18.3202 27.9044 17.8087C27.7963 16.8367 27.8745 16.0865 28.1363 15.5866C29.2776 13.406 29.3132 13.0274 28.4478 12.2734C28.2824 12.1294 27.8928 11.7542 27.582 11.4399C26.7582 10.6068 26.5302 10.1024 26.1854 8.35028C26.0815 7.82247 25.7938 7.37925 25.4342 7.19335C25.2894 7.11849 24.7767 7.04777 24.1244 7.01271C22.8489 6.94405 22.0227 6.73377 21.5037 6.34586C19.6332 4.94712 19.4689 4.86709 18.9592 5.10528ZM18.7437 7.28708C16.6629 7.49314 14.8962 8.45986 13.4852 10.1645C13.1334 10.5894 12.4129 11.9009 12.4108 12.1203C12.4101 12.1802 12.3731 12.2965 12.3285 12.3788C12.155 12.6982 11.9787 13.8371 11.9787 14.6389C11.9787 15.4406 12.155 16.5795 12.3285 16.899C12.3731 16.9812 12.4096 17.09 12.4096 17.1406C12.4096 17.3613 13.0699 18.5949 13.4423 19.0698C14.1014 19.9106 14.977 20.6402 15.9744 21.1796C18.0083 22.2795 20.6428 22.2725 22.751 21.1615C23.3367 20.8528 24.3356 20.1001 24.7411 19.6619C25.1617 19.2072 25.8771 18.1197 26.0619 17.6539C26.1466 17.4407 26.2521 17.1965 26.2965 17.1112C26.3742 16.9622 26.4664 16.5868 26.6288 15.7588C26.6707 15.5455 26.7049 15.0416 26.7049 14.6389C26.7049 14.2361 26.6707 13.7322 26.6288 13.519C26.4715 12.7173 26.375 12.3167 26.3028 12.1665C25.2864 10.0513 24.3121 8.94012 22.751 8.11579C21.6465 7.53251 19.9039 7.17216 18.7437 7.28708ZM18.4852 9.38161C17.1617 9.66494 16.5267 10.0065 15.5982 10.9346C15.1413 11.3914 14.7907 11.8289 14.6664 12.0976C14.5568 12.3345 14.4312 12.5948 14.3874 12.6761C14.0957 13.2174 13.9835 15.3048 14.204 16.0868C14.659 17.7002 16.282 19.3472 17.7958 19.7317C18.6454 19.9474 19.0452 19.9957 19.6486 19.9554C21.946 19.8019 23.8111 18.2842 24.4881 16.0172C24.6637 15.429 24.64 13.6703 24.4492 13.1313C24.1022 12.1512 23.7569 11.5836 23.139 10.9777C22.8008 10.646 22.4685 10.3356 22.4006 10.2879C21.5936 9.72085 20.6163 9.39074 19.6055 9.34388C19.1789 9.32406 18.6748 9.34103 18.4852 9.38161ZM22.0862 11.6943C21.9295 11.7425 21.2998 12.2656 20.5116 13.0021C20.4356 13.0732 20.0077 13.4608 19.5609 13.8636C19.114 14.2663 18.6698 14.6738 18.5737 14.7689C18.12 15.2188 18.1506 15.224 17.4735 14.5841C16.5607 13.7215 16.3867 13.6509 15.8293 13.9165C15.225 14.2046 15.0788 14.8916 15.4998 15.4659C15.6353 15.6506 16.1535 16.1965 16.6516 16.6787C17.9768 17.9622 18.1797 17.9706 19.392 16.7925C19.6114 16.5793 20.097 16.1335 20.4709 15.8018C20.8449 15.4702 21.2133 15.1407 21.2895 15.0696C21.3658 14.9985 21.7708 14.6303 22.1896 14.2512C23.4134 13.1436 23.505 13.0022 23.3859 12.4062C23.2847 11.9006 22.6127 11.5325 22.0862 11.6943ZM26.0487 23.3216C25.9428 23.45 25.6828 23.8262 25.4708 24.1579C25.0764 24.775 24.7886 25.1663 24.5622 25.393C24.4016 25.5538 23.5585 26.0957 23.4661 26.0975C23.4283 26.0982 23.3468 26.1308 23.2852 26.1699C23.1692 26.2435 23.1828 26.2987 23.4898 27.0007C23.5519 27.1428 23.6728 27.4229 23.7586 27.623C23.8442 27.8232 23.9402 27.9879 23.9716 27.9891C24.0032 27.9903 24.157 27.7878 24.3135 27.5391C24.4701 27.2904 24.6472 27.0093 24.7073 26.9145C24.7674 26.8198 24.8393 26.6841 24.867 26.613C24.8948 26.542 25.0214 26.4063 25.1485 26.3115C25.4444 26.0908 26.1683 26.0894 27.0405 26.308C27.3854 26.3944 27.6897 26.4429 27.7168 26.4158C27.7439 26.3887 27.71 26.2573 27.6415 26.1236C27.573 25.9901 27.4495 25.7257 27.3671 25.5362C27.2847 25.3467 27.1624 25.0819 27.0955 24.9478C27.0285 24.8136 26.9737 24.6691 26.9737 24.6266C26.9737 24.5841 26.838 24.2595 26.6721 23.9053C26.5062 23.5512 26.3705 23.2208 26.3705 23.1712C26.3705 23.0204 26.2513 23.0762 26.0487 23.3216ZM12.652 23.8779C12.3133 24.5486 11.8926 25.4872 11.8926 25.5726C11.8926 25.6237 11.8538 25.6654 11.8064 25.6654C11.759 25.6654 11.7202 25.7098 11.7202 25.7641C11.7202 25.8553 11.2253 26.9647 11.0195 27.3346C10.9346 27.4871 10.9574 27.4927 11.427 27.4341C11.7006 27.3999 12.0167 27.3369 12.1296 27.294C12.2424 27.2511 12.5574 27.216 12.8297 27.216C13.2599 27.216 13.3584 27.2488 13.5807 27.466C13.7214 27.6036 13.8935 27.8265 13.9632 27.9614C14.0328 28.0964 14.1093 28.2261 14.133 28.2498C14.1568 28.2735 14.2725 28.4769 14.3899 28.702C14.5075 28.9271 14.629 29.1112 14.6601 29.1112C14.7476 29.1112 14.9808 28.7237 15.0435 28.4741C15.0745 28.3507 15.1344 28.2498 15.1766 28.2498C15.2189 28.2498 15.2535 28.2044 15.2535 28.1489C15.2535 28.0934 15.3659 27.8123 15.5032 27.5244C16.0675 26.3412 16.0662 26.3448 15.935 26.2617C15.8683 26.2195 15.7226 26.1844 15.6112 26.1836C15.2465 26.1813 14.3855 25.687 13.9608 25.2362C13.7428 25.0048 13.4438 24.5575 13.4438 24.4629C13.4438 24.4136 13.4139 24.3733 13.3773 24.3733C13.3408 24.3733 13.2156 24.1988 13.0991 23.9856C12.9825 23.7724 12.8661 23.598 12.8403 23.598C12.8146 23.598 12.7299 23.7239 12.652 23.8779ZM6.52669 34.1296C6.11898 34.4605 6.0559 35.0887 6.38407 35.5497C6.72593 36.03 5.61872 36.0028 24.9021 36.0028C41.3875 36.0028 42.6809 35.9924 42.9934 35.8572C43.4149 35.6745 43.6061 35.3583 43.6061 34.8432C43.6061 34.5017 43.565 34.405 43.3283 34.189L43.0506 33.9354L24.9078 33.9358L6.76497 33.9362L6.52669 34.1296ZM47.4841 37.6408C46.4355 37.7816 44.9936 38.1149 44.86 38.2475C44.8149 38.2922 44.7255 38.3288 44.6613 38.3288C44.5216 38.3288 43.928 38.5813 43.2183 38.9429C42.7458 39.1835 41.5546 39.9303 41.4516 40.0504C41.4279 40.078 41.2922 40.19 41.15 40.2991C40.2665 40.9773 38.6077 42.8323 38.6077 43.1422C38.6077 43.1876 38.5738 43.2376 38.5322 43.2534C38.4257 43.2938 37.6306 44.8318 37.4484 45.3496C37.3651 45.5865 37.2646 45.8578 37.2251 45.9526C37.0842 46.2911 36.8936 47.086 36.7531 47.9206C36.5375 49.2025 36.6514 51.7498 36.9694 52.756C37.3583 53.9865 37.5306 54.4487 37.8369 55.084C38.2075 55.8525 38.9372 57.0222 39.046 57.0222C39.0894 57.0222 39.1248 57.0768 39.1248 57.1436C39.1248 57.3709 41.0432 59.2097 41.8542 59.7598C42.2889 60.0547 42.7155 60.3222 42.8022 60.3541C42.8888 60.3862 42.9791 60.4346 43.0028 60.4618C43.0265 60.489 43.2398 60.6011 43.4768 60.711C43.7138 60.8207 44.0046 60.9592 44.1231 61.0187C44.2416 61.0781 44.5713 61.1967 44.8556 61.2824C45.14 61.3679 45.4697 61.4757 45.5882 61.5218C45.7066 61.5678 46.0169 61.6405 46.2776 61.6833C46.5383 61.726 46.9455 61.7972 47.1824 61.8416C47.7605 61.9497 49.733 61.9524 50.3495 61.8458C52.1561 61.5336 52.8256 61.3313 54.1079 60.7101C54.9288 60.3124 56.1724 59.5112 56.6383 59.0799C57.753 58.0478 58.1894 57.5816 58.6053 56.9792C58.7688 56.7423 58.924 56.529 58.9501 56.5054C59.167 56.3083 60.1522 54.3793 60.1522 54.1517C60.1522 54.0911 60.1888 54.0047 60.2335 53.9598C60.3233 53.8693 60.4078 53.5584 60.7242 52.155C60.9204 51.2844 60.9352 51.071 60.9057 49.5276C60.875 47.9212 60.841 47.6524 60.5236 46.5125C59.9435 44.4292 58.9217 42.6829 57.3985 41.1715C56.6774 40.456 55.9898 39.8794 55.8576 39.8794C55.8102 39.8794 55.7586 39.8503 55.7428 39.8148C55.7009 39.7204 55.175 39.3625 55.0784 39.3625C55.033 39.3625 54.983 39.3322 54.9672 39.295C54.9214 39.1875 53.3514 38.4413 52.784 38.2574C52.0365 38.0151 51.3941 37.8469 50.7839 37.7336C50.0673 37.6007 48.1791 37.5475 47.4841 37.6408ZM54.1344 42.9486C53.8818 43.0172 53.5134 43.1735 53.3157 43.2959C53.1181 43.4184 51.6292 44.8604 50.0073 46.5004L47.0581 49.4822L45.7415 48.1822C44.1795 46.64 43.8066 46.416 42.7948 46.4121C41.8211 46.4083 41.1005 46.7186 40.4798 47.4092C40.3481 47.5557 40.18 47.7918 40.106 47.9339C39.9321 48.2683 39.7281 49.0358 39.7281 49.3553C39.7281 49.6784 39.9306 50.4348 40.1201 50.8198C40.3142 51.2142 45.1962 56.0933 45.5882 56.2846C46.2245 56.5953 46.6388 56.6917 47.1712 56.653C47.8948 56.6004 48.2575 56.4882 48.7099 56.1771C48.9218 56.0314 50.9442 54.0409 53.2042 51.7538C57.8104 47.0924 57.7474 47.1715 57.8094 45.9708C57.8566 45.0542 57.6159 44.4007 57.0054 43.788C56.4959 43.2768 56.1632 43.0867 55.5006 42.9283C54.913 42.7877 54.7165 42.7906 54.1344 42.9486ZM51.061 48.3538C48.3463 51.0923 47.5538 51.8447 47.3333 51.8925C46.7394 52.0214 46.5911 51.9185 44.8188 50.1476L43.1321 48.4621L42.7237 48.4614C42.3682 48.4608 42.2817 48.4983 42.0558 48.7513C41.8582 48.9725 41.7963 49.1246 41.7963 49.3892C41.7963 49.7294 41.8472 49.7874 44.234 52.1734C46.654 54.5924 46.6744 54.6102 47.0341 54.6102C47.3745 54.6102 47.5677 54.5077 47.948 54.1259C48.0009 54.0727 49.7797 52.2814 51.9007 50.1452L55.7572 46.2612L55.7543 45.8484C55.7502 45.2581 55.3709 44.8758 54.7893 44.8758C54.5339 44.8758 54.1963 45.1907 51.061 48.3538Z" fill="#88B958"/>
</svg>
