<svg width="56" height="56" viewBox="0 0 56 56" fill="none" xmlns="http://www.w3.org/2000/svg">
<rect width="56" height="56" rx="4" fill="white"/>
<path fill-rule="evenodd" clip-rule="evenodd" d="M20.1079 14.0605C18.6294 14.2453 17.1841 14.9668 16.0798 16.0713C14.9483 17.2032 14.2592 18.6043 14.0686 20.1603C13.9771 20.9066 13.9771 35.0847 14.0686 35.831C14.2592 37.387 14.9483 38.7881 16.0798 39.92C17.2265 41.0671 18.6485 41.7593 20.2172 41.9343C21.0026 42.0219 34.9979 42.0219 35.7834 41.9343C37.3594 41.7585 38.7714 41.0713 39.9207 39.9205C41.0678 38.772 41.7594 37.3502 41.9343 35.7813C42.0219 34.9956 42.0219 20.9958 41.9343 20.21C41.7594 18.6412 41.0678 17.2194 39.9207 16.0708C38.7864 14.9352 37.3961 14.251 35.833 14.0594C35.1814 13.9795 20.7479 13.9805 20.1079 14.0605ZM35.2374 17.8769C34.4592 17.9812 33.7184 18.5316 33.3508 19.2784C33.161 19.6642 33.1526 19.7101 33.1526 20.3689C33.1526 21.0276 33.161 21.0736 33.3508 21.4593C33.603 21.9717 34.0223 22.3911 34.5345 22.6434C34.9201 22.8333 34.966 22.8416 35.6246 22.8416C36.2831 22.8416 36.329 22.8333 36.7147 22.6434C37.2254 22.3918 37.646 21.9719 37.896 21.4641C38.0644 21.1218 38.0951 20.9895 38.1157 20.5176C38.1457 19.8327 38.0408 19.4402 37.691 18.9289C37.1526 18.142 36.2256 17.7445 35.2374 17.8769ZM27.077 20.4337C24.3112 20.7613 21.8087 22.7405 20.8567 25.3532C19.4422 29.2353 21.3506 33.52 25.1829 35.0663C27.926 36.1732 31.119 35.5476 33.2592 33.484C34.3984 32.3857 35.1228 31.0845 35.4524 29.5449C35.642 28.6597 35.6407 27.2692 35.4496 26.4167C35.104 24.8746 34.3867 23.5945 33.2592 22.5073C31.6169 20.9238 29.3523 20.1642 27.077 20.4337ZM26.792 23.0536C25.3007 23.4203 24.0276 24.4746 23.3781 25.8808C22.7796 27.1767 22.7814 28.8185 23.3827 30.1203C23.888 31.2143 24.7862 32.111 25.8861 32.6194C27.1773 33.2161 28.8232 33.2161 30.1144 32.6194C31.5337 31.9633 32.5813 30.6886 32.9437 29.1765C33.1056 28.5009 33.1056 27.4904 32.9437 26.8148C32.5813 25.3027 31.5337 24.028 30.1144 23.372C29.1542 22.9283 27.8214 22.8005 26.792 23.0536Z" fill="#88B958"/>
</svg>
