<svg width="94" height="82" viewBox="0 0 94 82" fill="none" xmlns="http://www.w3.org/2000/svg">
<path fill-rule="evenodd" clip-rule="evenodd" d="M67.4308 0.122446C66.9962 0.250777 64.5235 2.59555 59.9954 7.17319C52.9463 14.2995 52.7778 14.5159 53.5135 15.4937C53.6726 15.705 54.0868 15.8769 54.4372 15.8769C54.9808 15.8769 55.9955 14.944 61.4645 9.41657C64.9801 5.86338 67.9562 2.95623 68.0784 2.95623C68.2006 2.95623 73.4536 8.15494 79.7514 14.5088L91.2019 26.0612L70.5237 46.92C59.1507 58.3923 49.7463 67.7786 49.625 67.7786C49.3547 67.7786 44.9618 63.359 44.9618 63.0871C44.9618 62.5751 46.1027 61.4277 46.612 61.4277C46.9102 61.4277 47.4486 61.2742 47.8083 61.0865C48.7108 60.6159 50.314 60.6207 51.6305 61.0984C53.1188 61.6382 53.5899 61.4163 55.7949 59.1375C57.6558 57.2141 57.9222 56.5766 57.1561 55.8773C56.3698 55.1595 55.7068 55.415 54.0795 57.0632C52.5898 58.5718 52.5325 58.6058 51.8497 58.3809C51.4644 58.2541 50.6116 58.069 49.9549 57.9696L48.7609 57.7889L55.0362 51.405C60.3093 46.0405 61.4671 44.9675 62.286 44.6861C66.5486 43.221 69.3286 38.4846 68.6233 33.8892C68.055 30.1867 65.5634 27.2009 61.9859 25.9362C60.9352 25.5648 60.3017 25.4956 58.5103 25.5562C56.4977 25.6246 56.1879 25.6964 54.6982 26.439C52.0351 27.7668 50.1386 30.0715 49.4205 32.8523C49.0453 34.3055 48.9848 36.4359 49.2885 37.5041C49.4823 38.1854 49.4493 38.2426 48.4744 38.9103C47.9156 39.2931 45.8953 41.1517 43.9849 43.0405C42.0745 44.9294 40.2768 46.5326 39.9898 46.6034C39.3492 46.761 38.4215 46.3009 37.8169 45.5255C37.4218 45.0187 37.3636 44.6453 37.3636 42.6187V40.2935L51.3233 26.2128C64.3318 13.0915 65.3192 12.1457 65.8141 12.3323C67.2137 12.8594 69.1506 12.8281 70.6333 12.2541C70.8806 12.1584 72.5331 13.6817 76.4464 17.6135C81.6347 22.8265 81.9043 23.1374 81.7287 23.7075C81.4927 24.4737 81.4879 27.6332 81.7217 28.3852C81.8891 28.9233 81.2135 29.6512 70.7035 40.2582C62.2931 48.7462 59.507 51.6858 59.507 52.0712C59.507 52.8795 60.0117 53.3979 60.7987 53.3979C61.4363 53.3979 62.561 52.3274 73.0949 41.6957C85.7826 28.8902 85.1292 29.6935 84.3639 27.8458C84.1848 27.4135 84.0383 26.6098 84.0383 26.0601C84.0383 25.5105 84.1848 24.7068 84.3639 24.2745C85.1027 22.491 85.2497 22.7023 78.5719 15.9507C75.2072 12.5488 72.1693 9.64651 71.8208 9.50088C71.2957 9.28145 71.0054 9.30203 70.1258 9.62111C68.825 10.093 67.1362 10.1049 66.2611 9.64826C64.7447 8.85726 65.4455 8.25261 51.0421 22.7752C43.6955 30.1827 37.6124 36.2434 37.5241 36.2434C37.4359 36.2434 37.3654 35.6766 37.3676 34.9842L37.3717 33.7249L44.1994 26.856C47.9547 23.0781 51.0871 19.7967 51.1602 19.5637C51.3628 18.9203 50.7148 18.1036 49.9024 17.9784C48.6481 17.785 41.2917 17.1543 40.2909 17.1543C37.9728 17.1543 37.7516 17.2995 27.3711 25.6252C21.2374 30.5445 20.9398 30.9542 19.1449 36.9464C17.9287 41.0063 16.0409 46.5201 15.0362 48.9462C14.4182 50.4388 14.0882 50.8591 11.4444 53.5205L8.53325 56.4513L7.91475 56.0151C7.10826 55.4459 6.31522 55.2639 5.42471 55.4435C4.50272 55.6296 0.905302 59.0895 0.355843 60.319C-0.470407 62.1673 -0.701826 61.8675 9.53339 72.2132C16.0739 78.8242 19.0079 81.6457 19.5185 81.8159C20.9565 82.2946 21.6527 81.942 24.0351 79.5296C26.666 76.8653 26.8816 76.3091 25.9883 74.4881L25.4379 73.3664L26.2449 72.5248C27.3737 71.3475 28.1058 71.014 33.8029 69.0807C38.8731 67.3603 40.1439 66.8163 41.9143 65.6081L42.883 64.9472L45.7458 67.7865L48.6085 70.6255H49.659H50.7096L72.0557 49.1093C83.7962 37.2753 93.5506 27.3102 93.7325 26.9644C94.4576 25.5847 94.6391 25.7984 81.4829 12.5344C74.7045 5.70067 69.0464 0.109307 68.9094 0.109307C68.7724 0.109307 68.5302 0.0690115 68.3713 0.0197378C68.2121 -0.0295359 67.789 0.0166718 67.4308 0.122446ZM38.6662 20.1948C38.2483 20.4206 36.3922 21.8163 34.5415 23.2964C32.6908 24.7764 29.7218 27.1326 27.9436 28.5324C23.5236 32.0115 23.2221 32.4578 21.6189 37.8858C20.4238 41.9318 18.4461 47.6094 17.3029 50.2761C16.5637 52.0003 16.311 52.3239 13.4256 55.2422L10.339 58.3642L16.9006 64.9831L23.462 71.6022L24.4971 70.6001C25.0663 70.0489 25.8448 69.3825 26.2269 69.1193C26.6087 68.8558 29.3929 67.7974 32.414 66.767C40.3452 64.062 40.9865 63.6409 44.9864 58.512C46.3191 56.8035 48.6828 54.1059 50.2393 52.5175L53.0696 49.6296L52.2624 48.7285C50.3359 46.5775 50.6064 44.7964 53.2476 42.2412C56.0216 39.5572 57.8658 39.2055 61.2695 40.7115C61.7673 40.9318 61.9529 40.0576 61.568 39.3067C60.4385 37.1034 54.45 38.0455 49.9549 41.1337C49.4176 41.5028 47.3661 43.394 45.396 45.3363C42.1989 48.4882 41.7 48.8964 40.7529 49.136C38.6317 49.6728 36.289 48.485 35.1925 46.3169C34.7878 45.5165 34.7585 45.0257 34.7585 39.0531V32.6477L40.8547 26.4843L46.9506 20.321L45.5764 20.1867C44.8205 20.1129 43.1274 19.9922 41.814 19.9184C39.7321 19.8013 39.3285 19.8368 38.6662 20.1948ZM56.9019 28.3348C54.95 28.9736 53.0993 30.6373 52.2885 32.4819C51.7837 33.6303 51.4974 36.5344 51.8662 36.7644C51.9915 36.8423 52.6139 36.7171 53.2495 36.4858C56.0342 35.4725 59.0975 35.1979 61.0937 35.7826C62.4255 36.1729 63.9348 37.6123 64.2995 38.8407C64.4454 39.3314 64.6586 39.6744 64.7736 39.6025C64.8887 39.5309 65.2302 38.9182 65.5328 38.2411C66.7142 35.5963 66.1035 32.3746 64.0233 30.276C62.5905 28.8306 61.2656 28.2643 59.1813 28.2059C58.2261 28.1791 57.2004 28.2372 56.9019 28.3348ZM57.0445 42.7033C56.1138 43.0283 53.6455 45.389 53.6455 45.954C53.6455 46.15 53.934 46.632 54.2868 47.0254L54.9281 47.7406L57.2657 45.3912C58.7148 43.9349 59.5233 42.9678 59.3923 42.8469C58.9951 42.4801 57.879 42.4118 57.0445 42.7033ZM4.14604 59.7879L2.52632 61.433L11.4759 70.4608L20.4253 79.4889L22.0561 77.8549C22.9531 76.9562 23.6869 76.0693 23.6869 75.884C23.6869 75.453 6.51364 58.1428 6.08619 58.1428C5.91013 58.1428 5.03699 58.883 4.14604 59.7879Z" fill="white"/>
</svg>
