<svg width="71" height="71" viewBox="0 0 71 71" fill="none" xmlns="http://www.w3.org/2000/svg">
<path fill-rule="evenodd" clip-rule="evenodd" d="M2.70404 0.16926C1.68206 0.476682 0.942312 1.0972 0.470881 2.0427L0 2.98674V35.3643C0 60.3992 0.050916 67.9119 0.224543 68.4908C0.511907 69.4493 1.53883 70.4753 2.49818 70.7625C3.48133 71.0567 50.8162 71.0887 51.8718 70.7958C52.7828 70.5429 53.6413 69.7924 54.0515 68.8899C54.3574 68.2174 54.3882 67.5605 54.3918 61.637C54.3957 55.5562 54.3735 55.1033 54.0609 54.8206C53.6217 54.4234 52.8794 54.4349 52.5081 54.8448C52.2497 55.1301 52.2054 55.9771 52.1592 61.5049C52.1098 67.4344 52.0843 67.8626 51.7576 68.2229L51.4087 68.6079H27.1979C3.97548 68.6079 2.97474 68.5942 2.68408 68.2733C2.40441 67.9646 2.38096 65.4247 2.38096 35.4551C2.38096 4.2179 2.39378 2.95985 2.71595 2.66871C3.02401 2.3902 4.98812 2.36586 27.2298 2.36586H51.4087L51.7576 2.75105C52.0918 3.11978 52.1085 3.62282 52.1563 14.681C52.2011 25.0598 52.2363 26.2595 52.5052 26.5563C52.8909 26.9819 53.7052 26.9797 54.0927 26.5517C54.3682 26.2476 54.3955 25.1509 54.3918 14.5202C54.388 3.53956 54.3671 2.7785 54.0497 2.09138C53.6149 1.15008 53.0264 0.61795 52.0325 0.267709C51.3315 0.0206731 48.3619 -0.011167 27.2206 0.00274019C14.0121 0.0113407 2.97968 0.0863662 2.70404 0.16926ZM11.1468 7.47364C10.7257 7.81455 10.7143 7.89836 10.7143 10.6908C10.7143 13.3178 10.7442 13.5796 11.0698 13.8175C11.3704 14.0369 13.8825 14.0772 27.2961 14.0772C42.4388 14.0772 43.1808 14.0618 43.47 13.7425C43.8775 13.2925 43.8522 12.6923 43.4068 12.2473C43.0465 11.8873 42.7963 11.8813 28.0137 11.8813H12.9871L13.0411 10.6461L13.0953 9.41095L28.1005 9.3641C41.7434 9.32146 43.1359 9.28999 43.4394 9.01551C43.8778 8.61915 43.8634 7.94575 43.4068 7.48956C43.0462 7.12925 42.7963 7.12358 27.3098 7.12358C12.0907 7.12358 11.5651 7.13493 11.1468 7.47364ZM65.8428 14.677C65.4184 14.9149 64.8441 15.4911 64.4778 16.0463C63.9376 16.8652 63.7615 17.005 63.2699 17.005C62.5462 17.005 62.4294 17.1437 60.8028 19.9328C60.0691 21.1909 59.4083 22.289 59.3343 22.373C59.2603 22.457 58.9471 22.3953 58.6385 22.2357C57.5147 21.6551 56.4105 22.0678 56.4105 23.0682C56.4105 23.3551 57.0473 23.9873 57.768 24.4161C58.038 24.5765 57.8092 25.0596 55.9057 28.3503C47.411 43.0359 47.9813 41.9572 46.3279 46.4663C45.9033 47.6237 45.1962 49.2535 44.7562 50.0882C44.0925 51.3473 43.9562 51.7771 43.9562 52.6134C43.9562 53.1675 44.0839 53.8678 44.2401 54.1694L44.524 54.7178L43.2028 56.3486C41.9916 57.8436 41.5782 58.154 41.5734 57.5721C41.5685 56.974 40.6311 55.41 40.0744 55.0708C38.9972 54.4148 37.6174 54.7313 36.9049 55.7982C36.7035 56.0999 36.4921 56.3469 36.4351 56.3471C36.3782 56.3475 36.2416 55.1917 36.1311 53.7791C35.9496 51.454 35.8851 51.1508 35.4514 50.5826C35.1481 50.1853 34.6976 49.8726 34.2245 49.731C33.5474 49.5284 33.4002 49.548 32.6626 49.9388C32.2146 50.1764 31.7754 50.5065 31.6864 50.6724C31.1776 51.6223 28.5571 59.9183 28.6064 60.4228C28.6813 61.1883 29.4206 61.6439 30.0917 61.3383C30.4858 61.1588 30.7496 60.5242 32.0511 56.6234C32.878 54.1443 33.5818 52.1431 33.615 52.1763C33.6483 52.2094 33.7716 53.3057 33.889 54.6124C34.0064 55.9191 34.213 57.254 34.348 57.5788C34.6393 58.2799 35.5881 58.9082 36.3555 58.9082C37.0249 58.9082 37.9679 58.3591 38.3813 57.7289C38.5494 57.4723 38.7441 57.2626 38.8141 57.2626C38.8839 57.2626 39.204 57.8295 39.5254 58.5227C39.9828 59.5088 40.245 59.8468 40.7328 60.0781C42.0945 60.7237 43.0518 60.3185 44.4273 58.515C44.9143 57.8765 45.3606 57.3129 45.4193 57.2626C45.4779 57.2123 45.7002 56.9263 45.9132 56.6271C46.2581 56.1429 46.4099 56.0812 47.2943 56.0668C48.8801 56.041 49.5522 55.5848 50.8244 53.6707C51.4288 52.7615 52.8352 50.9125 53.9497 49.5621C56.2402 46.7867 55.9779 47.1995 61.0884 38.3232C66.3168 29.2422 66.3109 29.2517 66.5496 29.3853C67.4248 29.8752 67.949 30.4271 67.949 30.8589C67.949 31.1387 66.8871 33.1768 65.3807 35.7877C62.6554 40.512 62.5389 40.849 63.4616 41.3426C64.0168 41.6392 64.6741 41.467 65.0071 40.9376C65.1518 40.7074 66.3454 38.6663 67.6596 36.4018L70.0492 32.2846L70.0521 30.9894C70.0549 29.8455 69.9944 29.6146 69.5344 29.0118C69.2477 28.6365 68.6554 28.1069 68.2177 27.8348L67.4221 27.34L68.9677 24.6382C69.8177 23.1522 70.5131 21.7894 70.5131 21.6101C70.5131 21.4306 70.3976 21.1257 70.2564 20.9329C70.0307 20.6245 70.0512 20.4801 70.4245 19.744C71.052 18.507 71.1483 17.7232 70.8012 16.6795C70.1148 14.6141 67.6964 13.6376 65.8428 14.677ZM14.59 16.9724C14.1887 17.4154 14.2032 18.1545 14.6208 18.532C14.9253 18.8076 16.062 18.8347 27.2124 18.8321C33.9534 18.8305 39.5597 18.7688 39.6705 18.6949C39.7813 18.621 39.9753 18.3648 40.1013 18.1258C40.2971 17.7547 40.2782 17.6211 39.9716 17.2109L39.6126 16.7305L27.2534 16.6835C15.4625 16.6387 14.8803 16.652 14.59 16.9724ZM66.6272 16.9592C66.171 17.4819 65.8893 18.1322 66.0547 18.2812C66.1397 18.3577 66.5979 18.6433 67.0732 18.916L67.9373 19.4119L68.3087 18.803C68.7704 18.0466 68.7849 17.338 68.3466 16.9419C67.9082 16.5453 66.9805 16.5547 66.6272 16.9592ZM62.8541 20.985C61.4649 23.3836 61.2708 23.7518 61.3585 23.8235C61.4072 23.8634 62.3309 24.3946 63.4109 25.0044C64.7985 25.7876 65.4226 26.0518 65.5382 25.9049C66.0911 25.2018 67.7571 22.0476 67.6366 21.9316C67.3721 21.6771 63.9428 19.7498 63.7543 19.7498C63.6527 19.7498 63.2475 20.3056 62.8541 20.985ZM19.414 25.2395C18.975 25.6781 18.9391 26.3858 19.3354 26.7819C19.592 27.0381 21.0972 27.0694 33.1503 27.0694C48.0297 27.0694 47.253 27.13 47.253 25.9687C47.253 24.8318 47.7911 24.8735 33.1095 24.8735C20.0244 24.8735 19.7735 24.8803 19.414 25.2395ZM59.0984 27.4811C58.5504 28.4122 57.1546 30.8207 55.9968 32.8336C54.8387 34.8464 53.1784 37.7249 52.3068 39.2299C51.4354 40.735 50.7585 42.0602 50.8024 42.1746C50.8881 42.398 54.3935 44.4534 54.6887 44.4534C54.7863 44.4534 54.9951 44.2268 55.1524 43.9502C55.3098 43.6735 57.3869 40.0708 59.7682 35.9444C62.1497 31.818 64.1104 28.3595 64.1256 28.2588C64.1474 28.1124 60.4213 25.7885 60.1646 25.7885C60.1263 25.7885 59.6466 26.5501 59.0984 27.4811ZM8.72806 32.3448C8.34527 32.7675 8.33758 33.5436 8.71268 33.9185C8.96872 34.1741 10.3649 34.206 21.3217 34.206C33.0258 34.206 33.6582 34.1891 33.9461 33.8713C34.3465 33.4294 34.3313 32.6901 33.9143 32.313C33.6097 32.0376 32.4694 32.0101 21.3052 32.0101C9.64693 32.0101 9.01597 32.0269 8.72806 32.3448ZM37.1165 32.3448C36.7161 32.7867 36.7313 33.526 37.1483 33.9031C37.4412 34.1679 38.0586 34.206 42.065 34.206C46.2711 34.206 46.6716 34.1785 46.9498 33.8713C47.3502 33.4294 47.335 32.6901 46.918 32.313C46.6251 32.0482 46.0077 32.0101 42.0013 32.0101C37.7952 32.0101 37.3947 32.0376 37.1165 32.3448ZM8.82202 38.1576C8.49454 38.3867 8.41689 38.5922 8.46066 39.1141C8.55498 40.2371 8.65663 40.2527 15.6072 40.2C21.0779 40.1584 21.8169 40.1185 22.0862 39.8492C22.5221 39.4135 22.4695 38.5926 21.9807 38.197C21.6036 37.8919 21.0831 37.8658 15.4052 37.8658C10.0574 37.8658 9.18374 37.9046 8.82202 38.1576ZM25.5496 38.0844C24.7492 38.5379 24.6856 39.3108 25.4023 39.8743C25.8798 40.2494 26.0459 40.2605 30.3639 40.2077C34.8078 40.1535 34.8335 40.1507 35.1815 39.7211C35.6437 39.1503 35.6227 38.8554 35.0817 38.315L34.6322 37.8658L30.2739 37.8713C27.3723 37.8751 25.7935 37.9463 25.5496 38.0844ZM49.4793 44.6629C49.3912 44.8999 49.0176 45.9023 48.6493 46.8904C48.2808 47.8786 48.0237 48.7587 48.0779 48.8464C48.2306 49.0934 50.1684 50.1626 50.3401 50.0949C50.5713 50.0036 53.2969 46.7082 53.2969 46.5201C53.2969 46.4298 52.6581 45.9958 51.8775 45.5553C51.0969 45.1149 50.2738 44.6369 50.0488 44.4933C49.6722 44.2528 49.6268 44.2664 49.4793 44.6629ZM11.8784 46.6414C7.17018 48.1207 4.22676 52.7867 4.91852 57.6745C5.36907 60.8574 7.53959 63.7953 10.4836 65.2071C16.0367 67.87 22.6829 64.8755 24.4333 58.922C24.8448 57.5221 24.8236 55.7612 24.3904 55.3696C23.6607 54.7097 22.5276 55.2991 22.5276 56.3387C22.5276 58.7238 21.0596 61.3286 18.966 62.6588C17.4548 63.6191 16.3319 63.9033 14.3856 63.8182C12.9382 63.7549 12.5187 63.6592 11.503 63.1594C9.98136 62.411 8.58044 61.0086 7.82696 59.4792C7.26304 58.3348 7.23446 58.1752 7.23446 56.1685C7.23446 54.0689 7.23739 54.0548 7.94729 52.7272C9.16121 50.4572 11.0859 49.047 13.5455 48.6255C15.579 48.2773 16.8169 48.5648 19.558 50.0225C20.1193 50.3209 20.1909 50.3222 20.621 50.0406C22.0574 49.1002 20.8713 47.6798 17.8492 46.721C16.1226 46.1731 13.4808 46.138 11.8784 46.6414ZM46.5528 51.7925C46.1693 52.5671 46.1931 52.9128 46.6682 53.4656C46.9476 53.7906 47.7359 53.8909 48.0859 53.6458C48.3015 53.4949 49.0845 52.4092 49.0845 52.2613C49.0845 52.1618 47.189 51.041 47.0209 51.041C46.9682 51.041 46.7575 51.3792 46.5528 51.7925ZM16.7404 55.0697L14.5748 57.2683L13.2856 56.0049C11.7543 54.5044 11.3618 54.2718 10.7513 54.5037C10.2823 54.6819 10.0733 55.0356 10.0733 55.6518C10.0733 56.073 12.6334 58.799 13.4067 59.2012C13.6788 59.3427 14.249 59.4585 14.6741 59.4585C15.4217 59.4585 15.5299 59.3763 17.9799 56.9508C20.0012 54.9496 20.5129 54.3425 20.5129 53.9447C20.5129 53.3026 20.0741 52.8709 19.4215 52.8709C19.0048 52.8709 18.4904 53.2929 16.7404 55.0697Z" fill="#88B958"/>
</svg>
