<svg width="86" height="86" viewBox="0 0 86 86" fill="none" xmlns="http://www.w3.org/2000/svg">
<path fill-rule="evenodd" clip-rule="evenodd" d="M41.6958 0.139617C40.7849 0.416016 39.8288 1.26463 39.377 2.1975C38.96 3.05852 38.9562 3.21503 38.9562 19.1285C38.9562 34.3326 38.9376 35.1846 38.6059 35.0842C35.7034 34.2041 24.2542 33.9301 17.236 34.5728C16.135 34.6737 15.0314 34.8132 14.7837 34.883C14.3405 35.0079 14.3333 34.9811 14.3333 33.2004V31.3907L18.287 31.3257C21.7528 31.2686 22.3186 31.2134 22.8725 30.8783C23.625 30.423 24.3424 29.2293 24.3432 28.4314C24.344 27.5756 22.3554 18.5531 21.9991 17.7969C21.8295 17.4371 21.4091 16.9417 21.065 16.6961C20.4949 16.2896 20.1663 16.244 17.3862 16.1858L14.3333 16.1215V15.5729C14.3333 14.8958 13.6697 14.1483 13.0689 14.1483C12.3529 14.1483 11.7623 14.6865 11.6933 15.4018L11.6308 16.0497L8.62801 16.1497C5.1746 16.2648 4.44612 16.5324 3.86898 17.8976C3.30586 19.2292 1.47676 28.158 1.61549 28.8973C1.78645 29.8086 2.79499 30.9062 3.68982 31.1545C4.09379 31.2666 6.06803 31.3589 8.0775 31.3595L11.7309 31.3607V33.6643C11.7309 35.7727 11.6947 35.9974 11.3043 36.3162C8.76854 38.3867 7.71556 39.623 6.85516 41.5398C6.00617 43.431 5.67386 45.3572 5.83141 47.4723C5.90528 48.463 5.96113 49.3632 5.95573 49.4731C5.95032 49.5828 5.62462 49.7393 5.23205 49.8208C3.37973 50.2056 1.45033 51.8222 0.557704 53.7376C-0.152557 55.2615 -0.190192 57.9532 0.478029 59.4327C1.04195 60.6816 2.57538 62.3018 3.76249 62.9032L4.71037 63.3833L4.76742 70.7706L4.82447 78.1578L5.43524 78.9265C5.77115 79.3494 6.4694 79.9076 6.98668 80.167L7.92736 80.6385L7.92776 82.1684C7.92796 83.9709 8.2953 84.8692 9.30824 85.5457C9.9066 85.9454 10.2391 86 12.0708 86C15.2155 86 15.7028 85.6341 16.528 82.6536L17.0697 80.6962L26.3053 80.6441L35.5407 80.5921L35.8619 81.7449C36.6965 84.7399 36.9414 85.1822 38.0922 85.7748C38.4087 85.9378 44.9724 86 61.8643 86C84.9324 86 85.2039 85.9954 85.5996 85.5997C85.9974 85.202 86 84.9326 86 44.1012V3.00328L85.5342 2.12104C85.2781 1.63589 84.6848 0.968814 84.2157 0.638576L83.3631 0.0381439L62.8112 0.00351894C51.5077 -0.0156949 42.0057 0.0457493 41.6958 0.139617ZM42.0501 3.0313C41.5705 3.51064 41.5587 3.59731 41.5587 6.63389V9.74513H62.4781H83.3976V6.63389C83.3976 3.59731 83.3858 3.51064 82.9061 3.0313L82.4149 2.53994H62.4781H42.5414L42.0501 3.0313ZM41.5725 24.4057L41.5863 36.4644L42.749 37.401C44.1579 38.5362 45.6276 40.6834 46.3307 42.6336C46.8007 43.9367 46.8468 44.3308 46.828 46.8863L46.8073 49.7027L47.7362 49.9463C49.051 50.2909 50.6181 51.4285 51.4478 52.6404C53.8112 56.0921 52.7018 60.749 49.0212 62.8257L47.9646 63.422L47.9602 70.4578C47.9562 76.8969 47.924 77.5637 47.5817 78.3177C47.1761 79.2105 46.2036 80.0629 45.1856 80.4178L44.5442 80.6413L44.6029 81.9697L44.6615 83.2981L52.8191 83.3503L60.9767 83.4025V47.8748V12.347H51.2677H41.5587L41.5725 24.4057ZM63.7793 38.3657V64.3844H73.5884H83.3976V38.3657V12.347H73.5884H63.7793V38.3657ZM6.1427 19.4995C5.76675 20.9148 4.32401 27.8015 4.32401 28.1804C4.32401 28.5455 4.62729 28.5587 13.0411 28.5587H21.7584L21.6345 27.9082C21.5665 27.5505 21.0894 25.3664 20.5745 23.0547L19.6383 18.8517L12.9905 18.799L6.34269 18.7462L6.1427 19.4995ZM54.9711 26.3571C54.5886 26.7396 54.5708 27.0242 54.5708 32.7617C54.5708 38.4992 54.5886 38.7838 54.9711 39.1663C55.1913 39.3865 55.5967 39.5666 55.872 39.5666C56.1472 39.5666 56.5526 39.3865 56.7728 39.1663C57.1554 38.7838 57.1732 38.4992 57.1732 32.7617C57.1732 27.0242 57.1554 26.7396 56.7728 26.3571C56.5526 26.1369 56.1472 25.9568 55.872 25.9568C55.5967 25.9568 55.1913 26.1369 54.9711 26.3571ZM68.2281 26.2684C67.7849 26.5786 67.7831 26.6035 67.7831 32.673C67.7831 38.4992 67.8007 38.7836 68.1834 39.1663C68.4036 39.3865 68.809 39.5666 69.0843 39.5666C69.3595 39.5666 69.7649 39.3865 69.9851 39.1663C70.3677 38.7838 70.3855 38.4992 70.3855 32.7617C70.3855 27.0242 70.3677 26.7396 69.9851 26.3571C69.5051 25.8771 68.8348 25.8433 68.2281 26.2684ZM17.6878 37.1643C15.4033 37.3826 13.6048 37.9973 12.1811 39.0464C10.7954 40.0673 10.1136 40.9294 9.27501 42.7201C8.74392 43.8539 8.63141 44.358 8.57156 45.8711C8.53252 46.8618 8.57436 48.1604 8.66465 48.7566C8.82419 49.8094 8.85382 49.8492 9.68279 50.1254C10.1522 50.2819 11.0361 50.8665 11.6468 51.4245C13.4605 53.0819 14.1331 54.8848 14.1331 58.0897V59.7811H26.3199H38.5064L38.6007 57.4294C38.7034 54.8718 38.9768 53.9101 40.0234 52.4278C40.677 51.5024 42.3354 50.2719 43.212 50.0619C43.5159 49.9893 43.8149 49.8482 43.8766 49.7483C44.1353 49.3298 44.307 46.201 44.1368 45.0009C43.6228 41.3717 40.5515 38.1454 36.8543 37.3512C35.6067 37.083 20.1171 36.9321 17.6878 37.1643ZM5.9243 52.3626C4.07317 52.9256 2.90729 54.252 2.60561 56.1383C2.31354 57.9644 3.81533 60.3249 5.56476 60.7893C6.0384 60.9149 6.62875 61.2056 6.87638 61.4351L7.3268 61.8524V69.5085V77.1646L7.85429 77.5793C8.37898 77.992 8.47467 77.9942 26.3805 77.9942H44.3795L44.8707 77.5029L45.3622 77.0117V69.4841C45.3622 64.8966 45.4397 61.8118 45.5604 61.586C45.6695 61.3823 46.2182 61.0631 46.7799 60.8765C50.5774 59.6154 51.2168 54.9473 47.8749 52.8814C45.9215 51.6739 43.2957 52.2739 42.0047 54.2227L41.4586 55.0469L41.3567 61.1667C41.244 67.927 41.2185 68.0681 39.9728 68.8427L39.2565 69.288H26.4446C12.4241 69.288 12.7336 69.313 11.8758 68.1107C11.445 67.5069 11.4274 67.2899 11.3305 61.3823C11.2326 55.4062 11.2204 55.2605 10.7532 54.4451C9.78189 52.7501 7.65951 51.835 5.9243 52.3626ZM6.72624 55.5337C5.64364 55.8823 5.3884 57.0854 6.2528 57.7651C6.54287 57.9932 6.891 58.18 7.02652 58.18C7.54901 58.18 8.32773 57.3514 8.32773 56.7954C8.32773 56.01 7.4337 55.3057 6.72624 55.5337ZM45.2251 55.5931C44.3014 55.9364 44.12 56.9563 44.8527 57.6886C45.4483 58.2843 46.0278 58.3151 46.5633 57.7797C47.5478 56.7954 46.5181 55.1126 45.2251 55.5931ZM14.1331 64.4845V66.586H26.3445H38.5559V64.4845V62.383H26.3445H14.1331V64.4845ZM63.7793 75.2923V83.3981H73.097H82.4149L82.9061 82.9068L83.3976 82.4156V74.8009V67.1865H73.5884H63.7793V75.2923ZM69.0752 71.6807C68.805 71.9509 68.5838 72.2719 68.5838 72.3942C68.5838 72.7026 68.9984 73.4606 69.2644 73.6381C69.3855 73.719 71.3488 73.7864 73.6271 73.7882C77.6827 73.7912 77.7761 73.7818 78.0812 73.3463C78.5164 72.7251 78.4696 72.077 77.9547 71.5974C77.5443 71.2152 77.2653 71.1893 73.5416 71.1893C69.5881 71.1893 69.5639 71.1919 69.0752 71.6807ZM10.73 82.0059V83.4157L12.1599 83.3569L13.5898 83.2981L13.8365 82.4607C13.9722 81.9999 14.1411 81.3921 14.212 81.1097L14.3409 80.5961H12.5354H10.73V82.0059ZM38.3585 80.7462C38.3599 80.8289 38.5226 81.4367 38.72 82.0972L39.0789 83.2981L40.5189 83.3569L41.959 83.4157V82.0059V80.5961H40.1573C39.1664 80.5961 38.3569 80.6636 38.3585 80.7462Z" fill="white"/>
</svg>
