<svg width="66" height="81" viewBox="0 0 66 81" fill="none" xmlns="http://www.w3.org/2000/svg">
<path fill-rule="evenodd" clip-rule="evenodd" d="M31.3375 0.0742407C29.9276 0.260037 21.9087 2.37431 20.978 2.80565C18.202 4.09226 16.161 6.42464 15.0824 9.54312C14.6513 10.7892 14.6389 10.9384 14.5882 15.4496L14.5361 20.0776L14.0843 21.0033C13.6552 21.8819 13.6322 22.0527 13.6322 24.373C13.6322 26.6589 13.6597 26.8713 14.0548 27.6547C14.5466 28.6295 15.7299 29.5315 16.7286 29.6933C17.2952 29.785 17.3728 29.8532 17.3728 30.2594C17.3728 30.9999 18.1267 33.7889 18.6238 34.8875C19.653 37.1617 21.5469 39.4547 23.6654 40.9913L24.7212 41.7573L24.6601 42.9839C24.5537 45.1187 24.0689 45.4732 20.1957 46.2482C15.6947 47.1489 13.2239 48.0944 10.3322 50.0222C5.26554 53.4 1.76438 58.6497 0.391179 64.9279C0.0387356 66.5394 0.00448865 67.1035 0.00232745 71.3312L0 75.9675L0.620932 77.2398C1.36871 78.7721 2.33095 79.726 3.87688 80.4673L4.98741 81H33H61.0126L62.1231 80.4673C63.6689 79.726 64.6313 78.7721 65.3791 77.24L66 75.9678L65.9962 71.4157C65.993 67.731 65.9358 66.5787 65.6959 65.3699C64.4064 58.87 60.7105 53.2834 55.4362 49.8609C52.6229 48.0356 50.1214 47.1002 45.7393 46.2352C43.902 45.8725 42.7554 45.5604 42.4144 45.33C41.6684 44.8259 41.3128 43.9998 41.3127 42.77L41.3123 41.733L42.3514 40.9792C44.4534 39.4543 46.35 37.1551 47.3762 34.8875C47.8733 33.7889 48.6272 30.9999 48.6272 30.2594C48.6272 29.8532 48.7048 29.785 49.2714 29.6933C50.2701 29.5315 51.4534 28.6295 51.9452 27.6547C52.3407 26.871 52.3678 26.6594 52.3678 24.3656C52.3678 22.0196 52.3481 21.8757 51.9106 21.0224C51.487 20.1963 51.4534 19.9839 51.4534 18.1333C51.4534 16.2952 51.4243 16.1084 51.0895 15.7927C50.5761 15.3085 49.8917 15.3509 49.4706 15.893C49.1843 16.2614 49.1259 16.5748 49.1259 17.7442C49.1259 18.5186 49.0842 19.152 49.0332 19.152C48.982 19.152 48.0656 18.9316 46.9967 18.6621C38.0015 16.3954 28.332 16.3918 19.064 18.6522C17.937 18.9272 16.9763 19.152 16.9294 19.152C16.8824 19.152 16.8734 17.3156 16.9095 15.0709C16.9703 11.2808 17.0027 10.9177 17.3638 9.98001C18.196 7.81828 19.8125 6.00172 21.7537 5.04665C22.3554 4.75079 24.4857 4.10993 26.932 3.48909C30.8295 2.50003 31.2072 2.43439 33 2.43439C34.7928 2.43439 35.1705 2.50003 39.068 3.48909C43.6466 4.65099 44.7834 5.11195 46.1817 6.37365C47.3941 7.46756 48.1727 8.6924 48.7489 10.4125C49.1364 11.5689 49.3015 11.856 49.65 11.9802C50.2518 12.1944 50.8552 11.997 51.1179 11.5002C51.6645 10.4664 50.0651 6.9551 48.2023 5.09949C46.0898 2.99515 45.1014 2.56011 39.0464 1.0697C35.2177 0.127253 33.0547 -0.151946 31.3375 0.0742407ZM27.4051 6.85009C26.9332 7.07021 26.5779 7.40832 26.283 7.91774C25.8924 8.59226 25.8517 8.83006 25.854 10.4156C25.8574 12.4851 26.1724 13.2585 27.2678 13.8866C27.9143 14.2572 28.0455 14.266 33 14.266C37.9545 14.266 38.0857 14.2572 38.7322 13.8866C39.8263 13.2594 40.1426 12.4844 40.146 10.4236C40.1491 8.40882 39.8499 7.62979 38.825 6.98455C38.2569 6.62676 38.0637 6.61262 33.1662 6.57105C28.4699 6.531 28.0447 6.5517 27.4051 6.85009ZM28.25 9.1096C28.2023 9.23548 28.1855 9.89923 28.2126 10.5849L28.262 11.8312H33H37.738V10.4007V8.97025L33.0374 8.92548C29.1983 8.88897 28.3208 8.92279 28.25 9.1096ZM28.6776 19.4228C23.8456 19.9945 21.1544 20.4602 18.8921 21.1162L18.0009 21.3745L18.809 22.218C19.2569 22.6854 20.0618 23.2777 20.6146 23.5469C21.7818 24.1148 22.6575 24.1621 25.146 23.791C29.8475 23.0899 35.1526 23.0366 39.6499 23.6448C40.8843 23.8117 42.5301 23.9484 43.3073 23.9484C45.0265 23.9484 45.8386 23.5903 47.1365 22.2599L47.9998 21.3749L47.1082 21.1157C45.729 20.715 42.2639 20.0238 40.1486 19.7274C38.3309 19.473 30.102 19.2543 28.6776 19.4228ZM15.8791 24.4954C15.8824 26.7729 16.176 27.2348 17.7821 27.4905C18.7187 27.6396 19.482 28.495 19.6156 29.5453C20.2539 34.5598 22.7131 38.1027 27.059 40.2684C29.1487 41.3098 30.7783 41.7034 33 41.7034C35.0852 41.7034 36.7851 41.3224 38.6145 40.4451C43.0488 38.3183 45.6344 34.8397 46.2972 30.109C46.4036 29.3496 46.6066 28.6808 46.8253 28.3702C47.2075 27.8267 48.0319 27.3984 48.6957 27.3984C48.9221 27.3984 49.3173 27.2158 49.5738 26.9927C50.025 26.6002 50.0421 26.5253 50.0965 24.7207C50.1276 23.6943 50.0997 22.8545 50.0346 22.8545C49.9696 22.8545 49.4546 23.29 48.89 23.8222C47.5325 25.1022 46.7208 25.6502 45.5852 26.0544C44.5327 26.4289 42.7489 26.4962 41.2934 26.2165C39.6347 25.8977 35.291 25.5472 33 25.5472C30.709 25.5472 26.3653 25.8977 24.7066 26.2165C23.4219 26.4634 21.5562 26.4287 20.5957 26.1399C19.5676 25.8309 18.5723 25.1711 17.1645 23.8653C16.5653 23.3094 16.0304 22.8545 15.9758 22.8545C15.9213 22.8545 15.8777 23.5928 15.8791 24.4954ZM26.9465 43.9005C26.811 44.935 26.3388 45.9595 25.6683 46.675L25.1886 47.1867L26.3096 48.1122C29.2362 50.5275 31.16 51.2696 33.9947 51.0759C36.5522 50.901 38.3455 50.0095 41.0568 47.5654C41.1542 47.4776 40.9893 47.2313 40.6355 46.9362C39.8657 46.2938 39.2005 45.0222 39.0555 43.9158C38.9222 42.8979 39.1061 42.9282 36.9899 43.5758C35.9185 43.9038 35.3574 43.9589 33 43.9664C30.574 43.9744 30.1128 43.9298 29.0101 43.5812C26.9212 42.9208 27.078 42.8966 26.9465 43.9005ZM21.7783 48.336L20.9471 48.5217V55.7571V62.9926L33.1265 63.0356L45.3058 63.0789L45.2625 55.8066L45.2191 48.5343L44.5879 48.4015C43.9741 48.2724 43.9041 48.311 42.0536 49.7941C39.6585 51.714 38.5802 52.3712 36.9068 52.9313C35.755 53.3167 35.2872 53.3779 33.4156 53.388C31.4669 53.3986 31.1113 53.3524 29.7979 52.9165C27.9845 52.3148 27.0233 51.7325 24.7417 49.8544C23.7519 49.0395 22.8673 48.3227 22.7758 48.2615C22.6844 48.2004 22.2355 48.2339 21.7783 48.336ZM17.3728 49.2929C16.7785 49.4646 15.9743 49.7268 15.5856 49.8756L14.8791 50.1459V52.7406C14.8791 55.1109 14.8503 55.3643 14.5466 55.6718C14.0681 56.1561 13.3177 56.1075 12.8963 55.5649C12.5957 55.1782 12.5516 54.888 12.5516 53.2929C12.5516 52.2872 12.5077 51.4644 12.4541 51.4644C12.4005 51.4644 11.7944 51.8579 11.1071 52.3389C8.41874 54.2201 5.55979 57.6615 4.24345 60.6003C3.23516 62.8512 2.41058 65.9029 2.41058 67.383V67.9572H7.48111H12.5516V64.1595C12.5516 60.4409 12.6251 59.8354 13.1169 59.503C13.466 59.267 14.2159 59.3761 14.5466 59.7108C14.8389 60.0067 14.8791 60.2718 14.8791 61.8987C14.8791 62.9168 14.9424 63.7499 15.0197 63.7499C15.0972 63.7499 15.4151 63.621 15.7263 63.4636C16.0375 63.3061 16.8159 63.1358 17.4559 63.085L18.6196 62.9926L18.663 56.1028C18.687 52.3135 18.6496 49.1608 18.5799 49.0969C18.5104 49.0329 17.9671 49.1211 17.3728 49.2929ZM47.6695 56.0504L47.7128 62.9926L48.8885 63.0989C49.5351 63.1575 50.2983 63.3278 50.5843 63.4776C50.8704 63.6274 51.1837 63.7499 51.2808 63.7499C51.4029 63.7499 51.4438 61.6671 51.4137 56.9761L51.3703 50.2022L49.7909 49.6632C48.9223 49.3668 48.0799 49.1206 47.9188 49.1162C47.6432 49.1088 47.6286 49.5153 47.6695 56.0504ZM53.7809 59.7891V67.9572H58.6851H63.5894V67.3611C63.5894 65.9374 62.7387 62.8187 61.7338 60.5575C60.9823 58.867 59.1488 56.2287 57.7211 54.7835C56.5532 53.6013 54.8561 52.2034 54.0754 51.7805C53.7953 51.6287 53.7809 52.0232 53.7809 59.7891ZM16.6155 65.5942C15.9394 65.8714 15.2395 66.8879 15.1383 67.7398C14.9108 69.6545 14.8096 69.8911 13.2914 72.0574L12.7179 72.8758V75.8019V78.728H33H53.2821V75.7093V72.6907L52.5106 71.5498C51.5229 70.0895 51.3261 69.5964 51.1887 68.2393C51.0599 66.966 50.6887 66.2447 49.9171 65.7686C49.386 65.4407 49.0568 65.4343 33.1662 65.4441C24.2513 65.4497 16.8034 65.5171 16.6155 65.5942ZM2.30651 70.5602C2.25497 70.696 2.24018 71.8889 2.27343 73.2109C2.33959 75.8415 2.46411 76.2731 3.46824 77.3544C4.48966 78.4542 5.03711 78.6222 7.8422 78.6966L10.3645 78.7634L10.419 75.5061C10.4721 72.3342 10.4855 72.2252 10.9307 71.3514C11.1823 70.8578 11.3879 70.4224 11.3879 70.3837C11.3879 70.345 9.36568 70.3133 6.89409 70.3133C3.09735 70.3133 2.38564 70.3517 2.30651 70.5602ZM54.7783 70.4621C54.7783 70.5471 54.9647 71.0217 55.1923 71.5168C55.5871 72.3755 55.6064 72.5638 55.6079 75.5905L55.6096 78.764L58.1448 78.6974C60.9 78.625 61.2029 78.5402 62.3501 77.5207C63.5136 76.4865 63.6719 75.9463 63.6722 73.006L63.6725 70.3975L59.2254 70.3527C56.6076 70.3263 54.7783 70.3714 54.7783 70.4621Z" fill="#88B958"/>
</svg>
