<svg width="82" height="79" viewBox="0 0 82 79" fill="none" xmlns="http://www.w3.org/2000/svg">
<path fill-rule="evenodd" clip-rule="evenodd" d="M42.9811 0.10033C41.2546 0.40384 39.7703 1.55972 38.9466 3.2418C38.5569 4.03754 38.4979 4.32941 38.4979 5.45912C38.4979 6.58882 38.5569 6.8807 38.9466 7.67644C39.5271 8.86201 40.5625 9.88549 41.6626 10.3612L42.5376 10.7395L42.5402 12.8288L42.5428 14.9181L41.7415 15.1051C38.0482 15.9673 33.7083 18.0273 30.4125 20.4825C28.5642 21.8595 25.983 24.2975 24.8072 25.7773L24.0471 26.7339H18.0996C11.5683 26.7339 11.4732 26.7463 11.1029 27.6424C10.8397 28.2794 11.0194 29.0978 11.5067 29.4823C11.8876 29.7826 12.0994 29.795 16.8435 29.795C19.6161 29.795 21.7837 29.8545 21.7837 29.9307C21.7837 30.0054 21.4639 30.6692 21.073 31.406C20.6823 32.1427 20.0655 33.4764 19.7025 34.3697L19.0423 35.9937L10.0446 36.0703C1.20885 36.1454 1.03896 36.1526 0.615998 36.4676C-0.305645 37.1537 -0.171016 38.4937 0.872129 39.0163C1.36104 39.2613 2.11264 39.284 9.76329 39.2841C14.3596 39.2843 18.1204 39.3307 18.1204 39.3873C18.1204 39.4439 18.0173 40.0465 17.8914 40.7265C17.7653 41.4066 17.576 42.755 17.4707 43.723L17.2793 45.4832L13.3114 45.5663C11.1291 45.6119 9.32536 45.6635 9.30307 45.6811C9.28094 45.6985 9.12662 45.9365 8.96024 46.2102C8.61299 46.7813 8.57971 47.2127 8.83905 47.7833C9.1918 48.5598 9.53951 48.6208 13.603 48.6208H17.3433L17.4197 49.1183C17.4619 49.3918 17.5727 50.2011 17.6659 50.9167C17.8398 52.249 18.2217 54.2779 18.3734 54.6743C18.4465 54.8655 17.6969 54.8961 12.9494 54.8961H7.4404L6.9747 55.317C6.02833 56.1724 6.33895 57.6119 7.54206 57.947C7.90122 58.0469 10.2821 58.1089 13.7875 58.1094L19.4526 58.1103L19.7229 58.8373C19.8716 59.2372 20.3709 60.3112 20.8325 61.2241C24.3841 68.247 30.5857 73.919 37.7398 76.6876C42.4821 78.5227 47.0292 79.2496 51.7394 78.9251C56.3255 78.6094 60.0762 77.5774 64.2941 75.4711C67.4574 73.8913 68.1758 73.2281 67.9619 72.0849C67.8644 71.5636 67.3046 71.0198 66.7124 70.8707C66.3302 70.7746 66.0496 70.9002 63.831 72.1617C62.1474 73.1191 59.1489 74.34 57.1963 74.8632C54.9656 75.461 52.5211 75.7584 49.7933 75.7639C45.2716 75.7731 41.8537 75.0592 37.7786 73.2545C35.6094 72.2938 34.5185 71.6695 32.6948 70.3449C30.5738 68.8046 29.591 67.9222 27.9322 66.0692C23.1012 60.6721 20.4844 53.7699 20.5049 46.4781C20.5206 40.8335 22.017 35.6685 25.0275 30.8664C29.8027 23.2494 37.8531 18.3271 47.0918 17.3754C52.1832 16.8509 58.4393 18.076 62.9967 20.4896C65.9806 22.0703 67.8146 23.4149 70.2236 25.7886C75.0186 30.5136 77.9583 36.6843 78.7098 43.6023C79.3788 49.7602 78.0267 55.8728 74.7135 61.6702C74.0521 62.8273 73.9598 63.0892 74.0382 63.5834C74.2185 64.7188 75.5703 65.2488 76.4721 64.5376C76.8641 64.2284 77.799 62.7017 78.717 60.8722C79.943 58.4283 81.1012 54.7979 81.6338 51.7299C82.0451 49.3599 82.1266 44.5179 81.793 42.269C80.4317 33.0923 75.6298 25.2076 68.1864 19.9272C66.6353 18.8269 64.0271 17.3996 62.0564 16.573C60.5521 15.9419 57.4267 14.9486 56.9455 14.9486C56.7811 14.9486 56.7384 14.513 56.7384 12.8361V10.7235L57.5089 10.4457C58.6113 10.0482 59.7956 8.90731 60.3352 7.72296C60.7071 6.90718 60.7747 6.56097 60.7786 5.4559C60.7829 4.28625 60.7318 4.04657 60.2826 3.13175C59.6729 1.88986 58.598 0.870966 57.3798 0.380269C56.525 0.0360469 56.3944 0.0291593 50.0985 0.00283369C46.5725 -0.0118597 43.3697 0.0320673 42.9811 0.10033ZM42.8982 3.4599C42.1278 3.81055 41.7665 4.32436 41.6668 5.2101C41.5635 6.13027 41.9539 6.89983 42.7669 7.37752L43.4092 7.75495H49.6208C56.4743 7.75495 56.5504 7.74546 57.2117 6.81565C57.7026 6.12568 57.7278 4.76822 57.2618 4.13105C56.5566 3.16726 56.5268 3.16343 49.7169 3.16695C43.9798 3.16971 43.4892 3.19083 42.8982 3.4599ZM45.8501 10.9182C45.7941 10.9742 45.7483 11.7491 45.7483 12.64V14.2598H49.6406H53.533V12.5379V10.8161H49.7424C47.6575 10.8161 45.906 10.862 45.8501 10.9182ZM45.8246 21.9166C41.866 22.5585 38.012 24.2146 34.76 26.6708C31.3137 29.274 28.7565 32.5019 26.9756 36.4971C25.6217 39.5348 25.0292 42.1 24.882 45.5617C24.6975 49.9041 25.4836 53.5708 27.4684 57.625C28.7209 60.1833 29.9011 61.8089 32.1633 64.0916C36.2859 68.2515 41.1614 70.6201 46.9694 71.285C49.0122 71.5189 52.5084 71.3767 54.4775 70.9797C63.9568 69.0682 71.4154 61.9645 73.7461 52.6283C74.3105 50.3669 74.4862 48.9067 74.4861 46.4781C74.4858 40.3783 72.3343 34.6894 68.2763 30.0582C64.81 26.1025 59.9455 23.2691 54.6778 22.1379C52.6571 21.704 47.8732 21.5843 45.8246 21.9166ZM47.7059 24.8993C42.5369 25.3825 38.1189 27.4851 34.3732 31.2441C30.1483 35.4842 28.042 40.5641 28.042 46.5133C28.042 52.4732 30.1748 57.6485 34.3712 61.8715C40.553 68.0923 49.5509 69.9775 57.679 66.7547C60.2603 65.7312 61.9697 64.6367 64.7259 62.2428C66.0447 61.0975 68.2618 58.0157 69.1858 56.044C71.6457 50.7944 72.0351 45.2178 70.3138 39.8918C67.7861 32.0706 60.9788 26.243 52.9987 25.0685C51.387 24.8312 49.1864 24.761 47.7059 24.8993ZM48.6152 28.2497C48.1295 28.6849 48.1189 28.7214 48.1167 29.9984C48.1147 31.0852 48.1675 31.3747 48.4342 31.735C49.0821 32.6107 50.5436 32.5445 51.0216 31.6177C51.2926 31.0921 51.3175 29.2074 51.0609 28.6428C50.6532 27.7454 49.4023 27.5443 48.6152 28.2497ZM60.4018 33.7903C60.1919 33.8727 58.1932 35.7686 55.9602 38.0037L51.9003 42.0673L51.1849 41.8238C50.2864 41.518 49.0334 41.5117 48.1933 41.8089L47.5472 42.0374L46.4022 41.01C45.7726 40.4449 44.9845 39.6717 44.6508 39.2916C43.8673 38.399 43.3459 38.0623 42.7454 38.0611C41.7282 38.0589 40.88 39.3504 41.3243 40.225C41.425 40.4232 42.3291 41.4177 43.3334 42.4351L45.1591 44.2848L44.904 45.2666C44.31 47.5531 45.4003 49.9288 47.5336 50.996C49.2172 51.8382 51.5152 51.5295 53.0114 50.2602C54.2913 49.1744 54.9295 46.7638 54.3816 45.0842L54.1218 44.2877L58.3303 40.0578C62.2284 36.1401 62.5387 35.7888 62.5387 35.2944C62.5387 34.6213 62.1849 34.1085 61.5315 33.8347C60.9473 33.59 60.916 33.5888 60.4018 33.7903ZM48.4888 45.2153C47.6001 46.0117 47.7647 47.5478 48.7961 48.0825C49.571 48.4845 50.2878 48.3851 50.877 47.7943C51.32 47.3502 51.396 47.1686 51.396 46.5546C51.396 45.9405 51.32 45.759 50.877 45.3148C50.4377 44.8743 50.2506 44.7944 49.6583 44.7944C49.1106 44.7944 48.8565 44.8858 48.4888 45.2153ZM31.5865 45.3252C30.6753 46.0939 30.8086 47.3583 31.8582 47.9033C32.2768 48.1208 32.6372 48.1667 33.5267 48.1159C34.569 48.0562 34.6959 48.0118 35.0912 47.5683C35.6557 46.9346 35.681 46.0691 35.153 45.4535C34.8092 45.0523 34.6953 45.0205 33.4262 44.9715C32.1416 44.9221 32.0415 44.9412 31.5865 45.3252ZM64.752 45.0845C64.2411 45.307 63.8908 45.8107 63.8061 46.4445C63.7373 46.9591 63.7924 47.122 64.1847 47.5621C64.6174 48.0478 64.7111 48.081 65.8086 48.1366C67.6272 48.2287 68.3391 47.7821 68.3391 46.5492C68.3391 46.0506 68.244 45.8317 67.8718 45.4743C67.4478 45.0669 67.2964 45.022 66.231 44.9885C65.5854 44.9682 64.9199 45.0113 64.752 45.0845ZM0.583638 55.2879C-0.000822212 55.7811 -0.161858 56.5191 0.173188 57.1688C0.472974 57.7501 0.836869 57.9572 1.55886 57.9572C2.28085 57.9572 2.64474 57.7501 2.94453 57.1688C3.45664 56.1758 2.67634 54.8961 1.55886 54.8961C1.23343 54.8961 0.879456 55.0383 0.583638 55.2879ZM48.6127 61.1589C48.1185 61.6016 48.1142 61.6174 48.1142 63.0081C48.1142 64.3987 48.1185 64.4145 48.6127 64.8573C49.284 65.4588 49.9952 65.4606 50.6625 64.8626C51.1138 64.4584 51.1602 64.3303 51.2163 63.3344C51.292 61.9893 51.1885 61.5537 50.6807 61.0819C50.104 60.5459 49.2618 60.5772 48.6127 61.1589ZM70.6455 67.0481C70.2132 67.2883 69.8785 67.8442 69.8708 68.3344C69.8637 68.8058 70.2573 69.5432 70.6203 69.7379C71.004 69.9439 71.9403 69.9397 72.3306 69.7303C72.7518 69.5042 73.1109 68.5902 72.992 68.0471C72.7809 67.0835 71.5358 66.5533 70.6455 67.0481Z" fill="#88B958"/>
</svg>
