<svg width="61" height="70" viewBox="0 0 61 70" fill="none" xmlns="http://www.w3.org/2000/svg">
<path fill-rule="evenodd" clip-rule="evenodd" d="M20.5583 0.698283C17.9333 2.57444 13.6608 4.8375 10.6189 5.96291C8.44218 6.7681 4.70765 7.68887 2.57644 7.94561C1.24166 8.10644 0.630032 8.26203 0.365639 8.50831C0.00433118 8.84438 0 9.02017 0 23.0868C0 38.8841 0.003429 38.9409 1.19004 42.8771C1.83397 45.0131 3.24184 48.1686 4.45065 50.1861C6.527 53.651 10.5913 58.259 14.1672 61.2025C18.6819 64.9187 23.7952 67.8228 28.5328 69.3612L30.5 70L32.4881 69.3544C41.4149 66.4556 50.6576 59.2472 55.9926 51.0236C58.2667 47.5183 59.9359 43.3702 60.6304 39.4982C60.9825 37.5364 61 36.7581 61 23.1434V8.84853L60.6049 8.48091C60.3878 8.2788 60.1216 8.11329 60.0137 8.11329C58.4219 8.11329 53.3616 7.03025 51.0036 6.18503C47.7709 5.02609 43.4383 2.79313 40.7069 0.878399L39.4538 0H30.4944H21.5352L20.5583 0.698283ZM21.2959 3.40992C16.4112 6.7919 9.57935 9.55132 3.83506 10.4625L2.52663 10.6701V23.1012C2.52663 30.6632 2.6017 36.2181 2.71847 37.2831C3.18554 41.5451 4.88 46.0238 7.52033 49.9757C12.1287 56.8731 19.8284 63.1008 27.5659 66.1889C30.2809 67.2725 30.3571 67.2828 31.9156 66.774C33.9108 66.1226 38.7774 63.6821 40.8772 62.2798C50.9025 55.5847 57.2795 46.4258 58.2815 37.2831C58.3983 36.2181 58.4734 30.6607 58.4734 23.0931V10.6538L57.7966 10.5458C51.3389 9.51634 45.9048 7.40382 40.1039 3.66739L38.6087 2.70443L30.4486 2.71362L22.2885 2.72264L21.2959 3.40992ZM23.0104 6.5101C22.6133 6.72357 21.9559 7.12635 21.5492 7.40509C20.2935 8.26636 16.0773 10.3956 13.8997 11.2685C11.9746 12.0401 7.84175 13.3418 7.31711 13.3418C7.1906 13.3418 6.87315 13.5101 6.61164 13.7156L6.13609 14.0892V25.4112C6.13609 37.8672 6.17345 38.4096 7.24709 41.5581C9.53296 48.2613 15.1549 55.0075 22.2664 59.5807C24.1457 60.7893 28.1098 62.7772 29.5365 63.2263C30.52 63.536 30.5527 63.5346 31.7355 63.1224C33.3942 62.5448 36.8252 60.8078 38.7397 59.5768C47.0967 54.2027 53.2559 45.945 54.5845 38.3335C54.8168 37.0034 54.8639 34.8229 54.8639 25.426C54.8639 14.5855 54.8498 14.1063 54.5244 13.8119C54.3376 13.6431 53.3021 13.2728 52.2234 12.989C51.1445 12.7052 49.3279 12.1261 48.1864 11.7022C45.7643 10.8024 40.9254 8.38842 38.9823 7.11048L37.6287 6.22019L30.6805 6.17115C23.8649 6.12301 23.7185 6.1295 23.0104 6.5101ZM22.9154 9.6732C19.3615 11.8833 14.4056 14.1249 10.749 15.1762C9.75459 15.4621 8.87261 15.7645 8.78905 15.848C8.70531 15.9316 8.67157 20.7365 8.71416 26.5254C8.79898 38.0533 8.79717 38.0335 9.93975 41.1975C12.5225 48.35 19.2608 55.3672 27.432 59.414C30.5522 60.9594 30.2993 60.9302 32.395 59.9864C36.4995 58.1378 39.9572 55.7814 43.286 52.5638C47.0828 48.8943 49.689 45.0433 51.1619 40.927C52.1904 38.0524 52.2023 37.9006 52.2858 26.5254C52.3284 20.7365 52.2947 15.9316 52.2109 15.848C52.1274 15.7645 51.2454 15.4621 50.251 15.1762C46.5944 14.1249 41.6385 11.8833 38.0846 9.6732L36.7357 8.83447H30.5H24.2643L22.9154 9.6732ZM24.9775 19.0689C24.4695 19.4077 24.3639 20.0806 24.3639 22.9757V25.9625H21.3946C19.5195 25.9625 18.2552 26.0399 17.964 26.1726C17.2049 26.518 17.1166 27.2404 17.1784 32.6046L17.2352 37.5337L17.6613 37.8782C18.0441 38.1876 18.4054 38.2226 21.2257 38.2226H24.3639V41.3577C24.3639 44.1761 24.3987 44.536 24.709 44.9186L25.0539 45.3443H30.5H35.9461L36.291 44.9186C36.6013 44.536 36.6361 44.1761 36.6361 41.3577V38.2226H39.7743C42.5946 38.2226 42.9559 38.1876 43.3387 37.8782L43.7648 37.5337L43.8216 32.6046C43.8834 27.2404 43.7951 26.518 43.036 26.1726C42.7448 26.0399 41.4805 25.9625 39.6054 25.9625H36.6361V22.9757C36.6361 20.0806 36.5305 19.4077 36.0225 19.0689C35.9133 18.9961 33.4282 18.9366 30.5 18.9366C27.5718 18.9366 25.0867 18.9961 24.9775 19.0689ZM27.071 24.6184C27.071 28.9008 27.3051 28.6669 23.0185 28.6669H19.8521V32.0812V35.4954L23.1112 35.5519C27.3359 35.6251 27.0614 35.3427 27.067 39.6199L27.071 42.73H30.5H33.929V39.7461C33.929 36.647 34.0806 35.8865 34.7492 35.6301C34.9099 35.5686 36.4154 35.5182 38.0947 35.5182H41.1479V32.0926V28.6669H37.9815C34.8601 28.6669 34.8086 28.6606 34.3721 28.2243C33.9353 27.7882 33.929 27.7368 33.929 24.6184V21.4551H30.5H27.071V24.6184Z" fill="#88B958"/>
</svg>
