<svg width="80" height="78" viewBox="0 0 80 78" fill="none" xmlns="http://www.w3.org/2000/svg">
<path fill-rule="evenodd" clip-rule="evenodd" d="M73.9806 0.210974C73.7259 0.321481 67.358 6.59621 59.8297 14.1548L46.1418 27.8979L45.6824 27.458C44.7899 26.6033 43.7049 26.4436 42.5621 26.999C41.695 27.4203 37.7258 31.4501 37.4796 32.159L37.3 32.6762L36.2807 32.545C33.2056 32.1491 30.0634 32.5595 27.8962 33.6397C24.7102 35.2278 22.9966 36.9576 20.9711 40.6303C18.6962 44.7553 15.9347 47.3996 11.8734 49.3422C10.3001 50.0946 9.19938 50.4543 5.04474 51.5732C3.89535 51.8827 3.24469 52.154 2.9299 52.4552C2.43614 52.9278 2.20553 53.7423 2.39098 54.359C2.4554 54.5732 4.38429 56.6423 6.67744 58.9571C11.3114 63.6346 10.9362 63.3961 12.8566 62.8824C13.4394 62.7265 13.9622 62.6452 14.0185 62.7019C14.0747 62.7584 13.9663 63.3703 13.7774 64.0615C13.5886 64.7527 13.48 65.4527 13.5363 65.6171C13.5926 65.7814 15.8137 68.1097 18.4721 70.7912L23.3055 75.6665H11.9873H0.669128L0.325123 76.1057C-0.1268 76.6824 -0.109368 77.0911 0.388544 77.5908L0.795972 78H34.5177C68.6294 78 68.7107 77.9987 69.0868 77.4333C69.3196 77.0833 69.212 76.3314 68.8818 75.9999C68.5866 75.7035 68.3284 75.6665 66.5574 75.6665C64.6092 75.6665 64.3144 75.5828 64.8088 75.1708C65.1978 74.8468 65.8765 73.5256 66.1641 72.5325C66.3517 71.8849 66.4086 71.1752 66.3595 70.1005C66.3001 68.8029 66.2089 68.4134 65.7314 67.416C65.056 66.0057 63.7009 64.5987 62.4184 63.9761L61.5168 63.5384L61.4946 61.8103C61.4684 59.7759 61.1327 58.7288 60.02 57.2112C58.67 55.3704 56.5816 54.3319 54.2295 54.3319C52.5941 54.3319 51.4316 54.6612 50.1645 55.4834C48.7063 56.4295 47.3879 58.2514 47.0605 59.7732C46.9622 60.2294 46.8464 60.3229 46.1682 60.4942C44.9963 60.7901 43.4927 61.652 42.6018 62.5382C41.7604 63.3754 40.8863 64.9995 40.7168 66.0409L40.6148 66.666L39.4324 66.668C36.3416 66.6731 33.8031 68.2407 32.4998 70.9492C32.0092 71.9685 31.9474 72.2638 31.8877 73.8747L31.8213 75.6665H30.1761H28.5311L28.6419 75.2082C29.1184 73.2362 30.2581 69.525 30.6614 68.6322C32.3916 64.8015 35.8525 61.2319 39.9939 59.0066C43.7396 56.9942 46.0558 54.1803 47.2325 50.2129C47.5858 49.022 47.6713 48.3743 47.6902 46.748C47.703 45.648 47.6532 44.3259 47.5795 43.81C47.4473 42.8838 47.4513 42.8706 47.8969 42.7583C48.4704 42.6138 52.6967 38.4677 53.1252 37.6291C53.4779 36.9394 53.5388 35.8327 53.2551 35.278C53.1526 35.0778 52.8762 34.7068 52.6408 34.4534L52.2129 33.9929L65.9018 20.2521C75.3503 10.7675 79.6608 6.33019 79.8177 5.92716C80.2547 4.80459 79.9965 4.27339 78.0396 2.26844C75.8656 0.0409637 75.1771 -0.307891 73.9806 0.210974ZM61.2449 15.9125L47.7149 29.4961L49.1675 30.9544L50.6199 32.4125L64.1902 18.7891L77.7603 5.16562L76.3548 3.7472C75.5816 2.96698 74.9098 2.32861 74.862 2.32861C74.814 2.32861 68.6865 8.44132 61.2449 15.9125ZM24.644 7.67177C22.8414 8.31115 21.2288 9.68257 20.4413 11.2458C19.6909 12.7359 19.4849 15.2357 19.9896 16.728L20.2575 17.5207L19.1709 18.5203C17.0144 20.5041 15.8849 24.2645 17.2287 24.9865C18.1601 25.4869 18.8071 24.9669 18.9685 23.5881C19.1933 21.6685 20.2765 20.1507 22.0033 19.3358C23.1331 18.8028 23.2229 18.4126 22.5514 16.9569C22.086 15.9478 21.9925 15.5508 21.9907 14.5734C21.9834 10.551 26.4726 8.22931 29.8195 10.5246C30.4856 10.9815 31.3195 12.0229 31.5986 12.7459C31.6693 12.9293 31.7864 13.5945 31.8586 14.2243C32.0182 15.6154 32.2592 15.8853 33.5679 16.1366C34.8564 16.3842 35.6252 16.7712 36.4277 17.5761C37.4651 18.617 37.8965 19.6702 37.8965 21.1631C37.8965 22.1428 37.8098 22.5934 37.496 23.2466C36.695 24.9142 35.0998 26.0523 33.259 26.2694C31.8221 26.4389 31.2757 27.2775 32.0095 28.1867C32.2888 28.5329 32.4483 28.5751 33.3344 28.5374C35.0335 28.4652 36.8532 27.621 38.1449 26.3056C40.021 24.3948 40.7294 21.197 39.8196 18.7463C38.9735 16.468 37.1806 14.7524 34.9424 14.0793C34.3319 13.8958 34.2745 13.822 34.0218 12.8981C33.4131 10.6728 32.0818 9.03869 30.0602 8.0358C28.9351 7.47743 28.6799 7.41759 27.2278 7.37176C25.9395 7.33109 25.4415 7.38892 24.644 7.67177ZM41.4865 31.0814L39.4151 33.1659L43.1834 36.9489L46.9515 40.732L49.0343 38.6649C50.1798 37.528 51.117 36.4807 51.117 36.3379C51.117 36.004 44.1402 28.9969 43.8078 28.9969C43.6704 28.9969 42.6257 29.935 41.4865 31.0814ZM8.64319 33.1612C6.50494 33.4902 4.3471 35.1448 3.30944 37.2511C2.81219 38.2603 2.72735 38.615 2.66808 39.932C2.56697 42.1823 3.16018 43.941 4.4766 45.2928C5.12709 45.9607 5.96287 46.0352 6.36349 45.4608C6.74884 44.9086 6.6801 44.4497 6.10399 43.7292C4.79139 42.0874 4.50317 40.0253 5.34492 38.2982C6.25209 36.4366 7.88894 35.414 9.94251 35.4263C11.3411 35.4347 12.2074 35.7807 13.305 36.7694C14.1969 37.573 14.5846 37.5711 15.7262 36.7583C16.585 36.1467 17.2546 35.9009 18.4929 35.7424C19.7389 35.5827 19.8508 35.529 20.0767 34.9811C20.2599 34.5376 20.2443 34.4214 19.9497 34.0283C19.6318 33.6039 19.5418 33.5809 18.2234 33.5862C17.0068 33.5914 16.6852 33.6607 15.6546 34.1408L14.4768 34.6895L13.6798 34.1821C12.2307 33.2594 10.4071 32.8898 8.64319 33.1612ZM31.2611 34.9008C27.8672 35.6779 25.0477 37.918 23.249 41.2667C21.8263 43.9152 20.9387 45.1366 19.0793 47.0047C15.7976 50.3016 12.6082 51.9959 6.99555 53.4236C5.96835 53.685 5.12776 53.9422 5.12776 53.9952C5.12776 54.0482 5.59462 54.5547 6.16542 55.1211L7.20308 56.1506L10.8557 55.1504C13.6603 54.3824 14.9407 53.939 16.3712 53.2409C17.3958 52.7409 18.3858 52.3317 18.5711 52.3317C19.4661 52.3317 19.8891 53.6481 19.1985 54.2847C18.274 55.1367 15.6709 56.2013 12.1297 57.1755C10.7897 57.5442 9.55351 57.8882 9.38267 57.9399C9.1245 58.0182 9.30265 58.2671 10.4333 59.4082L11.7947 60.7821L13.8156 60.2492C15.8894 59.7024 16.1248 59.6924 16.6251 60.1297C17.025 60.4796 16.9915 60.9609 16.4185 63.0824L15.9234 64.9158L18.4513 67.4577C19.8417 68.8556 21.0244 69.9995 21.0797 69.9995C21.135 69.9995 21.423 69.0808 21.7197 67.9577C22.812 63.8228 23.7841 61.2368 24.4567 60.6764C24.8274 60.3677 25.5016 60.4042 25.8865 60.7539C26.3215 61.1491 26.2989 61.8387 25.8194 62.7962C25.2609 63.9121 24.7026 65.6386 23.7957 69.0536L23.0069 72.0246L24.5628 73.5931C25.4185 74.4556 26.1697 75.1063 26.2323 75.039C26.2951 74.9716 26.5473 74.1664 26.793 73.2497C27.5511 70.421 28.216 68.4711 28.8788 67.1321C30.9558 62.9374 34.4 59.397 38.582 57.1582C41.9859 55.3359 43.8648 53.1671 45.0012 49.7482C45.3281 48.7647 45.3891 48.2413 45.3891 46.4147C45.3891 43.4395 45.0112 42.1978 43.6749 40.7815C42.604 39.6468 41.9422 39.3011 40.1247 38.9274C38.4839 38.5899 37.278 38.5934 35.4715 38.9411C33.8059 39.2614 33.2692 39.1376 33.0822 38.3897C32.7756 37.1629 34.2252 36.5076 37.3768 36.4479C38.3575 36.4292 39.1608 36.3709 39.1616 36.3181C39.1659 36.0395 38.289 35.4842 37.3368 35.1623C35.9485 34.6933 32.7663 34.5563 31.2611 34.9008ZM54.8039 41.5951C53.2331 42.3809 52.1131 44.1442 52.1131 45.8313C52.1131 47.5618 53.2542 49.3152 54.8839 50.0893C56.6305 50.9188 59.0397 50.4381 60.2878 49.011C62.3559 46.6462 61.6611 42.9835 58.8802 41.5922C57.6713 40.9875 56.0162 40.9887 54.8039 41.5951ZM56.0147 43.586C55.6495 43.718 55.3347 43.8274 55.3151 43.8287C55.2955 43.83 55.0901 44.111 54.8585 44.4532C53.7319 46.1177 54.8454 48.1611 56.8806 48.1636C57.6099 48.1646 57.8374 48.0846 58.3232 47.6564C59.4048 46.703 59.5034 45.32 58.5662 44.2484C58.2865 43.9284 57.7922 43.5972 57.4538 43.5028C56.7203 43.2983 56.8273 43.2922 56.0147 43.586ZM25.4655 44.0395C25.3197 44.2459 24.8933 44.9396 24.5179 45.5813C23.7288 46.9301 22.8213 48.1481 21.5017 49.6296C20.9882 50.2059 20.5682 50.7811 20.5682 50.9076C20.5682 51.6527 21.425 52.2734 22.0988 52.0162C23.3548 51.5368 27.3752 46.015 27.3752 44.7693C27.3752 43.7884 26.0112 43.2672 25.4655 44.0395ZM68.3312 54.4067C66.819 54.9481 65.8329 56.4081 65.8443 58.0888C65.8639 61.0236 68.9023 62.8576 71.5119 61.5098C72.837 60.8254 73.5328 59.6294 73.5268 58.0458C73.5164 55.2997 70.9187 53.4801 68.3312 54.4067ZM53.2293 56.6763C51.1756 57.0112 49.1247 59.2623 49.1247 61.1816C49.1247 61.4328 49.0782 61.7598 49.0216 61.9082C48.8706 62.303 48.0716 62.6655 47.3482 62.6674C46.5546 62.6694 45.0625 63.3549 44.3366 64.051C43.4678 64.8838 42.9448 66.0699 42.8527 67.416C42.8089 68.0577 42.7033 68.7176 42.6181 68.8824C42.3574 69.3873 41.7508 69.5131 40.8705 69.2449C39.0283 68.6839 37.1967 69.0589 35.8519 70.2727C34.7397 71.2767 34.1622 72.4893 34.1438 73.8597C34.136 74.4409 34.1838 75.0852 34.2502 75.2915L34.3708 75.6665H47.1373C59.7468 75.6665 59.9157 75.6622 60.8647 75.312C62.1472 74.8386 63.4065 73.5674 63.8307 72.3178C64.8438 69.3336 63.237 66.3843 60.1654 65.5894C58.701 65.2105 58.4958 64.7712 59.0253 63.1464C59.6007 61.3801 59.0025 59.2147 57.5837 57.9277C56.3737 56.8303 54.8941 56.4052 53.2293 56.6763ZM68.6319 56.901C67.3092 58.2289 68.7277 60.2604 70.4329 59.4805C70.8156 59.3055 71.053 58.9663 71.2724 58.2811C71.4042 57.8697 70.9767 56.8988 70.5669 56.6787C69.9706 56.3583 69.0694 56.4618 68.6319 56.901ZM3.30878 63.7619C2.31577 64.1945 1.61896 64.8477 1.20988 65.7297C-0.222099 68.8174 2.71839 72.1631 5.92452 71.0941C6.50245 70.9014 6.98791 70.5697 7.50641 70.013C8.67889 68.7546 8.9261 67.2618 8.21551 65.7297C7.37791 63.924 5.066 62.9967 3.30878 63.7619ZM3.78511 66.0462C2.57461 66.9793 3.20899 68.9994 4.71269 68.9994C5.55627 68.9994 6.28994 68.2629 6.28994 67.416C6.28994 66.5513 5.55644 65.8306 4.68397 65.8379C4.33449 65.8407 3.93005 65.9346 3.78511 66.0462ZM49.4911 66.2633C47.9502 67.0341 46.8003 68.7894 46.8003 70.3707C46.8003 70.9207 47.4518 71.6663 47.9326 71.6663C48.5022 71.6663 49.1247 71.0277 49.1247 70.4432C49.1247 69.2645 50.414 67.9994 51.6154 67.9994C52.5038 67.9994 52.9743 66.7141 52.3075 66.1084C51.8332 65.6774 50.5178 65.7497 49.4911 66.2633Z" fill="#88B958"/>
</svg>
