<svg width="100" height="69" viewBox="0 0 100 69" fill="none" xmlns="http://www.w3.org/2000/svg">
<path fill-rule="evenodd" clip-rule="evenodd" d="M26.1394 0.151639C16.6816 0.997729 8.37311 6.43618 3.63188 14.8846C1.88585 17.9959 0.557156 22.2545 0.193736 25.9037C0.0716343 27.1301 -0.00177109 32.7541 3.24842e-05 40.7347C0.00345927 54.7405 0.0267253 55.1086 1.02176 56.9865C1.67014 58.2101 3.64667 60.1826 4.74198 60.6988C6.85739 61.6959 3.92316 61.6384 52.605 61.6384H97.5622L97.6113 65.0103L97.6603 68.3822L98.1347 68.7372C98.4481 68.9716 98.7403 69.0503 98.9961 68.9689C99.9487 68.6656 99.9047 69.635 99.9732 47.5215C100.008 36.236 100.009 32.3497 99.9747 38.8849L99.9123 50.7675L99.4708 50.3247L99.0294 49.8821H78.2021H57.3749L57.2988 37.4476C57.2331 26.7297 57.1808 24.802 56.9191 23.4846L56.6156 21.9561L59.5013 19.0534C62.9474 15.5869 63.2363 15.07 62.7425 13.2568C62.5778 12.6516 61.597 11.5775 56.7467 6.69012C53.5573 3.47631 50.673 0.675064 50.3368 0.46526C49.5362 -0.0346529 47.8648 -0.0616023 47.1295 0.413351C46.8489 0.594579 45.8825 1.464 44.9822 2.34518L43.3453 3.94747L41.1045 2.87584C37.5805 1.19053 35.0438 0.500348 31.1086 0.156161C28.7383 -0.0511116 28.4086 -0.0514736 26.1394 0.151639ZM23.7139 2.7543C19.4959 3.63909 16.2147 5.10664 12.9224 7.58124C7.69316 11.5118 4.05608 17.297 2.75914 23.747C2.45902 25.2395 2.43179 26.5917 2.43179 40.0249V54.6751L2.90522 55.6698C3.53575 56.9947 4.69852 58.1292 6.12911 58.8155L7.30143 59.3776H28.6737H50.0461L51.2427 58.8106C52.7103 58.1151 53.8072 57.0462 54.4381 55.6966L54.9157 54.6751L54.966 40.6222C55.0201 25.5542 54.9768 24.6184 54.0877 21.6023C53.6097 19.9816 52.4591 17.2225 51.646 15.7477C50.6115 13.8718 48.4894 11.1716 46.8197 9.60712C42.7926 5.83372 38.6662 3.72826 33.24 2.67815C30.5287 2.15346 26.4218 2.1862 23.7139 2.7543ZM46.7955 3.77257L45.3568 5.23071L46.2586 5.97172C47.7427 7.19112 50.926 10.5024 51.8139 11.7504C53.1677 13.6527 54.555 16.1243 55.1944 17.7723C55.5235 18.6213 55.8541 19.3158 55.9288 19.3158C56.2704 19.3158 60.7773 14.5737 60.7773 14.2143C60.7773 14.0928 58.1616 11.3655 54.9646 8.15386C50.3779 3.54631 49.055 2.31443 48.6928 2.31443C48.3583 2.31443 47.8446 2.70908 46.7955 3.77257ZM26.2389 9.5742C24.464 9.79938 21.9951 10.5413 20.4872 11.3029C15.132 14.0072 11.6102 18.4978 10.1599 24.4705C9.71875 26.2873 9.71984 30.3293 10.1621 32.23C11.9422 39.8824 17.5127 45.3762 25.1568 47.0181C26.8963 47.3916 30.9771 47.3023 32.9516 46.8472C36.4096 46.0505 39.2647 44.4686 41.8375 41.924C44.5205 39.2706 46.117 36.5243 47.0875 32.8936C47.5743 31.0719 47.7353 27.7217 47.4341 25.6785C46.3563 18.3659 41.0592 12.2398 34.0547 10.2049C31.4502 9.44832 28.8714 9.24014 26.2389 9.5742ZM25.3321 11.9953C20.2561 13.1139 16.0426 16.4133 13.8091 21.0183C12.3989 23.9257 12.172 24.959 12.1763 28.4495C12.1808 31.8786 12.3662 32.6979 13.8204 35.7122C15.885 39.992 19.4027 42.968 24.0746 44.3874C25.4401 44.8022 26.113 44.8915 28.313 44.9505C30.644 45.0127 31.1169 44.9718 32.6631 44.5739C36.0229 43.709 38.5744 42.1745 40.9923 39.5645C42.9945 37.4035 44.3854 34.7129 45.009 31.7956C45.3386 30.254 45.3369 26.5476 45.006 24.9704C44.044 20.3836 41.0405 16.2349 36.9354 13.8224C35.8597 13.1903 33.4523 12.314 31.8801 11.9822C30.3493 11.6594 26.8249 11.6665 25.3321 11.9953ZM25.6775 16.225C21.4934 17.3632 18.2446 20.4122 16.8145 24.5436C16.3923 25.7628 16.3386 26.1921 16.3366 28.3591C16.3344 30.6212 16.3747 30.9155 16.8833 32.3595C19.1029 38.6616 25.763 42.1971 32.0006 40.3845C33.9959 39.8046 34.9823 39.298 36.5409 38.0526C39.4571 35.7227 41.1224 32.2325 41.1153 28.4658C41.1045 22.7915 37.8972 18.3824 32.3366 16.3975C30.7807 15.8421 27.406 15.7547 25.6775 16.225ZM27.1407 18.242C23.2767 18.8195 19.8494 21.9373 18.8571 25.7771C18.0574 28.8724 18.8612 32.5398 20.8524 34.879C21.9654 36.1864 22.7503 36.7876 24.3932 37.5905C30.3094 40.4818 37.2322 37.0074 38.6953 30.4125C39.387 27.2943 38.3638 23.6971 36.1174 21.3498C33.7952 18.9233 30.4142 17.7528 27.1407 18.242ZM0.082636 40.4771C0.082636 47.8881 0.105 50.9199 0.132234 47.2144C0.159468 43.5088 0.159468 37.4454 0.132234 33.7399C0.105 30.0343 0.082636 33.0661 0.082636 40.4771ZM11.2038 49.0445C10.3482 49.3551 9.25217 50.3271 8.83663 51.144C8.30421 52.1903 8.21368 53.1326 8.53832 54.2453C9.31133 56.8943 12.1189 58.1175 14.5624 56.8699C16.324 55.9704 17.1805 54.1254 16.7662 52.1236C16.5848 51.2477 16.4068 50.942 15.6236 50.1614C14.3283 48.8704 12.7695 48.4764 11.2038 49.0445ZM43.3728 49.0163C42.5079 49.3213 41.3642 50.3558 40.955 51.2035C40.4732 52.2014 40.4547 53.8451 40.9139 54.8559C41.6861 56.5564 43.818 57.684 45.5321 57.2987C47.0875 56.9493 47.948 56.2696 48.6735 54.818C49.6718 52.8205 48.634 50.1324 46.4876 49.1554C45.6441 48.7714 44.2445 48.709 43.3728 49.0163ZM11.63 51.3582C10.9703 51.7219 10.6462 52.2969 10.642 53.1106C10.6388 53.7669 10.7396 53.9992 11.2513 54.5123C12.2585 55.5224 13.6846 55.3041 14.3364 54.0401C15.0696 52.6181 14.1633 51.1384 12.5684 51.1536C12.2506 51.1567 11.8284 51.2488 11.63 51.3582ZM43.483 51.6112C41.6721 53.1393 43.6758 55.9614 45.7923 54.8639C46.2972 54.6022 46.8898 53.6259 46.8898 53.0561C46.8898 52.5976 46.396 51.7445 45.9489 51.4305C45.3092 50.9811 44.1271 51.0677 43.483 51.6112ZM57.4715 52.1722C57.405 52.239 57.3505 52.683 57.3505 53.1589C57.3505 55.0609 56.8015 56.6174 55.5266 58.3298C55.141 58.8478 54.8255 59.3181 54.8255 59.3747C54.8255 59.4313 56.0226 59.4552 57.4858 59.4277L60.1461 59.3776L60.2362 57.9122C60.3365 56.2813 60.5645 55.8507 61.3276 55.8507C62.187 55.8507 62.4005 56.2484 62.4005 57.8496C62.4005 59.5065 62.4281 59.5295 64.3002 59.4329L65.3734 59.3776L65.5014 58.4733C65.6278 57.5818 66.1056 56.9359 66.6389 56.9359C67.1932 56.9359 67.6996 57.6152 67.8002 58.4935L67.9014 59.3776L69.2734 59.4299L70.6452 59.4823L70.7415 57.935C70.7943 57.084 70.9377 56.2669 71.06 56.1193C71.3583 55.7586 72.3954 55.7773 72.704 56.1488C72.8477 56.3219 72.9893 57.0612 73.0416 57.9122L73.1318 59.3776L74.2063 59.4329C75.9383 59.5221 76.0799 59.4422 76.1434 58.338C76.1917 57.4984 76.2563 57.3631 76.7146 57.1437C77.1757 56.9229 77.2822 56.9343 77.7065 57.2506C78.0748 57.5252 78.2021 57.8044 78.2719 58.4913L78.3621 59.3776H79.805H81.2478L81.338 57.788C81.4351 56.0788 81.5618 55.8587 82.4524 55.8534C83.287 55.8487 83.5023 56.258 83.5023 57.8496C83.5023 59.5067 83.5295 59.5295 85.4036 59.4329L86.4782 59.3776L86.533 58.5239C86.5756 57.8578 86.6908 57.589 87.0573 57.3C87.9187 56.6205 88.7327 57.2056 88.7327 58.5044C88.7327 59.4199 88.9384 59.5203 90.634 59.4329L91.7085 59.3776L91.7987 57.9122C91.899 56.2813 92.127 55.8507 92.8901 55.8507C93.7495 55.8507 93.963 56.2484 93.963 57.8496C93.963 59.5302 93.9475 59.5188 96.1295 59.4317L97.48 59.3776V55.7603V52.143L77.5363 52.097C66.5673 52.0717 57.5381 52.1055 57.4715 52.1722Z" fill="#88B958"/>
</svg>
