<svg width="75" height="75" viewBox="0 0 75 75" fill="none" xmlns="http://www.w3.org/2000/svg">
<circle cx="37.5" cy="37.5" r="37.5" fill="white"/>
<circle cx="37.5" cy="37.5" r="36.5" stroke="#615A56" stroke-opacity="0.2" stroke-width="2"/>
<path fill-rule="evenodd" clip-rule="evenodd" d="M31.3584 18.0791C25.9475 18.6489 21.1506 22.2275 19.1295 27.2019C17.9147 30.1917 17.673 33.4214 18.4374 36.4477C20.9519 46.4015 32.3796 50.9267 40.9947 45.38L41.6843 44.936L42.5227 45.7703C43.3591 46.6028 43.361 46.6057 43.361 47.0842C43.361 47.3963 43.435 47.7088 43.5731 47.9792C43.7849 48.3942 50.6853 56.3909 51.3378 56.9774C53.6869 59.0893 57.4339 57.7495 57.954 54.6117C58.1395 53.4923 57.7537 52.2022 56.9761 51.3419C56.3462 50.6451 48.3106 43.7168 47.9338 43.5457C47.7201 43.4487 47.3329 43.3684 47.0732 43.3673C46.6049 43.3652 46.5943 43.3583 45.7667 42.527L44.9321 41.6888L45.3766 40.9994C46.3771 39.4473 47.1328 37.5525 47.5141 35.6403C47.815 34.1307 47.8172 31.6463 47.5189 30.1516C46.9084 27.0924 45.572 24.5562 43.4402 22.411C40.2721 19.2231 35.7819 17.6132 31.3584 18.0791ZM31.8425 19.5434C26.4031 20.0911 22.027 23.4833 20.2439 28.5341C19.2964 31.2181 19.289 34.4249 20.2242 37.1905C21.5605 41.1431 24.751 44.2964 28.7083 45.5753C31.7124 46.5464 34.8178 46.4635 37.7697 45.3338C41.0229 44.0889 43.8975 41.2614 45.2326 37.9933C47.667 32.0345 45.5941 25.2967 40.2241 21.7131C38.8452 20.7929 36.8789 20.0121 35.2275 19.729C34.3512 19.5787 32.4998 19.4772 31.8425 19.5434ZM30.8963 21.1314C25.8674 22.0179 21.9344 25.984 21.1228 30.9869C20.9583 32.0006 20.941 33.5614 21.0829 34.5816C21.6244 38.4738 24.2058 41.9747 27.7627 43.6405C29.4655 44.4381 31.0026 44.7753 32.9356 44.7753C37.4431 44.7753 41.4737 42.291 43.5044 38.2611C44.3817 36.5198 44.7715 34.8672 44.7715 32.8874C44.7715 29.6436 43.5713 26.7372 41.2954 24.4694C39.6733 22.8531 37.8602 21.8472 35.5096 21.2596C34.5067 21.0087 31.9887 20.9388 30.8963 21.1314ZM31.2783 22.5926C30.5641 22.7022 29.2897 23.0946 28.5279 23.4395C26.9209 24.1671 25.1955 25.6463 24.2445 27.1119C23.5962 28.1107 23.4223 28.459 23.065 29.4724C21.0571 35.1681 24.3691 41.37 30.2716 42.967C31.0981 43.1906 31.344 43.2139 32.8768 43.2139C34.4147 43.2139 34.6538 43.1911 35.4943 42.9639C39.1506 41.9755 41.9686 39.1566 42.9616 35.4945C43.1885 34.6575 43.2106 34.424 43.2085 32.8832C43.2064 31.3597 43.1818 31.1 42.961 30.2786C42.1628 27.3088 40.1558 24.8711 37.4014 23.526C35.995 22.8392 34.886 22.5781 33.2059 22.5384C32.456 22.5206 31.5886 22.545 31.2783 22.5926ZM43.3832 43.4409L42.8882 43.9691L43.5687 44.6541L44.2492 45.339L44.7928 44.8012L45.3364 44.2635L44.6566 43.5793C44.2828 43.203 43.9547 42.8991 43.9275 42.9038C43.9004 42.9086 43.6554 43.1503 43.3832 43.4409ZM45.8747 45.8814C45.1992 46.5589 44.8655 46.9625 44.8655 47.1021C44.8655 47.2949 45.9943 48.6249 51.2391 54.612C52.4835 56.0325 52.922 56.363 53.7186 56.4805C55.2187 56.7019 56.7005 55.2204 56.4791 53.7206C56.3423 52.7938 56.1648 52.6022 52.3573 49.2715C47.2265 44.7832 47.3295 44.8693 47.095 44.8693C46.9518 44.8693 46.5593 45.1948 45.8747 45.8814Z" fill="#88B958"/>
</svg>
