<svg width="75" height="75" viewBox="0 0 75 75" fill="none" xmlns="http://www.w3.org/2000/svg">
<circle cx="37.5" cy="37.5" r="37.5" fill="white"/>
<circle cx="37.5" cy="37.5" r="36.5" stroke="#615A56" stroke-opacity="0.2" stroke-width="2"/>
<path fill-rule="evenodd" clip-rule="evenodd" d="M35.7973 19.0319C32.0208 19.3301 28.605 20.6239 25.7164 22.8504C25.0382 23.3732 23.4736 24.898 22.9371 25.559C20.9095 28.0572 19.6197 30.9981 19.1387 34.2192C18.9699 35.3503 18.9699 37.6751 19.1387 38.8061C19.6197 42.0273 20.9095 44.9681 22.9371 47.4664C23.4736 48.1274 25.0382 49.6521 25.7164 50.175C28.28 52.1509 31.2977 53.4079 34.603 53.8766C35.7636 54.0411 38.1492 54.0411 39.3097 53.8766C42.6151 53.4079 45.6328 52.1509 48.1963 50.175C48.8746 49.6521 50.4392 48.1274 50.9757 47.4664C52.5803 45.4892 53.8049 43.0622 54.4108 40.6588C54.6295 39.7906 54.8693 38.2799 54.8697 37.7661C54.8699 37.5707 54.9017 37.3917 54.9403 37.3684C54.9824 37.3431 55.0058 36.9642 54.9987 36.4231C54.9902 35.7695 54.9756 35.6335 54.9461 35.9308C54.9105 36.2879 54.8988 36.3137 54.8562 36.1286C54.7002 35.4502 53.7689 35.0292 53.0614 35.3172C52.4153 35.5803 52.2894 35.8676 52.2011 37.2801C52.0669 39.4277 51.6355 41.0826 50.733 42.9137C49.9422 44.518 49.0599 45.7254 47.7349 47.0167C45.9799 48.727 44.0367 49.901 41.7334 50.6425C40.0758 51.1761 38.7676 51.3773 36.9564 51.3773C35.1451 51.3773 33.8369 51.1761 32.1794 50.6425C29.8761 49.901 27.9329 48.727 26.1779 47.0167C24.4229 45.3064 23.2182 43.4127 22.4573 41.168C21.9098 39.5527 21.7033 38.2778 21.7033 36.5127C21.7033 34.7475 21.9098 33.4727 22.4573 31.8573C23.2182 29.6127 24.4229 27.719 26.1779 26.0087C27.5029 24.7174 28.7419 23.8576 30.388 23.0869C32.267 22.2073 33.9652 21.787 36.1689 21.6562C37.6183 21.5702 37.9131 21.4474 38.1831 20.8178C38.4853 20.1128 38.0684 19.26 37.323 19.0582C37.0783 18.9919 36.4422 18.981 35.7973 19.0319ZM52.5895 23.4736C52.2136 23.5666 52.7481 23.0598 41.2767 34.2003L35.727 39.59L32.7146 36.4009C29.5594 33.0607 29.4447 32.9576 28.8739 32.9542C28.5224 32.9521 27.9621 33.2455 27.7591 33.5378C27.5199 33.8824 27.4826 34.413 27.6697 34.8082C27.8432 35.1747 34.6884 42.4257 35.0591 42.6356C35.3579 42.8048 35.9838 42.8198 36.2796 42.6648C36.5342 42.5314 53.8448 25.7545 54.0698 25.423C54.1614 25.2882 54.2566 25.0335 54.2814 24.857C54.3188 24.5915 54.2941 24.4714 54.1383 24.1611C53.8371 23.5611 53.2639 23.3067 52.5895 23.4736ZM19 36.5127C19 37.021 19.011 37.2289 19.0246 36.9748C19.0381 36.7207 19.0381 36.3048 19.0246 36.0506C19.011 35.7964 19 36.0044 19 36.5127Z" fill="#88B958"/>
</svg>
