<svg width="75" height="75" viewBox="0 0 75 75" fill="none" xmlns="http://www.w3.org/2000/svg">
<circle cx="37.5" cy="37.5" r="37.5" fill="white"/>
<circle cx="37.5" cy="37.5" r="36.5" stroke="#615A56" stroke-opacity="0.2" stroke-width="2"/>
<path fill-rule="evenodd" clip-rule="evenodd" d="M25.4998 17.213C25.2971 17.4164 25.2875 17.4748 25.2875 18.509V19.5919L23.8201 19.6193C22.5497 19.643 22.3321 19.6675 22.1986 19.8017C22.0517 19.9493 22.0433 20.8722 22.0221 39.2648L22 58.5729L22.2128 58.7864L22.4257 59H36.6994C50.8578 59 50.9745 58.9986 51.146 58.8264C51.3054 58.6665 51.319 58.5372 51.319 57.1777V55.7025H52.4802C53.6318 55.7025 53.643 55.7006 53.8207 55.4738L54 55.2452V40.5719V25.8985L49.5688 21.4493L45.1377 17H35.4249H25.712L25.4998 17.213ZM26.4983 36.3519V54.5765L39.6437 54.573L52.7892 54.5694V40.6467V26.724L48.7275 26.6998C44.9631 26.6774 44.6545 26.6643 44.5115 26.5207C44.3689 26.3777 44.3538 26.0516 44.3139 22.2687L44.2706 18.1715L35.3844 18.1494L26.4983 18.1273V36.3519ZM45.4381 22.2934V25.5041H48.7025H51.9668L48.7678 22.2934C47.0083 20.5275 45.5393 19.0826 45.5034 19.0826C45.4675 19.0826 45.4381 20.5275 45.4381 22.2934ZM23.2119 39.3453V57.8724L36.6817 57.8505L50.1515 57.8285L50.1758 56.7655L50.2001 55.7025H37.923H25.646L25.4668 55.4738L25.2875 55.2452V38.0317V20.8182H24.2497H23.2119V39.3453ZM29.5252 23.7686C29.299 23.9955 29.3034 24.3915 29.5342 24.6012C29.7083 24.7593 29.9435 24.7677 34.9178 24.792C37.7787 24.806 40.2446 24.7947 40.3977 24.7669C40.5508 24.7391 40.7356 24.6565 40.8085 24.5833C40.9944 24.3969 40.9734 23.9747 40.768 23.7686C40.5987 23.5987 40.4798 23.595 35.1466 23.595C29.8134 23.595 29.6945 23.5987 29.5252 23.7686ZM29.4953 29.5678C29.2855 29.8005 29.3112 30.2382 29.5445 30.4021C29.7157 30.5224 30.8188 30.5372 39.663 30.5372C49.4741 30.5372 49.5913 30.5352 49.7623 30.3636C49.8574 30.2682 49.9353 30.0925 49.9353 29.9731C49.9353 29.8538 49.8574 29.6781 49.7623 29.5826C49.5913 29.4111 49.4741 29.4091 39.6139 29.4091C30.0597 29.4091 29.6324 29.4158 29.4953 29.5678ZM29.7846 35.1974C29.3722 35.3513 29.2256 35.7972 29.4749 36.1394C29.5951 36.3042 29.8115 36.3084 39.4422 36.3321C44.8566 36.3453 49.3715 36.3355 49.4752 36.3102C49.9347 36.1981 50.0919 35.6526 49.7532 35.3451C49.5767 35.1847 49.2749 35.1793 39.7428 35.1643C34.3371 35.1559 29.856 35.1707 29.7846 35.1974ZM38.5607 39.6016C36.4156 39.9927 34.6345 41.5749 33.9726 43.6776C32.9872 46.8074 34.6879 50.1327 37.7969 51.1552C38.4861 51.3819 38.6751 51.4068 39.687 51.4041C40.7157 51.4013 40.8747 51.3786 41.5566 51.1363C44.6306 50.0443 46.2864 46.7536 45.3122 43.6718C44.6274 41.5051 42.7937 39.9401 40.503 39.5671C39.8024 39.4531 39.3293 39.4615 38.5607 39.6016ZM38.3956 40.8178C37.2015 41.1612 35.9757 42.1323 35.435 43.1632C34.2551 45.4129 34.9303 48.1117 37.0213 49.5044C37.8217 50.0374 38.5878 50.2637 39.6005 50.2661C40.9131 50.2691 41.9607 49.8642 42.9006 48.9904C44.3875 47.6082 44.8366 45.3892 44.0098 43.5103C43.5201 42.3974 42.4577 41.4008 41.2996 40.9678C40.5824 40.6996 39.0771 40.6219 38.3956 40.8178ZM40.1219 44.7688L38.7288 46.1574L38.343 45.7598C37.8386 45.2397 37.5566 45.0914 37.2756 45.1987C37.042 45.2878 36.8763 45.5308 36.8763 45.7842C36.8763 45.8719 37.237 46.3039 37.6779 46.7445C38.3231 47.3892 38.5289 47.5455 38.7327 47.5455C38.9459 47.5455 39.2443 47.2873 40.6174 45.9149C42.0693 44.4637 42.2497 44.2521 42.2571 43.9916C42.2664 43.6654 42.0036 43.3802 41.6941 43.3802C41.5785 43.3802 41.0213 43.8723 40.1219 44.7688Z" fill="#88B958"/>
</svg>
