<svg width="75" height="75" viewBox="0 0 75 75" fill="none" xmlns="http://www.w3.org/2000/svg">
<circle cx="37.5" cy="37.5" r="37.5" fill="white"/>
<circle cx="37.5" cy="37.5" r="36.5" stroke="#615A56" stroke-opacity="0.2" stroke-width="2"/>
<path fill-rule="evenodd" clip-rule="evenodd" d="M50.5021 13.3223C50.34 14.2115 49.6567 14.9028 48.7955 15.049L48.4346 15.1102V15.75V16.3898L48.7955 16.451C49.6567 16.5972 50.34 17.2885 50.5021 18.1777L50.5608 18.5H51.1939H51.8271L51.8746 18.1476C51.9793 17.3716 52.7407 16.5833 53.5118 16.4525L53.8817 16.3898V15.75V15.1102L53.5118 15.0475C52.7407 14.9167 51.9793 14.1284 51.8746 13.3524L51.8271 13H51.1939H50.5608L50.5021 13.3223ZM50.8039 15.3718L50.4305 15.75L50.8039 16.1282L51.1774 16.5065L51.542 16.1282L51.9066 15.75L51.542 15.3718L51.1774 14.9935L50.8039 15.3718ZM47.7353 18.8223C47.5732 19.7115 46.8899 20.4028 46.0287 20.549L45.6678 20.6102V21.25V21.8898L46.0287 21.951C46.4205 22.0175 46.8749 22.2228 46.9704 22.3764C47.0061 22.4336 45.9105 23.5863 44.2746 25.2129L41.5188 27.953L39.2056 25.6552L36.8925 23.3573L37.9501 22.3037L39.0076 21.25H40.9327H42.8578V20.6055V19.9609H30.7964H18.7349V24.7305V29.5H19.3834C19.9995 29.5 20.0319 29.4903 20.0319 29.3054C20.0319 29.1709 20.3595 28.7859 21.092 28.0596L22.1521 27.0084L24.4207 29.2646C25.6685 30.5055 26.6894 31.5593 26.6894 31.6065C26.6894 31.6537 25.1915 33.1807 23.3606 35L20.0319 38.3077V36.6539V35H19.3834H18.7349V46V57H37.3675H56V38.4805V19.9609H53.5791H51.1581V20.2936V20.6263L50.7627 20.5528C49.9612 20.404 49.2135 19.6357 49.1079 18.8524L49.0603 18.5H48.4271H47.794L47.7353 18.8223ZM48.0371 20.8718L47.6637 21.25L48.0371 21.6282L48.4106 22.0065L48.7752 21.6282L49.1399 21.25L48.7752 20.8718L48.4106 20.4935L48.0371 20.8718ZM20.0319 24.2789V27.3076L23.058 24.3008C24.7224 22.647 26.0842 21.284 26.0842 21.2719C26.0842 21.2599 24.7224 21.25 23.058 21.25H20.0319V24.2789ZM25.5 23.6783L23.058 26.1066L25.3713 28.4047L27.6846 30.7029L32.4393 25.9764L37.1939 21.25H32.568H27.942L25.5 23.6783ZM51.1417 21.5704C51.1163 21.8747 51.0964 21.8938 50.745 21.953C49.9746 22.0827 49.2126 22.8715 49.1079 23.6476L49.0603 24H48.4333C47.856 24 47.8022 23.9847 47.7546 23.8066C47.7096 23.6378 47.1938 24.1193 43.681 27.6089L39.659 31.6045L41.9712 33.904L44.2835 36.2035L49.4933 31.0258L54.7031 25.8482V23.5491V21.25H52.9358H51.1686L51.1417 21.5704ZM30.9038 29.3072L25.8245 34.3563L28.1379 36.6546L30.4514 38.9528L35.4873 33.9468C38.2572 31.1936 40.5233 28.902 40.5233 28.8546C40.5233 28.8072 39.5018 27.7535 38.2533 26.5132L35.9832 24.2582L30.9038 29.3072ZM47.1591 35.1506L39.6583 42.6062L41.9718 44.9046L44.2853 47.2028L49.495 42.0242L54.7046 36.8456L54.6822 32.2703L54.6598 27.6949L47.1591 35.1506ZM20.0675 29.8223C19.9054 30.7115 19.2221 31.4028 18.3609 31.549L18 31.6102V32.25V32.8898L18.3609 32.951C19.2221 33.0972 19.9054 33.7885 20.0675 34.6777L20.1262 35H20.7593H21.3925L21.4401 34.6476C21.5448 33.8716 22.3061 33.0833 23.0772 32.9525L23.4471 32.8898V32.25V31.6102L23.0772 31.5475C22.3061 31.4167 21.5448 30.6284 21.4401 29.8524L21.3925 29.5H20.7593H20.1262L20.0675 29.8223ZM20.3693 31.8718L19.9959 32.25L20.3693 32.6282L20.7428 33.0065L21.1074 32.6282L21.472 32.25L21.1074 31.8718L20.7428 31.4935L20.3693 31.8718ZM32.2872 38.9322L25.8245 45.3562L28.1378 47.6546L30.4513 49.9528L36.8707 43.5718C40.4014 40.0624 43.2901 37.1521 43.2901 37.1046C43.2901 37.0572 42.2686 36.0036 41.02 34.7632L38.7501 32.5082L32.2872 38.9322ZM22.4738 37.6861L20.0319 40.1144V44.7112V49.308L24.744 44.625C27.3357 42.0494 29.4562 39.9029 29.4562 39.8551C29.4562 39.8074 28.4346 38.7535 27.186 37.5131L24.9157 35.2578L22.4738 37.6861ZM51.3094 42.0255L47.9589 45.3565L50.2728 47.6552L52.5867 49.9538L53.6456 48.8988L54.7046 47.8436L54.6822 43.2691L54.6598 38.6945L51.3094 42.0255ZM32.6119 49.6095L26.4737 55.7109H31.0996H35.7255L39.5077 51.9508C41.588 49.8827 43.2901 48.1519 43.2901 48.1045C43.2901 48.0571 42.2686 47.0036 41.02 45.7632L38.75 43.5082L32.6119 49.6095ZM22.4738 48.6861L20.0319 51.1144V53.4126V55.7109H22.3453H24.6587L27.0575 53.3256C28.3768 52.0136 29.4562 50.9016 29.4562 50.8543C29.4562 50.807 28.4346 49.7535 27.186 48.5131L24.9157 46.2578L22.4738 48.6861ZM42.2956 50.9845L37.541 55.7109H42.167H46.7929L49.1917 53.3256C50.5111 52.0136 51.5904 50.9016 51.5904 50.8543C51.5904 50.807 50.5689 49.7535 49.3204 48.5132L47.0503 46.2582L42.2956 50.9845ZM51.6337 52.7031L48.6085 55.7109H51.6557H54.7031V52.7031C54.7031 51.0488 54.6931 49.6953 54.681 49.6953C54.6688 49.6953 53.2975 51.0488 51.6337 52.7031Z" fill="#88B958"/>
</svg>
