<svg width="75" height="75" viewBox="0 0 75 75" fill="none" xmlns="http://www.w3.org/2000/svg">
<circle cx="37.5" cy="37.5" r="37.5" fill="white"/>
<circle cx="37.5" cy="37.5" r="36.5" stroke="#615A56" stroke-opacity="0.2" stroke-width="2"/>
<path fill-rule="evenodd" clip-rule="evenodd" d="M48.1501 16.0657C47.9235 16.1346 46.6346 17.3927 44.2742 19.849C40.5996 23.6729 40.5118 23.789 40.8953 24.3137C40.9783 24.4271 41.1942 24.5193 41.3769 24.5193C41.6602 24.5193 42.1892 24.0187 45.04 21.0528C46.8726 19.1462 48.424 17.5863 48.4877 17.5863C48.5514 17.5863 51.2896 20.3758 54.5725 23.7852L60.5414 29.9841L49.7624 41.1766C43.8339 47.3324 38.9316 52.369 38.8683 52.369C38.7274 52.369 36.4376 49.9975 36.4376 49.8516C36.4376 49.5769 37.0322 48.9612 37.2977 48.9612C37.4532 48.9612 37.7339 48.8788 37.9214 48.7781C38.3918 48.5256 39.2275 48.5282 39.9138 48.7845C40.6896 49.0742 40.9352 48.9551 42.0846 47.7323C43.0546 46.7002 43.1935 46.3582 42.7941 45.983C42.3842 45.5978 42.0386 45.7349 41.1904 46.6193C40.4138 47.4288 40.384 47.447 40.028 47.3263C39.8272 47.2583 39.3827 47.159 39.0403 47.1056L38.4179 47.0087L41.6891 43.5832C44.4379 40.7047 45.0414 40.1289 45.4682 39.9779C47.6902 39.1917 49.1394 36.6503 48.7717 34.1844C48.4755 32.1977 47.1767 30.5956 45.3118 29.917C44.7641 29.7177 44.4339 29.6806 43.5001 29.7131C42.4509 29.7498 42.2894 29.7883 41.5129 30.1868C40.1247 30.8992 39.1361 32.1359 38.7617 33.628C38.5662 34.4078 38.5346 35.551 38.6929 36.1242C38.794 36.4897 38.7768 36.5204 38.2686 36.8787C37.9773 37.0841 36.9242 38.0814 35.9283 39.0949C34.9325 40.1084 33.9953 40.9687 33.8457 41.0067C33.5118 41.0913 33.0282 40.8444 32.7131 40.4283C32.5071 40.1564 32.4768 39.956 32.4768 38.8686V37.6209L39.7536 30.0654C46.5347 23.0247 47.0494 22.5172 47.3074 22.6173C48.0369 22.9002 49.0466 22.8834 49.8195 22.5754C49.9484 22.524 50.8098 23.3414 52.8497 25.4512C55.5542 28.2484 55.6948 28.4152 55.6032 28.7211C55.4802 29.1323 55.4777 30.8276 55.5996 31.2311C55.6869 31.5198 55.3347 31.9104 49.8561 37.602C45.472 42.1565 44.0196 43.7338 44.0196 43.9406C44.0196 44.3744 44.2827 44.6525 44.6929 44.6525C45.0253 44.6525 45.6116 44.0781 51.1027 38.3733C57.7165 31.5021 57.3759 31.9331 56.977 30.9417C56.8836 30.7097 56.8072 30.2784 56.8072 29.9835C56.8072 29.6885 56.8836 29.2573 56.977 29.0253C57.3621 28.0683 57.4387 28.1817 53.9577 24.5589C52.2038 22.7335 50.6202 21.1762 50.4385 21.098C50.1648 20.9803 50.0135 20.9913 49.5549 21.1625C48.8769 21.4158 47.9965 21.4221 47.5404 21.1771C46.7499 20.7527 47.1152 20.4282 39.6071 28.2209C35.7775 32.1956 32.6065 35.4477 32.5604 35.4477C32.5145 35.4477 32.4777 35.1436 32.4788 34.772L32.481 34.0963L36.0401 30.4105C37.9976 28.3834 39.6305 26.6226 39.6686 26.4976C39.7742 26.1523 39.4364 25.7141 39.013 25.6469C38.3591 25.5432 34.5244 25.2047 34.0027 25.2047C32.7943 25.2047 32.679 25.2827 27.2679 29.7501C24.0706 32.3897 23.9154 32.6096 22.9798 35.8249C22.3458 38.0034 21.3618 40.962 20.838 42.2638C20.5158 43.0647 20.3438 43.2902 18.9657 44.7183L17.4482 46.2909L17.1258 46.0569C16.7054 45.7515 16.292 45.6538 15.8278 45.7502C15.3472 45.8501 13.4719 47.7066 13.1855 48.3663C12.7548 49.3581 12.6342 49.1972 17.9695 54.7486C21.379 58.2959 22.9084 59.8099 23.1745 59.9012C23.9241 60.1581 24.2871 59.9689 25.5289 58.6744C26.9004 57.2448 27.0127 56.9463 26.5471 55.9692L26.2602 55.3674L26.6808 54.9158C27.2693 54.284 27.6509 54.1051 30.6207 53.0677C33.2636 52.1446 33.9261 51.8527 34.849 51.2044L35.3539 50.8497L36.8462 52.3732L38.3385 53.8966H38.8861H39.4337L50.561 42.3513C56.681 36.0014 61.7657 30.6542 61.8606 30.4687C62.2385 29.7284 62.3332 29.8431 55.4751 22.7258C51.9417 19.0589 48.9923 16.0587 48.9209 16.0587C48.8495 16.0587 48.7232 16.037 48.6403 16.0106C48.5574 15.9842 48.3368 16.0089 48.1501 16.0657ZM33.1558 26.8362C32.9379 26.9574 31.9704 27.7063 31.0057 28.5005C30.0409 29.2947 28.4933 30.5589 27.5664 31.3101C25.2623 33.1769 25.1051 33.4164 24.2694 36.329C23.6464 38.5 22.6155 41.5465 22.0196 42.9774C21.6343 43.9026 21.5025 44.0763 19.9985 45.6422L18.3895 47.3174L21.8099 50.869L25.2302 54.4207L25.7697 53.883C26.0665 53.5872 26.4723 53.2296 26.6714 53.0884C26.8705 52.947 28.3218 52.3791 29.8966 51.8262C34.031 50.3747 34.3653 50.1488 36.4503 47.3967C37.1451 46.4799 38.3772 45.0324 39.1886 44.1801L40.6639 42.6305L40.2432 42.147C39.239 40.9928 39.38 40.0371 40.7567 38.666C42.2027 37.2258 43.1641 37.0371 44.9384 37.8452C45.1979 37.9634 45.2946 37.4943 45.094 37.0914C44.5052 35.9091 41.3835 36.4147 39.0403 38.0718C38.7603 38.2698 37.6909 39.2846 36.6639 40.3268C34.9973 42.0181 34.7373 42.2371 34.2435 42.3657C33.1378 42.6537 31.9166 42.0163 31.345 40.853C31.1341 40.4235 31.1188 40.1601 31.1188 36.9553V33.5183L34.2966 30.2111L37.4743 26.9039L36.7579 26.8319C36.3639 26.7923 35.4813 26.7275 34.7967 26.6879C33.7114 26.6251 33.501 26.6441 33.1558 26.8362ZM42.6616 31.2041C41.6442 31.5468 40.6794 32.4396 40.2568 33.4293C39.9936 34.0455 39.8444 35.6038 40.0366 35.7272C40.1019 35.7691 40.4264 35.7018 40.7577 35.5778C42.2093 35.034 43.8062 34.8867 44.8467 35.2004C45.541 35.4098 46.3277 36.1822 46.5178 36.8413C46.5939 37.1047 46.705 37.2887 46.765 37.2501C46.8249 37.2117 47.003 36.8829 47.1607 36.5196C47.7765 35.1004 47.4582 33.3718 46.3739 32.2457C45.627 31.4701 44.9363 31.1662 43.8498 31.1348C43.3519 31.1205 42.8172 31.1517 42.6616 31.2041ZM42.736 38.914C42.2508 39.0883 40.9641 40.3551 40.9641 40.6583C40.9641 40.7634 41.1145 41.0221 41.2984 41.2331L41.6327 41.6169L42.8513 40.3563C43.6067 39.5748 44.0281 39.0559 43.9598 38.991C43.7528 38.7942 43.171 38.7576 42.736 38.914ZM15.1612 48.0813L14.3169 48.964L18.9821 53.8082L23.6472 58.6526L24.4973 57.7758C24.9649 57.2936 25.3474 56.8177 25.3474 56.7182C25.3474 56.487 16.3954 47.1986 16.1726 47.1986C16.0808 47.1986 15.6257 47.5958 15.1612 48.0813Z" fill="#88B958"/>
</svg>
