<svg width="75" height="75" viewBox="0 0 75 75" fill="none" xmlns="http://www.w3.org/2000/svg">
<circle cx="37.5" cy="37.5" r="37.5" fill="white"/>
<circle cx="37.5" cy="37.5" r="36.5" stroke="#615A56" stroke-opacity="0.2" stroke-width="2"/>
<path fill-rule="evenodd" clip-rule="evenodd" d="M24.9064 17.1438C23.9733 17.3436 23.2638 17.741 22.5101 18.4861C21.7444 19.243 21.3527 19.9366 21.1474 20.8987C20.9509 21.8202 20.9509 54.1735 21.1474 55.095C21.3527 56.0571 21.7444 56.7507 22.5101 57.5076C23.2758 58.2646 23.9775 58.6519 24.9507 58.8548C25.8797 59.0484 50.1203 59.0484 51.0493 58.8548C52.0225 58.6519 52.7242 58.2646 53.4899 57.5076C54.2556 56.7507 54.6473 56.0571 54.8526 55.095C55.0491 54.1735 55.0491 21.8202 54.8526 20.8987C54.6473 19.9366 54.2556 19.243 53.4899 18.4861C52.7242 17.7291 52.0225 17.3418 51.0493 17.1389C50.1461 16.9506 25.7875 16.9552 24.9064 17.1438ZM24.8622 18.5844C23.8421 18.908 22.9262 19.824 22.6047 20.8423C22.4324 21.3884 22.4293 21.6893 22.4293 37.9968C22.4293 54.3044 22.4324 54.6053 22.6047 55.1514C22.9312 56.1852 23.8479 57.0914 24.8936 57.4142C25.4432 57.5836 25.7387 57.5876 38 57.5876C50.2613 57.5876 50.5568 57.5836 51.1064 57.4142C52.1521 57.0914 53.0688 56.1852 53.3953 55.1514C53.5676 54.6053 53.5707 54.3044 53.5707 37.9968C53.5707 21.6893 53.5676 21.3884 53.3953 20.8423C53.0688 19.8085 52.1521 18.9023 51.1064 18.5795C50.5565 18.4099 50.2686 18.4062 37.9686 18.411C25.8058 18.4157 25.3756 18.4215 24.8622 18.5844ZM25.4367 19.8865C24.8279 20.0713 24.3636 20.4553 24.0539 21.0299C23.9012 21.3133 23.889 21.5855 23.889 24.7031C23.889 27.9863 23.8938 28.079 24.08 28.4201C24.3034 28.8294 24.65 29.1659 25.0834 29.3941C25.3813 29.551 25.869 29.5571 38 29.5571H50.607L50.9609 29.3684C51.3749 29.1474 51.7152 28.8049 51.9461 28.3764C52.0988 28.0929 52.111 27.8208 52.111 24.7031C52.111 21.5855 52.0988 21.3133 51.9461 21.0299C51.7152 20.6014 51.3749 20.2588 50.9609 20.0379L50.607 19.8492L38.1327 19.8342C31.2719 19.826 25.5586 19.8495 25.4367 19.8865ZM25.4775 21.4195L25.2603 21.6341V24.7031V27.7721L25.4775 27.9868L25.6946 28.2015H38H50.3054L50.5225 27.9868L50.7397 27.7721V24.7031V21.6341L50.5225 21.4195L50.3054 21.2048H38H25.6946L25.4775 21.4195ZM47.3773 21.9811C46.7528 22.1832 46.3027 22.5568 45.9945 23.1289C45.8554 23.3871 45.8296 23.6336 45.8296 24.7031C45.8296 26.0768 45.8867 26.2929 46.3926 26.8321C47.1846 27.676 48.6327 27.676 49.4247 26.8321C49.9305 26.2929 49.9877 26.0768 49.9877 24.7031C49.9877 23.3295 49.9305 23.1134 49.4247 22.5742C48.9535 22.072 47.9734 21.7881 47.3773 21.9811ZM47.4181 23.5185C47.2136 23.7206 47.2009 23.7899 47.2009 24.7031C47.2009 25.6164 47.2136 25.6856 47.4181 25.8878C47.5549 26.0232 47.7363 26.1025 47.9086 26.1025C48.081 26.1025 48.2623 26.0232 48.3992 25.8878C48.6037 25.6856 48.6164 25.6164 48.6164 24.7031C48.6164 23.7899 48.6037 23.7206 48.3992 23.5185C48.2623 23.3831 48.081 23.3038 47.9086 23.3038C47.7363 23.3038 47.5549 23.3831 47.4181 23.5185ZM25.4367 32.4787C24.8216 32.6705 24.363 33.0504 24.0539 33.6239C23.9071 33.8965 23.889 34.1456 23.889 35.8978C23.889 37.6501 23.9071 37.8992 24.0539 38.1718C24.2848 38.6002 24.6251 38.9428 25.0391 39.1637C25.3796 39.3453 25.4953 39.3525 28.0914 39.3525C30.5545 39.3525 30.8167 39.3382 31.0993 39.1894C31.5328 38.9613 31.8793 38.6248 32.1028 38.2155C32.2822 37.8867 32.2937 37.7474 32.2937 35.8978C32.2937 34.0483 32.2822 33.909 32.1028 33.5802C31.8793 33.1709 31.5328 32.8344 31.0993 32.6062C30.8201 32.4592 30.5378 32.4416 28.2241 32.4264C26.813 32.4172 25.5586 32.4408 25.4367 32.4787ZM35.3454 32.4787C34.7302 32.6705 34.2716 33.0504 33.9626 33.6239C33.8157 33.8965 33.7977 34.1456 33.7977 35.8978C33.7977 37.6501 33.8157 37.8992 33.9626 38.1718C34.1934 38.6002 34.5337 38.9428 34.9478 39.1637C35.2882 39.3453 35.4039 39.3525 38 39.3525C40.4631 39.3525 40.7253 39.3382 41.008 39.1894C41.4414 38.9613 41.7879 38.6248 42.0114 38.2155C42.1908 37.8867 42.2023 37.7474 42.2023 35.8978C42.2023 34.0483 42.1908 33.909 42.0114 33.5802C41.7879 33.1709 41.4414 32.8344 41.008 32.6062C40.7288 32.4592 40.4465 32.4416 38.1327 32.4264C36.7216 32.4172 35.4673 32.4408 35.3454 32.4787ZM45.254 32.4787C44.6389 32.6705 44.1802 33.0504 43.8712 33.6239C43.7244 33.8965 43.7063 34.1456 43.7063 35.8978C43.7063 37.6501 43.7244 37.8992 43.8712 38.1718C44.102 38.6002 44.4424 38.9428 44.8564 39.1637C45.1969 39.3453 45.3126 39.3525 47.9086 39.3525C50.3717 39.3525 50.634 39.3382 50.9166 39.1894C51.35 38.9613 51.6966 38.6248 51.92 38.2155C52.0995 37.8867 52.111 37.7474 52.111 35.8978C52.111 34.0483 52.0995 33.909 51.92 33.5802C51.6966 33.1709 51.35 32.8344 50.9166 32.6062C50.6374 32.4592 50.3551 32.4416 48.0413 32.4264C46.6302 32.4172 45.3759 32.4408 45.254 32.4787ZM25.4775 34.0135C25.2621 34.2264 25.2603 34.2417 25.2603 35.8978C25.2603 37.554 25.2621 37.5693 25.4775 37.7821L25.6946 37.9968H28.0914H30.4881L30.7052 37.7821C30.9206 37.5693 30.9224 37.554 30.9224 35.8978C30.9224 34.2417 30.9206 34.2264 30.7052 34.0135L30.4881 33.7988H28.0914H25.6946L25.4775 34.0135ZM35.3862 34.0135C35.1707 34.2264 35.169 34.2417 35.169 35.8978C35.169 37.554 35.1707 37.5693 35.3862 37.7821L35.6033 37.9968H38H40.3967L40.6138 37.7821C40.8293 37.5693 40.831 37.554 40.831 35.8978C40.831 34.2417 40.8293 34.2264 40.6138 34.0135L40.3967 33.7988H38H35.6033L35.3862 34.0135ZM45.2948 34.0135C45.0794 34.2264 45.0776 34.2417 45.0776 35.8978C45.0776 37.554 45.0794 37.5693 45.2948 37.7821L45.5119 37.9968H47.9086H50.3054L50.5225 37.7821C50.7379 37.5693 50.7397 37.554 50.7397 35.8978C50.7397 34.2417 50.7379 34.2264 50.5225 34.0135L50.3054 33.7988H47.9086H45.5119L45.2948 34.0135ZM25.4367 40.8748C24.8216 41.0666 24.363 41.4464 24.0539 42.0199C23.9071 42.2926 23.889 42.5416 23.889 44.2939C23.889 46.0461 23.9071 46.2952 24.0539 46.5678C24.2848 46.9963 24.6251 47.3388 25.0391 47.5598C25.3796 47.7413 25.4953 47.7485 28.0914 47.7485C30.5545 47.7485 30.8167 47.7342 31.0993 47.5855C31.5328 47.3573 31.8793 47.0208 32.1028 46.6115C32.2822 46.2827 32.2937 46.1434 32.2937 44.2939C32.2937 42.4443 32.2822 42.3051 32.1028 41.9762C31.8793 41.5669 31.5328 41.2305 31.0993 41.0023C30.8201 40.8553 30.5378 40.8376 28.2241 40.8225C26.813 40.8132 25.5586 40.8368 25.4367 40.8748ZM35.3454 40.8748C34.7302 41.0666 34.2716 41.4464 33.9626 42.0199C33.8157 42.2926 33.7977 42.5416 33.7977 44.2939C33.7977 46.0461 33.8157 46.2952 33.9626 46.5678C34.1934 46.9963 34.5337 47.3388 34.9478 47.5598C35.2882 47.7413 35.4039 47.7485 38 47.7485C40.4631 47.7485 40.7253 47.7342 41.008 47.5855C41.4414 47.3573 41.7879 47.0208 42.0114 46.6115C42.1908 46.2827 42.2023 46.1434 42.2023 44.2939C42.2023 42.4443 42.1908 42.3051 42.0114 41.9762C41.7879 41.5669 41.4414 41.2305 41.008 41.0023C40.7288 40.8553 40.4465 40.8376 38.1327 40.8225C36.7216 40.8132 35.4673 40.8368 35.3454 40.8748ZM45.254 40.8748C44.6389 41.0666 44.1802 41.4464 43.8712 42.0199C43.7148 42.3103 43.7063 42.6436 43.7063 48.4919C43.7063 54.6422 43.7068 54.6586 43.8972 55.0076C44.1207 55.4169 44.4672 55.7533 44.9007 55.9815C45.1833 56.1303 45.4455 56.1445 47.9086 56.1445C50.3717 56.1445 50.634 56.1303 50.9166 55.9815C51.35 55.7533 51.6966 55.4169 51.92 55.0076C52.1105 54.6586 52.111 54.6422 52.111 48.4919C52.111 42.3415 52.1105 42.3252 51.92 41.9762C51.6966 41.5669 51.35 41.2305 50.9166 41.0023C50.6374 40.8553 50.3551 40.8376 48.0413 40.8225C46.6302 40.8132 45.3759 40.8368 45.254 40.8748ZM25.4775 42.4096C25.2621 42.6224 25.2603 42.6378 25.2603 44.2939C25.2603 45.95 25.2621 45.9653 25.4775 46.1782L25.6946 46.3929H28.0914H30.4881L30.7052 46.1782C30.9206 45.9653 30.9224 45.95 30.9224 44.2939C30.9224 42.6378 30.9206 42.6224 30.7052 42.4096L30.4881 42.1949H28.0914H25.6946L25.4775 42.4096ZM35.3862 42.4096C35.1707 42.6224 35.169 42.6378 35.169 44.2939C35.169 45.95 35.1707 45.9653 35.3862 46.1782L35.6033 46.3929H38H40.3967L40.6138 46.1782C40.8293 45.9653 40.831 45.95 40.831 44.2939C40.831 42.6378 40.8293 42.6224 40.6138 42.4096L40.3967 42.1949H38H35.6033L35.3862 42.4096ZM45.2948 42.4096L45.0776 42.6242V48.4919V54.3596L45.2948 54.5742L45.5119 54.7889H47.9086H50.3054L50.5225 54.5742L50.7397 54.3596V48.4919V42.6242L50.5225 42.4096L50.3054 42.1949H47.9086H45.5119L45.2948 42.4096ZM25.4367 49.2708C24.8216 49.4626 24.363 49.8424 24.0539 50.416C23.9071 50.6886 23.889 50.9377 23.889 52.6899C23.889 54.4421 23.9071 54.6912 24.0539 54.9638C24.2848 55.3923 24.6251 55.7349 25.0391 55.9558C25.3796 56.1373 25.4953 56.1445 28.0914 56.1445C30.5545 56.1445 30.8167 56.1303 31.0993 55.9815C31.5328 55.7533 31.8793 55.4169 32.1028 55.0076C32.2822 54.6787 32.2937 54.5395 32.2937 52.6899C32.2937 50.8403 32.2822 50.7011 32.1028 50.3722C31.8793 49.9629 31.5328 49.6265 31.0993 49.3983C30.8201 49.2513 30.5378 49.2336 28.2241 49.2185C26.813 49.2092 25.5586 49.2328 25.4367 49.2708ZM35.3454 49.2708C34.7302 49.4626 34.2716 49.8424 33.9626 50.416C33.8157 50.6886 33.7977 50.9377 33.7977 52.6899C33.7977 54.4421 33.8157 54.6912 33.9626 54.9638C34.1934 55.3923 34.5337 55.7349 34.9478 55.9558C35.2882 56.1373 35.4039 56.1445 38 56.1445C40.4631 56.1445 40.7253 56.1303 41.008 55.9815C41.4414 55.7533 41.7879 55.4169 42.0114 55.0076C42.1908 54.6787 42.2023 54.5395 42.2023 52.6899C42.2023 50.8403 42.1908 50.7011 42.0114 50.3722C41.7879 49.9629 41.4414 49.6265 41.008 49.3983C40.7288 49.2513 40.4465 49.2336 38.1327 49.2185C36.7216 49.2092 35.4673 49.2328 35.3454 49.2708ZM25.4775 50.8056C25.2621 51.0185 25.2603 51.0338 25.2603 52.6899C25.2603 54.346 25.2621 54.3613 25.4775 54.5742L25.6946 54.7889H28.0914H30.4881L30.7052 54.5742C30.9206 54.3613 30.9224 54.346 30.9224 52.6899C30.9224 51.0338 30.9206 51.0185 30.7052 50.8056L30.4881 50.5909H28.0914H25.6946L25.4775 50.8056ZM35.3862 50.8056C35.1707 51.0185 35.169 51.0338 35.169 52.6899C35.169 54.346 35.1707 54.3613 35.3862 54.5742L35.6033 54.7889H38H40.3967L40.6138 54.5742C40.8293 54.3613 40.831 54.346 40.831 52.6899C40.831 51.0338 40.8293 51.0185 40.6138 50.8056L40.3967 50.5909H38H35.6033L35.3862 50.8056Z" fill="#88B958"/>
</svg>
