<svg width="56" height="56" viewBox="0 0 56 56" fill="none" xmlns="http://www.w3.org/2000/svg">
<rect width="56" height="56" rx="4" fill="white"/>
<path fill-rule="evenodd" clip-rule="evenodd" d="M42.0015 14.049C41.7427 14.1484 30.1829 18.6587 21.8554 21.9096C16.7141 23.9166 12.3651 25.6212 12.1909 25.6976C11.7617 25.8857 11.2856 26.2515 11.125 26.5164C10.8584 26.9561 11.0238 27.4061 11.5686 27.7232C11.7619 27.8358 13.4573 28.4074 15.785 29.1447L19.6781 30.3778L28.4061 24.8085C33.2066 21.7454 37.2503 19.1853 37.3921 19.1194C37.5339 19.0535 37.7274 18.9988 37.8219 18.9981C38.3213 18.9939 38.323 19.2385 37.8272 19.7287C37.6233 19.9303 34.454 22.839 30.7842 26.1927C27.1143 29.5462 24.073 32.3267 24.0256 32.3716C23.9621 32.4317 23.8739 33.3959 23.691 36.0271C23.5543 37.9928 23.428 39.76 23.4103 39.9542L23.3781 40.3074L23.6585 40.2751C24.1963 40.2134 24.4494 40.0115 26.5216 37.9914C27.6343 36.9067 28.5683 36.0191 28.5972 36.0191C28.626 36.0191 30.2396 37.2063 32.1828 38.6572C34.126 40.1081 35.853 41.3967 36.0205 41.5206C36.4241 41.8191 36.9485 42 37.4101 42C38.0604 42 38.5365 41.5731 38.8108 40.744C38.8633 40.5853 40.0523 34.9777 41.4531 28.2825C43.1626 20.1116 44 15.9825 44 15.7232C44 14.9776 43.7116 14.3854 43.2252 14.1324C42.979 14.0044 42.2479 13.9545 42.0015 14.049Z" fill="#88B958"/>
</svg>
