<svg width="56" height="56" viewBox="0 0 56 56" fill="none" xmlns="http://www.w3.org/2000/svg">
<rect width="56" height="56" rx="4" fill="white"/>
<path fill-rule="evenodd" clip-rule="evenodd" d="M8.60677 18.1162C7.84368 18.4279 7.80749 19.1459 8.45792 21.0691C9.73624 24.8489 13.3593 30.564 16.2519 33.3636C18.7757 35.8061 21.7701 37.3621 24.8997 37.8571C26.2841 38.0762 28.0261 38.0392 28.7757 37.7749C29.5556 37.5 29.5399 37.5541 29.5982 34.9468C29.6624 32.0724 29.6755 32.0365 30.6545 32.0365C31.0376 32.0365 31.271 32.093 31.728 32.2961C32.7512 32.7508 33.6547 33.4561 35.9139 35.5635C37.1117 36.6808 38.2425 37.6785 38.4268 37.7805C38.7583 37.964 38.7893 37.9662 41.3858 37.9894C43.9284 38.0122 44.0212 38.0077 44.3826 37.8459C45.47 37.3587 45.1289 36.1668 43.2965 34.0518C42.4516 33.0765 41.7625 32.3749 40.0999 30.7972C38.2795 29.0699 38.1646 28.8953 38.4525 28.2932C38.5396 28.1108 38.9038 27.581 39.2618 27.1157C39.6196 26.6505 40.3737 25.6229 40.9375 24.8321C43.6649 21.0063 44.619 19.0742 44.1118 18.4041C43.8337 18.0367 43.5978 18.0074 40.9215 18.0083C38.4536 18.009 38.4221 18.011 37.9879 18.1981C37.6604 18.3392 37.485 18.4805 37.2968 18.7551C37.1582 18.9574 37.0447 19.1505 37.0447 19.1841C37.0447 19.3816 35.594 21.9775 34.8002 23.2006C33.2917 25.5245 31.4597 27.4536 30.5638 27.6617C30.2228 27.7409 29.9804 27.6485 29.7983 27.3698C29.6387 27.1256 29.6298 26.9334 29.5897 22.8518C29.5576 19.5896 29.5227 18.548 29.4406 18.4152C29.1885 18.0069 29.1248 18.001 25.2346 18.0245L21.6352 18.0462L21.3633 18.2979C20.9873 18.6459 20.9876 19.0325 21.3644 19.4943C21.9528 20.2156 22.2212 20.6228 22.4026 21.0691C22.5868 21.5225 22.5922 21.6219 22.6183 25.0358C22.6331 26.9617 22.6127 28.6533 22.5731 28.7947C22.48 29.1271 22.1818 29.2862 21.7819 29.2168C20.3271 28.9642 17.2104 24.3978 15.4674 19.9652C14.9536 18.6586 14.7336 18.3501 14.1558 18.1267C13.7354 17.9642 9.00096 17.9552 8.60677 18.1162Z" fill="#88B958"/>
</svg>
