<svg width="56" height="56" viewBox="0 0 56 56" fill="none" xmlns="http://www.w3.org/2000/svg">
<rect width="56" height="56" rx="4" fill="white"/>
<path fill-rule="evenodd" clip-rule="evenodd" d="M27.2479 12.0179C25.686 12.1957 24.7872 12.3815 23.6193 12.7681C21.2146 13.5639 19.209 14.8189 17.407 16.6552C15.0409 19.0665 13.6064 22.0131 13.0882 25.5263C12.9819 26.2477 12.9812 28.547 13.0871 29.3742C13.3863 31.7099 14.2261 34.016 15.4617 35.8944C15.6908 36.2428 15.8783 36.5614 15.8783 36.6027C15.8783 36.6439 15.4569 37.9435 14.942 39.4907C14.427 41.0378 14.0144 42.3126 14.0252 42.3233C14.036 42.3341 15.3714 41.9178 16.9928 41.3982L19.941 40.4534L20.495 40.7889C23.8657 42.8298 27.8956 43.4872 31.8334 42.6385C32.5926 42.4749 34.0184 42.0029 34.7469 41.6738C38.7397 39.8709 41.7958 36.4801 43.1564 32.3435C43.4871 31.3382 43.7195 30.2938 43.8172 29.3742C43.8544 29.0243 43.9107 28.6217 43.9423 28.4796C44.021 28.1264 44.0184 26.3863 43.9394 26.4353C43.9024 26.4582 43.8789 26.3651 43.8789 26.196C43.8789 25.4544 43.5545 23.8625 43.1558 22.648C41.7994 18.5153 38.7399 15.1207 34.7469 13.3176C33.5914 12.7958 32.0868 12.3601 30.6541 12.1324C30.0899 12.0427 27.7277 11.9633 27.2479 12.0179ZM22.1205 19.1402C21.8022 19.1933 21.4035 19.3648 21.1661 19.5507C21.0975 19.6044 20.885 19.824 20.6939 20.0387C19.4404 21.447 19.143 23.5046 19.9006 25.5263C20.5503 27.2598 22.3717 29.7886 24.3525 31.7072C26.0811 33.3814 27.6432 34.3883 29.7879 35.2103C32.2721 36.1625 33.6054 36.3578 34.836 35.9498C35.9854 35.5687 36.9358 34.8823 37.3122 34.1614C37.655 33.5051 37.8932 32.0801 37.7158 31.7478C37.6449 31.615 35.9392 30.7244 34.4585 30.047C33.2075 29.4747 33.0698 29.5162 32.2117 30.7237C32.004 31.016 31.7032 31.3978 31.5433 31.5721L31.2524 31.889H30.8074C30.3851 31.889 30.3228 31.8698 29.5891 31.5126C28.3537 30.9113 27.4195 30.2602 26.4393 29.3171C25.4362 28.352 24.1031 26.5111 24.1031 26.091C24.1031 25.9074 24.2962 25.6352 24.9123 24.9507C25.4464 24.3571 25.7093 23.8875 25.6496 23.6334C25.628 23.5414 25.2521 22.5984 24.8142 21.5379C23.9155 19.3614 23.8217 19.2076 23.3455 19.1294C22.9687 19.0675 22.5335 19.0713 22.1205 19.1402ZM13 27.4351C13 27.985 13.0092 28.21 13.0204 27.935C13.0316 27.6601 13.0316 27.2101 13.0204 26.9352C13.0092 26.6603 13 26.8852 13 27.4351Z" fill="#88B958"/>
</svg>
