<svg width="56" height="56" viewBox="0 0 56 56" fill="none" xmlns="http://www.w3.org/2000/svg">
<rect width="56" height="56" rx="4" fill="white"/>
<path fill-rule="evenodd" clip-rule="evenodd" d="M24.7482 15.0105C18.9876 15.1194 14.9863 15.4008 13.7328 15.7849C12.4104 16.19 11.2803 17.2998 10.8192 18.646C9.79607 21.6331 9.71075 32.1651 10.6794 35.9207C10.8887 36.7321 11.235 37.3755 11.7696 37.9459C12.5275 38.7543 13.4096 39.1997 14.6549 39.4025C19.5137 40.1939 36.8368 40.2008 41.3859 39.4132C42.6626 39.1921 43.3177 38.8708 44.1093 38.0774C45.0264 37.1582 45.3546 36.2859 45.6403 34.0081C46.2712 28.9779 46.0419 21.1823 45.1888 18.6589C44.6812 17.1576 43.4082 16.0464 41.7829 15.6858C40.6781 15.4407 38.2469 15.2414 34.8414 15.1168C32.6724 15.0375 26.6647 14.9742 24.7482 15.0105ZM24.4105 27.5003V32.8293L24.6168 32.7217C25.5953 32.2114 33.6285 27.5621 33.6309 27.5048C33.6332 27.447 27.6294 23.9677 24.8795 22.433L24.4105 22.1713V27.5003Z" fill="#88B958"/>
</svg>
